FiraSansMM-3.ufo
<glyph name="b" format="1">
  <advance width="570"/>
  <unicode hex="0062"/>
  <outline>
    <contour>
      <point x="303" y="-10" type="curve" smooth="yes"/>
      <point x="428" y="-10"/>
      <point x="495" y="94"/>
      <point x="495" y="264" type="curve" smooth="yes"/>
      <point x="495" y="436"/>
      <point x="429" y="530"/>
      <point x="309" y="530" type="curve" smooth="yes"/>
      <point x="237" y="530"/>
      <point x="183" y="493"/>
      <point x="145" y="442" type="curve"/>
      <point x="145" y="738" type="line"/>
      <point x="115" y="734" type="line"/>
      <point x="115" y="0" type="line"/>
      <point x="141" y="0" type="line"/>
      <point x="144" y="73" type="line"/>
      <point x="176" y="29"/>
      <point x="230" y="-10"/>
    </contour>
    <contour>
      <point x="302" y="18" type="curve" smooth="yes"/>
      <point x="233" y="18"/>
      <point x="182" y="56"/>
      <point x="145" y="110" type="curve"/>
      <point x="145" y="406" type="line"/>
      <point x="189" y="464"/>
      <point x="233" y="502"/>
      <point x="309" y="502" type="curve" smooth="yes"/>
      <point x="410" y="502"/>
      <point x="464" y="422"/>
      <point x="464" y="264" type="curve" smooth="yes"/>
      <point x="464" y="105"/>
      <point x="407" y="18"/>
    </contour>
    <contour>
      <point x="289" y="727" type="move" name="top"/>
    </contour>
    <contour>
      <point x="284" y="0" type="move" name="bottom"/>
    </contour>
  </outline>
</glyph>
<glyph name="d" format="1">
  <advance width="575"/>
  <unicode hex="0064"/>
  <outline>
    <contour>
      <point x="268" y="-10" type="curve" smooth="yes"/>
      <point x="354" y="-10"/>
      <point x="403" y="36"/>
      <point x="430" y="86" type="curve"/>
      <point x="434" y="0" type="line"/>
      <point x="460" y="0" type="line"/>
      <point x="460" y="734" type="line"/>
      <point x="430" y="738" type="line"/>
      <point x="430" y="454" type="line"/>
      <point x="403" y="490"/>
      <point x="359" y="530"/>
      <point x="279" y="530" type="curve" smooth="yes"/>
      <point x="151" y="530"/>
      <point x="75" y="419"/>
      <point x="75" y="258" type="curve" smooth="yes"/>
      <point x="75" y="90"/>
      <point x="152" y="-10"/>
    </contour>
    <contour>
      <point x="269" y="18" type="curve" smooth="yes"/>
      <point x="170" y="18"/>
      <point x="107" y="106"/>
      <point x="106" y="258" type="curve" smooth="yes"/>
      <point x="105" y="412"/>
      <point x="178" y="502"/>
      <point x="280" y="502" type="curve" smooth="yes"/>
      <point x="354" y="502"/>
      <point x="400" y="461"/>
      <point x="430" y="414" type="curve"/>
      <point x="430" y="131" type="line"/>
      <point x="394" y="59"/>
      <point x="348" y="18"/>
    </contour>
    <contour>
      <point x="288" y="0" type="move" name="bottom"/>
    </contour>
    <contour>
      <point x="280" y="727" type="move" name="top"/>
    </contour>
    <contour>
      <point x="497" y="727" type="move" name="topright"/>
    </contour>
    <contour>
      <point x="289" y="259" type="move" name="center"/>
    </contour>
  </outline>
</glyph>
<glyph name="h" format="1">
  <advance width="582"/>
  <unicode hex="0068"/>
  <outline>
    <contour>
      <point x="145" y="0" type="line"/>
      <point x="145" y="383" type="line"/>
      <point x="194" y="453"/>
      <point x="249" y="503"/>
      <point x="331" y="503" type="curve" smooth="yes"/>
      <point x="405" y="503"/>
      <point x="442" y="457"/>
      <point x="442" y="366" type="curve" smooth="yes"/>
      <point x="442" y="0" type="line"/>
      <point x="472" y="0" type="line"/>
      <point x="472" y="370" type="line" smooth="yes"/>
      <point x="472" y="470"/>
      <point x="425" y="530"/>
      <point x="332" y="530" type="curve" smooth="yes"/>
      <point x="251" y="530"/>
      <point x="192" y="486"/>
      <point x="145" y="421" type="curve"/>
      <point x="145" y="739" type="line"/>
      <point x="115" y="734" type="line"/>
      <point x="115" y="0" type="line"/>
    </contour>
    <contour>
      <point x="293" y="260" type="move" name="center"/>
    </contour>
    <contour>
      <point x="293" y="0" type="move" name="bottom"/>
    </contour>
    <contour>
      <point x="293" y="727" type="move" name="top"/>
    </contour>
  </outline>
</glyph>
<glyph name="l" format="1">
  <advance width="277"/>
  <unicode hex="006C"/>
  <outline>
    <contour>
      <point x="188" y="-10" type="curve" smooth="yes"/>
      <point x="206" y="-10"/>
      <point x="224" y="-5"/>
      <point x="237" y="1" type="curve"/>
      <point x="228" y="26" type="line"/>
      <point x="216" y="21"/>
      <point x="203" y="18"/>
      <point x="189" y="18" type="curve" smooth="yes"/>
      <point x="157" y="18"/>
      <point x="140" y="37"/>
      <point x="140" y="76" type="curve" smooth="yes"/>
      <point x="140" y="738" type="line"/>
      <point x="110" y="734" type="line"/>
      <point x="110" y="75" type="line" smooth="yes"/>
      <point x="110" y="15"/>
      <point x="143" y="-10"/>
    </contour>
    <contour>
      <point x="174" y="0" type="move" name="bottom"/>
    </contour>
    <contour>
      <point x="121" y="730" type="move" name="top"/>
    </contour>
    <contour>
      <point x="182" y="727" type="move" name="topright"/>
    </contour>
    <contour>
      <point x="256" y="375" type="move" name="center"/>
    </contour>
  </outline>
</glyph>
<glyph name="m" format="1">
  <advance width="849"/>
  <unicode hex="006D"/>
  <outline>
    <contour>
      <point x="145" y="0" type="line"/>
      <point x="145" y="383" type="line"/>
      <point x="188" y="453"/>
      <point x="243" y="503"/>
      <point x="311" y="503" type="curve" smooth="yes"/>
      <point x="377" y="503"/>
      <point x="412" y="457"/>
      <point x="412" y="366" type="curve" smooth="yes"/>
      <point x="412" y="0" type="line"/>
      <point x="442" y="0" type="line"/>
      <point x="442" y="383" type="line"/>
      <point x="485" y="453"/>
      <point x="540" y="503"/>
      <point x="608" y="503" type="curve" smooth="yes"/>
      <point x="673" y="503"/>
      <point x="709" y="457"/>
      <point x="709" y="366" type="curve" smooth="yes"/>
      <point x="709" y="0" type="line"/>
      <point x="739" y="0" type="line"/>
      <point x="739" y="370" type="line" smooth="yes"/>
      <point x="739" y="470"/>
      <point x="692" y="530"/>
      <point x="609" y="530" type="curve" smooth="yes"/>
      <point x="541" y="530"/>
      <point x="480" y="484"/>
      <point x="438" y="418" type="curve"/>
      <point x="425" y="489"/>
      <point x="381" y="530"/>
      <point x="312" y="530" type="curve" smooth="yes"/>
      <point x="245" y="530"/>
      <point x="186" y="486"/>
      <point x="144" y="422" type="curve"/>
      <point x="141" y="520" type="line"/>
      <point x="115" y="520" type="line"/>
      <point x="115" y="0" type="line"/>
    </contour>
    <contour>
      <point x="423" y="517" type="move" name="top"/>
    </contour>
    <contour>
      <point x="423" y="0" type="move" name="bottom"/>
    </contour>
  </outline>
</glyph>
<glyph name="p" format="1">
  <advance width="570"/>
  <unicode hex="0070"/>
  <outline>
    <contour>
      <point x="145" y="-193" type="line"/>
      <point x="145" y="72" type="line"/>
      <point x="177" y="29"/>
      <point x="231" y="-10"/>
      <point x="303" y="-10" type="curve" smooth="yes"/>
      <point x="428" y="-10"/>
      <point x="495" y="94"/>
      <point x="495" y="264" type="curve" smooth="yes"/>
      <point x="495" y="436"/>
      <point x="429" y="530"/>
      <point x="309" y="530" type="curve" smooth="yes"/>
      <point x="236" y="530"/>
      <point x="181" y="492"/>
      <point x="143" y="440" type="curve"/>
      <point x="141" y="520" type="line"/>
      <point x="115" y="520" type="line"/>
      <point x="115" y="-199" type="line"/>
    </contour>
    <contour>
      <point x="302" y="18" type="curve" smooth="yes"/>
      <point x="233" y="18"/>
      <point x="182" y="56"/>
      <point x="145" y="110" type="curve"/>
      <point x="145" y="406" type="line"/>
      <point x="189" y="464"/>
      <point x="233" y="502"/>
      <point x="309" y="502" type="curve" smooth="yes"/>
      <point x="410" y="502"/>
      <point x="464" y="422"/>
      <point x="464" y="264" type="curve" smooth="yes"/>
      <point x="464" y="105"/>
      <point x="407" y="18"/>
    </contour>
    <contour>
      <point x="284" y="517" type="move" name="top"/>
    </contour>
    <contour>
      <point x="284" y="-188" type="move" name="bottom"/>
    </contour>
  </outline>
</glyph>
<glyph name="q" format="1">
  <advance width="570"/>
  <unicode hex="0071"/>
  <outline>
    <contour>
      <point x="426" y="453" type="line"/>
      <point x="400" y="490"/>
      <point x="355" y="530"/>
      <point x="275" y="530" type="curve" smooth="yes"/>
      <point x="146" y="530"/>
      <point x="70" y="419"/>
      <point x="70" y="258" type="curve" smooth="yes"/>
      <point x="70" y="90"/>
      <point x="147" y="-10"/>
      <point x="264" y="-10" type="curve" smooth="yes"/>
      <point x="349" y="-10"/>
      <point x="397" y="34"/>
      <point x="425" y="84" type="curve"/>
      <point x="425" y="-193" type="line"/>
      <point x="455" y="-199" type="line"/>
      <point x="455" y="520" type="line"/>
      <point x="429" y="520" type="line"/>
    </contour>
    <contour>
      <point x="265" y="18" type="curve" smooth="yes"/>
      <point x="165" y="18"/>
      <point x="102" y="106"/>
      <point x="101" y="258" type="curve" smooth="yes"/>
      <point x="100" y="412"/>
      <point x="173" y="502"/>
      <point x="276" y="502" type="curve" smooth="yes"/>
      <point x="349" y="502"/>
      <point x="395" y="462"/>
      <point x="425" y="416" type="curve"/>
      <point x="425" y="129" type="line"/>
      <point x="389" y="58"/>
      <point x="344" y="18"/>
    </contour>
    <contour>
      <point x="284" y="517" type="move" name="top"/>
    </contour>
    <contour>
      <point x="284" y="-188" type="move" name="bottom"/>
    </contour>
  </outline>
</glyph>
<glyph name="t" format="1">
  <advance width="325"/>
  <unicode hex="0074"/>
  <outline>
    <contour>
      <point x="316" y="43" type="line"/>
      <point x="290" y="28"/>
      <point x="262" y="18"/>
      <point x="228" y="18" type="curve" smooth="yes"/>
      <point x="169" y="18"/>
      <point x="140" y="53"/>
      <point x="140" y="120" type="curve" smooth="yes"/>
      <point x="140" y="493" type="line"/>
      <point x="278" y="493" type="line"/>
      <point x="283" y="520" type="line"/>
      <point x="140" y="520" type="line"/>
      <point x="140" y="653" type="line"/>
      <point x="110" y="650" type="line"/>
      <point x="110" y="520" type="line"/>
      <point x="25" y="520" type="line"/>
      <point x="25" y="493" type="line"/>
      <point x="110" y="493" type="line"/>
      <point x="110" y="118" type="line" smooth="yes"/>
      <point x="110" y="32"/>
      <point x="155" y="-10"/>
      <point x="226" y="-10" type="curve" smooth="yes"/>
      <point x="267" y="-10"/>
      <point x="301" y="2"/>
      <point x="330" y="20" type="curve"/>
    </contour>
    <contour>
      <point x="225" y="0" type="move" name="bottom"/>
    </contour>
    <contour>
      <point x="118" y="651" type="move" name="top"/>
    </contour>
    <contour>
      <point x="157" y="730" type="move" name="topright"/>
    </contour>
    <contour>
      <point x="145" y="259" type="move" name="center"/>
    </contour>
  </outline>
</glyph>
<glyph name="cent" format="1">
  <advance width="462"/>
  <unicode hex="00A2"/>
  <outline>
    <contour>
      <point x="296" y="-147" type="line"/>
      <point x="296" y="-10" type="line"/>
      <point x="349" y="-7"/>
      <point x="392" y="13"/>
      <point x="427" y="44" type="curve"/>
      <point x="409" y="65" type="line"/>
      <point x="376" y="36"/>
      <point x="336" y="18"/>
      <point x="284" y="18" type="curve" smooth="yes"/>
      <point x="179" y="18"/>
      <point x="102" y="98"/>
      <point x="102" y="257" type="curve" smooth="yes"/>
      <point x="102" y="419"/>
      <point x="180" y="502"/>
      <point x="285" y="502" type="curve" smooth="yes"/>
      <point x="336" y="502"/>
      <point x="372" y="487"/>
      <point x="404" y="459" type="curve"/>
      <point x="421" y="480" type="line"/>
      <point x="383" y="512"/>
      <point x="346" y="528"/>
      <point x="296" y="530" type="curve"/>
      <point x="296" y="677" type="line"/>
      <point x="270" y="677" type="line"/>
      <point x="270" y="530" type="line"/>
      <point x="150" y="522"/>
      <point x="70" y="420"/>
      <point x="70" y="257" type="curve" smooth="yes"/>
      <point x="70" y="95"/>
      <point x="149" y="-1"/>
      <point x="269" y="-9" type="curve"/>
      <point x="269" y="-147" type="line"/>
    </contour>
    <contour>
      <point x="269" y="517" type="move" name="top"/>
    </contour>
    <contour>
      <point x="285" y="-1" type="move" name="bottom"/>
    </contour>
  </outline>
</glyph>
<glyph name="currency" format="1">
  <advance width="560"/>
  <unicode hex="00A4"/>
  <outline>
    <contour>
      <point x="169" y="195" type="line"/>
      <point x="197" y="171"/>
      <point x="235" y="157"/>
      <point x="281" y="157" type="curve" smooth="yes"/>
      <point x="326" y="157"/>
      <point x="364" y="171"/>
      <point x="392" y="194" type="curve"/>
      <point x="474" y="113" type="line"/>
      <point x="494" y="133" type="line"/>
      <point x="413" y="213" type="line"/>
      <point x="442" y="246"/>
      <point x="457" y="291"/>
      <point x="457" y="341" type="curve" smooth="yes"/>
      <point x="457" y="390"/>
      <point x="442" y="434"/>
      <point x="414" y="467" type="curve"/>
      <point x="494" y="546" type="line"/>
      <point x="474" y="566" type="line"/>
      <point x="394" y="486" type="line"/>
      <point x="365" y="510"/>
      <point x="327" y="524"/>
      <point x="281" y="524" type="curve" smooth="yes"/>
      <point x="235" y="524"/>
      <point x="197" y="510"/>
      <point x="168" y="485" type="curve"/>
      <point x="86" y="566" type="line"/>
      <point x="66" y="546" type="line"/>
      <point x="148" y="465" type="line"/>
      <point x="120" y="433"/>
      <point x="105" y="389"/>
      <point x="105" y="341" type="curve" smooth="yes"/>
      <point x="105" y="292"/>
      <point x="120" y="247"/>
      <point x="148" y="215" type="curve"/>
      <point x="66" y="133" type="line"/>
      <point x="86" y="113" type="line"/>
    </contour>
    <contour>
      <point x="281" y="184" type="curve" smooth="yes"/>
      <point x="184" y="184"/>
      <point x="135" y="250"/>
      <point x="135" y="340" type="curve" smooth="yes"/>
      <point x="135" y="431"/>
      <point x="184" y="497"/>
      <point x="281" y="497" type="curve" smooth="yes"/>
      <point x="380" y="497"/>
      <point x="427" y="431"/>
      <point x="427" y="340" type="curve" smooth="yes"/>
      <point x="427" y="251"/>
      <point x="380" y="184"/>
    </contour>
  </outline>
</glyph>
<glyph name="registered" format="1">
  <advance width="638"/>
  <unicode hex="00AE"/>
  <outline>
    <contour>
      <point x="319" y="272" type="curve" smooth="yes"/>
      <point x="447" y="272"/>
      <point x="548" y="375"/>
      <point x="548" y="501" type="curve" smooth="yes"/>
      <point x="548" y="631"/>
      <point x="447" y="726"/>
      <point x="319" y="726" type="curve" smooth="yes"/>
      <point x="191" y="726"/>
      <point x="90" y="623"/>
      <point x="90" y="497" type="curve" smooth="yes"/>
      <point x="90" y="367"/>
      <point x="191" y="272"/>
    </contour>
    <contour>
      <point x="319" y="298" type="curve" smooth="yes"/>
      <point x="209" y="298"/>
      <point x="118" y="382"/>
      <point x="118" y="497" type="curve" smooth="yes"/>
      <point x="118" y="610"/>
      <point x="209" y="700"/>
      <point x="319" y="700" type="curve" smooth="yes"/>
      <point x="432" y="700"/>
      <point x="520" y="616"/>
      <point x="520" y="501" type="curve" smooth="yes"/>
      <point x="520" y="388"/>
      <point x="429" y="298"/>
    </contour>
    <contour>
      <point x="273" y="368" type="line"/>
      <point x="273" y="484" type="line"/>
      <point x="319" y="484" type="line"/>
      <point x="386" y="368" type="line"/>
      <point x="423" y="368" type="line"/>
      <point x="349" y="488" type="line"/>
      <point x="388" y="497"/>
      <point x="411" y="518"/>
      <point x="411" y="558" type="curve" smooth="yes"/>
      <point x="411" y="611"/>
      <point x="377" y="637"/>
      <point x="305" y="637" type="curve" smooth="yes"/>
      <point x="243" y="637" type="line"/>
      <point x="243" y="368" type="line"/>
    </contour>
    <contour>
      <point x="273" y="610" type="line"/>
      <point x="310" y="610" type="line" smooth="yes"/>
      <point x="355" y="610"/>
      <point x="381" y="599"/>
      <point x="381" y="558" type="curve" smooth="yes"/>
      <point x="381" y="522"/>
      <point x="357" y="510"/>
      <point x="319" y="510" type="curve" smooth="yes"/>
      <point x="273" y="510" type="line"/>
    </contour>
  </outline>
</glyph>
<glyph name="Eth" format="1">
  <advance width="621"/>
  <unicode hex="00D0"/>
  <outline>
    <contour>
      <point x="119" y="682" type="line"/>
      <point x="119" y="367" type="line"/>
      <point x="25" y="367" type="line"/>
      <point x="25" y="337" type="line"/>
      <point x="119" y="337" type="line"/>
      <point x="119" y="0" type="line"/>
      <point x="251" y="0" type="line" smooth="yes"/>
      <point x="385" y="0"/>
      <point x="546" y="61"/>
      <point x="546" y="348" type="curve" smooth="yes"/>
      <point x="546" y="627"/>
      <point x="394" y="682"/>
      <point x="248" y="682" type="curve" smooth="yes"/>
    </contour>
    <contour>
      <point x="150" y="29" type="line"/>
      <point x="150" y="337" type="line"/>
      <point x="340" y="337" type="line"/>
      <point x="340" y="367" type="line"/>
      <point x="150" y="367" type="line"/>
      <point x="150" y="653" type="line"/>
      <point x="245" y="653" type="line" smooth="yes"/>
      <point x="374" y="653"/>
      <point x="514" y="614"/>
      <point x="514" y="348" type="curve" smooth="yes"/>
      <point x="514" y="87"/>
      <point x="379" y="29"/>
      <point x="252" y="29" type="curve" smooth="yes"/>
    </contour>
    <contour>
      <point x="303" y="340" type="move" name="center"/>
    </contour>
    <contour>
      <point x="304" y="0" type="move" name="bottom"/>
    </contour>
    <contour>
      <point x="283" y="680" type="move" name="top"/>
    </contour>
  </outline>
</glyph>
<glyph name="eth" format="1">
  <advance width="554"/>
  <unicode hex="00F0"/>
  <outline>
    <contour>
      <point x="269" y="-10" type="curve" smooth="yes"/>
      <point x="388" y="-10"/>
      <point x="469" y="84"/>
      <point x="469" y="292" type="curve" smooth="yes"/>
      <point x="469" y="482"/>
      <point x="408" y="588"/>
      <point x="310" y="665" type="curve"/>
      <point x="378" y="733" type="line"/>
      <point x="358" y="750" type="line"/>
      <point x="290" y="679" type="line"/>
      <point x="244" y="709"/>
      <point x="195" y="729"/>
      <point x="148" y="739" type="curve"/>
      <point x="141" y="713" type="line"/>
      <point x="187" y="704"/>
      <point x="237" y="681"/>
      <point x="271" y="659" type="curve"/>
      <point x="185" y="571" type="line"/>
      <point x="210" y="562" type="line"/>
      <point x="290" y="644" type="line"/>
      <point x="379" y="574"/>
      <point x="424" y="485"/>
      <point x="435" y="371" type="curve"/>
      <point x="388" y="428"/>
      <point x="332" y="463"/>
      <point x="260" y="463" type="curve" smooth="yes"/>
      <point x="138" y="463"/>
      <point x="70" y="353"/>
      <point x="70" y="231" type="curve" smooth="yes"/>
      <point x="70" y="85"/>
      <point x="140" y="-10"/>
    </contour>
    <contour>
      <point x="269" y="18" type="curve" smooth="yes"/>
      <point x="162" y="18"/>
      <point x="102" y="97"/>
      <point x="102" y="229" type="curve" smooth="yes"/>
      <point x="102" y="345"/>
      <point x="161" y="435"/>
      <point x="262" y="435" type="curve" smooth="yes"/>
      <point x="328" y="435"/>
      <point x="388" y="397"/>
      <point x="437" y="335" type="curve"/>
      <point x="438" y="325"/>
      <point x="438" y="314"/>
      <point x="438" y="295" type="curve" smooth="yes"/>
      <point x="438" y="113"/>
      <point x="376" y="18"/>
    </contour>
    <contour>
      <point x="286" y="727" type="move" name="top"/>
    </contour>
    <contour>
      <point x="268" y="0" type="move" name="bottom"/>
    </contour>
  </outline>
</glyph>
<glyph name="hbar" format="1">
  <advance width="587"/>
  <unicode hex="0127"/>
  <outline>
    <contour>
      <point x="150" y="0" type="line"/>
      <point x="150" y="383" type="line"/>
      <point x="199" y="453"/>
      <point x="254" y="503"/>
      <point x="336" y="503" type="curve" smooth="yes"/>
      <point x="410" y="503"/>
      <point x="447" y="457"/>
      <point x="447" y="366" type="curve" smooth="yes"/>
      <point x="447" y="0" type="line"/>
      <point x="477" y="0" type="line"/>
      <point x="477" y="370" type="line" smooth="yes"/>
      <point x="477" y="470"/>
      <point x="430" y="530"/>
      <point x="337" y="530" type="curve" smooth="yes"/>
      <point x="256" y="530"/>
      <point x="197" y="486"/>
      <point x="150" y="421" type="curve"/>
      <point x="150" y="625" type="line"/>
      <point x="329" y="625" type="line"/>
      <point x="329" y="652" type="line"/>
      <point x="150" y="652" type="line"/>
      <point x="150" y="739" type="line"/>
      <point x="120" y="734" type="line"/>
      <point x="120" y="652" type="line"/>
      <point x="45" y="652" type="line"/>
      <point x="45" y="625" type="line"/>
      <point x="120" y="625" type="line"/>
      <point x="120" y="0" type="line"/>
    </contour>
    <contour>
      <point x="298" y="260" type="move" name="center"/>
    </contour>
    <contour>
      <point x="298" y="0" type="move" name="bottom"/>
    </contour>
    <contour>
      <point x="298" y="727" type="move" name="top"/>
    </contour>
  </outline>
</glyph>
<glyph name="Lslash" format="1">
  <advance width="466"/>
  <unicode hex="0141"/>
  <outline>
    <contour>
      <point x="157" y="321" type="line"/>
      <point x="368" y="453" type="line"/>
      <point x="355" y="475" type="line"/>
      <point x="157" y="350" type="line"/>
      <point x="157" y="682" type="line"/>
      <point x="126" y="682" type="line"/>
      <point x="126" y="331" type="line"/>
      <point x="42" y="279" type="line"/>
      <point x="55" y="257" type="line"/>
      <point x="126" y="301" type="line"/>
      <point x="126" y="0" type="line"/>
      <point x="440" y="0" type="line"/>
      <point x="446" y="30" type="line"/>
      <point x="157" y="30" type="line"/>
    </contour>
    <contour>
      <point x="277" y="0" type="move" name="bottom"/>
    </contour>
    <contour>
      <point x="133" y="680" type="move" name="top"/>
    </contour>
    <contour>
      <point x="184" y="680" type="move" name="topright"/>
    </contour>
    <contour>
      <point x="352" y="355" type="move" name="center"/>
    </contour>
  </outline>
</glyph>
<glyph name="lslash" format="1">
  <advance width="289"/>
  <unicode hex="0142"/>
  <outline>
    <contour>
      <point x="195" y="-10" type="curve" smooth="yes"/>
      <point x="213" y="-10"/>
      <point x="231" y="-5"/>
      <point x="244" y="1" type="curve"/>
      <point x="235" y="26" type="line"/>
      <point x="223" y="21"/>
      <point x="210" y="18"/>
      <point x="196" y="18" type="curve" smooth="yes"/>
      <point x="164" y="18"/>
      <point x="147" y="37"/>
      <point x="147" y="76" type="curve" smooth="yes"/>
      <point x="147" y="358" type="line"/>
      <point x="264" y="430" type="line"/>
      <point x="251" y="452" type="line"/>
      <point x="147" y="388" type="line"/>
      <point x="147" y="738" type="line"/>
      <point x="117" y="734" type="line"/>
      <point x="117" y="369" type="line"/>
      <point x="41" y="322" type="line"/>
      <point x="54" y="301" type="line"/>
      <point x="117" y="340" type="line"/>
      <point x="117" y="75" type="line" smooth="yes"/>
      <point x="117" y="15"/>
      <point x="150" y="-10"/>
    </contour>
    <contour>
      <point x="180" y="0" type="move" name="bottom"/>
    </contour>
    <contour>
      <point x="127" y="730" type="move" name="top"/>
    </contour>
    <contour>
      <point x="188" y="727" type="move" name="topright"/>
    </contour>
    <contour>
      <point x="262" y="375" type="move" name="center"/>
    </contour>
  </outline>
</glyph>
<glyph name="OE" format="1">
  <advance width="848"/>
  <unicode hex="0152"/>
  <outline>
    <contour>
      <point x="335" y="-10" type="curve" smooth="yes"/>
      <point x="358" y="-10"/>
      <point x="380" y="-7"/>
      <point x="401" y="0" type="curve"/>
      <point x="808" y="0" type="line"/>
      <point x="808" y="29" type="line"/>
      <point x="461" y="29" type="line"/>
      <point x="545" y="78"/>
      <point x="594" y="184"/>
      <point x="595" y="345" type="curve"/>
      <point x="758" y="345" type="line"/>
      <point x="758" y="373" type="line"/>
      <point x="595" y="373" type="line"/>
      <point x="590" y="510"/>
      <point x="542" y="604"/>
      <point x="463" y="653" type="curve"/>
      <point x="798" y="653" type="line"/>
      <point x="802" y="682" type="line"/>
      <point x="405" y="682" type="line"/>
      <point x="383" y="689"/>
      <point x="360" y="692"/>
      <point x="335" y="692" type="curve" smooth="yes"/>
      <point x="186" y="692"/>
      <point x="75" y="565"/>
      <point x="75" y="339" type="curve" smooth="yes"/>
      <point x="75" y="114"/>
      <point x="185" y="-10"/>
    </contour>
    <contour>
      <point x="335" y="19" type="curve" smooth="yes"/>
      <point x="205" y="19"/>
      <point x="107" y="129"/>
      <point x="107" y="339" type="curve" smooth="yes"/>
      <point x="107" y="554"/>
      <point x="204" y="663"/>
      <point x="335" y="663" type="curve" smooth="yes"/>
      <point x="468" y="663"/>
      <point x="563" y="556"/>
      <point x="563" y="349" type="curve" smooth="yes"/>
      <point x="563" y="129"/>
      <point x="473" y="19"/>
    </contour>
    <contour>
      <point x="419" y="680" type="move" name="top"/>
    </contour>
    <contour>
      <point x="419" y="0" type="move" name="bottom"/>
    </contour>
  </outline>
</glyph>
<glyph name="uni0180" format="1">
  <advance width="575"/>
  <unicode hex="0180"/>
  <outline>
    <contour>
      <point x="308" y="-10" type="curve" smooth="yes"/>
      <point x="433" y="-10"/>
      <point x="500" y="94"/>
      <point x="500" y="264" type="curve" smooth="yes"/>
      <point x="500" y="436"/>
      <point x="434" y="530"/>
      <point x="314" y="530" type="curve" smooth="yes"/>
      <point x="242" y="530"/>
      <point x="188" y="493"/>
      <point x="150" y="442" type="curve"/>
      <point x="150" y="625" type="line"/>
      <point x="329" y="625" type="line"/>
      <point x="329" y="652" type="line"/>
      <point x="150" y="652" type="line"/>
      <point x="150" y="738" type="line"/>
      <point x="120" y="734" type="line"/>
      <point x="120" y="652" type="line"/>
      <point x="45" y="652" type="line"/>
      <point x="45" y="625" type="line"/>
      <point x="120" y="625" type="line"/>
      <point x="120" y="0" type="line"/>
      <point x="146" y="0" type="line"/>
      <point x="149" y="73" type="line"/>
      <point x="181" y="29"/>
      <point x="235" y="-10"/>
    </contour>
    <contour>
      <point x="307" y="18" type="curve" smooth="yes"/>
      <point x="238" y="18"/>
      <point x="187" y="56"/>
      <point x="150" y="110" type="curve"/>
      <point x="150" y="406" type="line"/>
      <point x="194" y="464"/>
      <point x="238" y="502"/>
      <point x="314" y="502" type="curve" smooth="yes"/>
      <point x="415" y="502"/>
      <point x="469" y="422"/>
      <point x="469" y="264" type="curve" smooth="yes"/>
      <point x="469" y="105"/>
      <point x="412" y="18"/>
    </contour>
    <contour>
      <point x="294" y="727" type="move" name="top"/>
    </contour>
    <contour>
      <point x="289" y="0" type="move" name="bottom"/>
    </contour>
  </outline>
</glyph>
<glyph name="uni0196" format="1">
  <advance width="325"/>
  <unicode hex="0196"/>
  <outline>
    <contour>
      <point x="290" y="42" type="line"/>
      <point x="271" y="29"/>
      <point x="249" y="18"/>
      <point x="214" y="18" type="curve" smooth="yes"/>
      <point x="175" y="18"/>
      <point x="141" y="40"/>
      <point x="141" y="109" type="curve" smooth="yes"/>
      <point x="141" y="682" type="line"/>
      <point x="110" y="682" type="line"/>
      <point x="110" y="107" type="line" smooth="yes"/>
      <point x="110" y="28"/>
      <point x="154" y="-10"/>
      <point x="214" y="-10" type="curve" smooth="yes"/>
      <point x="255" y="-10"/>
      <point x="285" y="6"/>
      <point x="305" y="21" type="curve"/>
    </contour>
    <contour>
      <point x="121" y="680" type="move" name="top"/>
    </contour>
    <contour>
      <point x="192" y="0" type="move" name="bottom"/>
    </contour>
  </outline>
</glyph>
<glyph name="uni0199" format="1">
  <advance width="469"/>
  <unicode hex="0199"/>
  <outline>
    <contour>
      <point x="145" y="0" type="line"/>
      <point x="145" y="613" type="line" smooth="yes"/>
      <point x="145" y="683"/>
      <point x="185" y="710"/>
      <point x="246" y="710" type="curve" smooth="yes"/>
      <point x="283" y="710"/>
      <point x="316" y="701"/>
      <point x="350" y="685" type="curve"/>
      <point x="362" y="709" type="line"/>
      <point x="327" y="727"/>
      <point x="285" y="738"/>
      <point x="244" y="738" type="curve" smooth="yes"/>
      <point x="167" y="738"/>
      <point x="115" y="695"/>
      <point x="115" y="617" type="curve" smooth="yes"/>
      <point x="115" y="0" type="line"/>
    </contour>
    <contour>
      <point x="454" y="0" type="line"/>
      <point x="189" y="285" type="line"/>
      <point x="430" y="520" type="line"/>
      <point x="392" y="520" type="line"/>
      <point x="151" y="284" type="line"/>
      <point x="417" y="0" type="line"/>
    </contour>
  </outline>
</glyph>
<glyph name="uni019C" format="1">
  <advance width="925"/>
  <unicode hex="019C"/>
  <outline>
    <contour>
      <point x="263" y="-10" type="curve" smooth="yes"/>
      <point x="345" y="-10"/>
      <point x="409" y="44"/>
      <point x="449" y="110" type="curve"/>
      <point x="467" y="32"/>
      <point x="518" y="-10"/>
      <point x="595" y="-10" type="curve" smooth="yes"/>
      <point x="676" y="-10"/>
      <point x="738" y="42"/>
      <point x="775" y="106" type="curve"/>
      <point x="778" y="0" type="line"/>
      <point x="805" y="0" type="line"/>
      <point x="805" y="682" type="line"/>
      <point x="774" y="682" type="line"/>
      <point x="774" y="149" type="line"/>
      <point x="737" y="79"/>
      <point x="679" y="19"/>
      <point x="596" y="19" type="curve" smooth="yes"/>
      <point x="517" y="19"/>
      <point x="473" y="73"/>
      <point x="473" y="175" type="curve" smooth="yes"/>
      <point x="473" y="682" type="line"/>
      <point x="442" y="682" type="line"/>
      <point x="442" y="180" type="line" smooth="yes"/>
      <point x="442" y="169"/>
      <point x="442" y="158"/>
      <point x="443" y="148" type="curve"/>
      <point x="403" y="76"/>
      <point x="345" y="19"/>
      <point x="264" y="19" type="curve" smooth="yes"/>
      <point x="185" y="19"/>
      <point x="141" y="73"/>
      <point x="141" y="175" type="curve" smooth="yes"/>
      <point x="141" y="682" type="line"/>
      <point x="110" y="682" type="line"/>
      <point x="110" y="180" type="line" smooth="yes"/>
      <point x="110" y="58"/>
      <point x="165" y="-10"/>
    </contour>
    <contour>
      <point x="459" y="680" type="move" name="top"/>
    </contour>
    <contour>
      <point x="459" y="0" type="move" name="bottom"/>
    </contour>
  </outline>
</glyph>
<glyph name="uni019D" format="1">
  <advance width="664"/>
  <unicode hex="019D"/>
  <outline>
    <contour>
      <point x="46" y="-199" type="curve" smooth="yes"/>
      <point x="106" y="-199"/>
      <point x="150" y="-161"/>
      <point x="150" y="-82" type="curve" smooth="yes"/>
      <point x="150" y="438" type="line"/>
      <point x="150" y="557"/>
      <point x="149" y="608"/>
      <point x="146" y="647" type="curve"/>
      <point x="506" y="0" type="line"/>
      <point x="544" y="0" type="line"/>
      <point x="544" y="682" type="line"/>
      <point x="514" y="682" type="line"/>
      <point x="514" y="232" type="line"/>
      <point x="514" y="140"/>
      <point x="516" y="75"/>
      <point x="518" y="35" type="curve"/>
      <point x="159" y="682" type="line"/>
      <point x="120" y="682" type="line"/>
      <point x="120" y="-81" type="line" smooth="yes"/>
      <point x="120" y="-150"/>
      <point x="86" y="-172"/>
      <point x="46" y="-172" type="curve" smooth="yes"/>
      <point x="11" y="-172"/>
      <point x="-11" y="-161"/>
      <point x="-30" y="-148" type="curve"/>
      <point x="-45" y="-168" type="line"/>
      <point x="-25" y="-183"/>
      <point x="5" y="-199"/>
    </contour>
    <contour>
      <point x="331" y="680" type="move" name="top"/>
    </contour>
    <contour>
      <point x="321" y="0" type="move" name="bottom"/>
    </contour>
  </outline>
</glyph>
<glyph name="uni019E" format="1">
  <advance width="582"/>
  <unicode hex="019E"/>
  <outline>
    <contour>
      <point x="332" y="530" type="curve" smooth="yes"/>
      <point x="251" y="530"/>
      <point x="190" y="485"/>
      <point x="144" y="421" type="curve"/>
      <point x="141" y="520" type="line"/>
      <point x="115" y="520" type="line"/>
      <point x="115" y="0" type="line"/>
      <point x="145" y="0" type="line"/>
      <point x="145" y="383" type="line"/>
      <point x="194" y="453"/>
      <point x="249" y="503"/>
      <point x="331" y="503" type="curve" smooth="yes"/>
      <point x="405" y="503"/>
      <point x="442" y="459"/>
      <point x="442" y="366" type="curve" smooth="yes"/>
      <point x="442" y="-193" type="line"/>
      <point x="472" y="-199" type="line"/>
      <point x="472" y="370" type="line" smooth="yes"/>
      <point x="472" y="472"/>
      <point x="426" y="530"/>
    </contour>
    <contour>
      <point x="295" y="517" type="move" name="top"/>
    </contour>
    <contour>
      <point x="287" y="0" type="move" name="bottom"/>
    </contour>
    <contour>
      <point x="115" y="517" type="move" name="topleft"/>
    </contour>
  </outline>
</glyph>
<glyph name="uni01A2" format="1">
  <advance width="884"/>
  <unicode hex="01A2"/>
  <outline>
    <contour>
      <point x="764" y="-193" type="line"/>
      <point x="764" y="561" type="line" smooth="yes"/>
      <point x="764" y="654"/>
      <point x="716" y="692"/>
      <point x="639" y="692" type="curve" smooth="yes"/>
      <point x="582" y="692"/>
      <point x="534" y="669"/>
      <point x="495" y="646" type="curve"/>
      <point x="454" y="676"/>
      <point x="403" y="692"/>
      <point x="345" y="692" type="curve" smooth="yes"/>
      <point x="186" y="692"/>
      <point x="75" y="565"/>
      <point x="75" y="339" type="curve" smooth="yes"/>
      <point x="75" y="114"/>
      <point x="185" y="-10"/>
      <point x="345" y="-10" type="curve" smooth="yes"/>
      <point x="511" y="-10"/>
      <point x="615" y="118"/>
      <point x="615" y="340" type="curve" smooth="yes"/>
      <point x="615" y="474"/>
      <point x="578" y="571"/>
      <point x="516" y="628" type="curve"/>
      <point x="551" y="648"/>
      <point x="590" y="665"/>
      <point x="639" y="665" type="curve" smooth="yes"/>
      <point x="696" y="665"/>
      <point x="733" y="643"/>
      <point x="733" y="560" type="curve" smooth="yes"/>
      <point x="733" y="-193" type="line"/>
    </contour>
    <contour>
      <point x="345" y="19" type="curve" smooth="yes"/>
      <point x="205" y="19"/>
      <point x="107" y="129"/>
      <point x="107" y="339" type="curve" smooth="yes"/>
      <point x="107" y="554"/>
      <point x="204" y="663"/>
      <point x="345" y="663" type="curve" smooth="yes"/>
      <point x="488" y="663"/>
      <point x="583" y="556"/>
      <point x="583" y="340" type="curve" smooth="yes"/>
      <point x="583" y="129"/>
      <point x="493" y="19"/>
    </contour>
    <contour>
      <point x="437" y="680" type="move" name="top"/>
    </contour>
    <contour>
      <point x="437" y="-188" type="move" name="bottom"/>
    </contour>
  </outline>
</glyph>
<glyph name="uni01A6" format="1">
  <advance width="577"/>
  <unicode hex="01A6"/>
  <outline>
    <contour>
      <point x="537" y="-130" type="line"/>
      <point x="347" y="196" type="line"/>
      <point x="440" y="216"/>
      <point x="502" y="266"/>
      <point x="502" y="373" type="curve" smooth="yes"/>
      <point x="502" y="488"/>
      <point x="433" y="552"/>
      <point x="274" y="552" type="curve" smooth="yes"/>
      <point x="151" y="552" type="line"/>
      <point x="151" y="682" type="line"/>
      <point x="120" y="682" type="line"/>
      <point x="120" y="0" type="line"/>
      <point x="151" y="0" type="line"/>
      <point x="151" y="190" type="line"/>
      <point x="313" y="190" type="line"/>
      <point x="498" y="-130" type="line"/>
    </contour>
    <contour>
      <point x="151" y="523" type="line"/>
      <point x="270" y="523" type="line" smooth="yes"/>
      <point x="417" y="523"/>
      <point x="470" y="469"/>
      <point x="470" y="373" type="curve" smooth="yes"/>
      <point x="470" y="267"/>
      <point x="400" y="219"/>
      <point x="280" y="219" type="curve" smooth="yes"/>
      <point x="151" y="219" type="line"/>
    </contour>
    <contour>
      <point x="281" y="680" type="move" name="top"/>
    </contour>
    <contour>
      <point x="281" y="-188" type="move" name="bottom"/>
    </contour>
  </outline>
</glyph>
<glyph name="uni01AA" format="1">
  <advance width="268"/>
  <unicode hex="01AA"/>
  <outline>
    <contour>
      <point x="224" y="-199" type="curve" smooth="yes"/>
      <point x="265" y="-199"/>
      <point x="295" y="-183"/>
      <point x="315" y="-168" type="curve"/>
      <point x="300" y="-148" type="line"/>
      <point x="281" y="-161"/>
      <point x="259" y="-172"/>
      <point x="224" y="-172" type="curve" smooth="yes"/>
      <point x="184" y="-172"/>
      <point x="150" y="-150"/>
      <point x="150" y="-81" type="curve" smooth="yes"/>
      <point x="150" y="633" type="line" smooth="yes"/>
      <point x="150" y="692"/>
      <point x="117" y="738"/>
      <point x="55" y="738" type="curve" smooth="yes"/>
      <point x="-3" y="738"/>
      <point x="-45" y="691"/>
      <point x="-45" y="626" type="curve" smooth="yes"/>
      <point x="-45" y="559"/>
      <point x="-3" y="519"/>
      <point x="56" y="519" type="curve" smooth="yes"/>
      <point x="81" y="519"/>
      <point x="102" y="525"/>
      <point x="120" y="535" type="curve"/>
      <point x="120" y="-82" type="line" smooth="yes"/>
      <point x="120" y="-161"/>
      <point x="164" y="-199"/>
    </contour>
    <contour>
      <point x="57" y="546" type="curve" smooth="yes"/>
      <point x="15" y="546"/>
      <point x="-15" y="570"/>
      <point x="-15" y="627" type="curve" smooth="yes"/>
      <point x="-15" y="678"/>
      <point x="12" y="711"/>
      <point x="55" y="711" type="curve" smooth="yes"/>
      <point x="97" y="711"/>
      <point x="120" y="681"/>
      <point x="120" y="632" type="curve" smooth="yes"/>
      <point x="120" y="561" type="line"/>
      <point x="104" y="552"/>
      <point x="84" y="546"/>
    </contour>
    <contour>
      <point x="128" y="727" type="move" name="top"/>
    </contour>
    <contour>
      <point x="128" y="-188" type="move" name="bottom"/>
    </contour>
  </outline>
</glyph>
<glyph name="uni01B5" format="1">
  <advance width="511"/>
  <unicode hex="01B5"/>
  <outline>
    <contour>
      <point x="445" y="0" type="line"/>
      <point x="449" y="30" type="line"/>
      <point x="77" y="30" type="line"/>
      <point x="261" y="329" type="line"/>
      <point x="391" y="329" type="line"/>
      <point x="391" y="357" type="line"/>
      <point x="278" y="357" type="line"/>
      <point x="461" y="655" type="line"/>
      <point x="461" y="682" type="line"/>
      <point x="78" y="682" type="line"/>
      <point x="78" y="653" type="line"/>
      <point x="425" y="653" type="line"/>
      <point x="243" y="357" type="line"/>
      <point x="118" y="357" type="line"/>
      <point x="118" y="329" type="line"/>
      <point x="225" y="329" type="line"/>
      <point x="40" y="28" type="line"/>
      <point x="40" y="0" type="line"/>
    </contour>
    <contour>
      <point x="252" y="680" type="move" name="top"/>
    </contour>
    <contour>
      <point x="252" y="0" type="move" name="bottom"/>
    </contour>
  </outline>
</glyph>
<glyph name="uni01B6" format="1">
  <advance width="410"/>
  <unicode hex="01B6"/>
  <outline>
    <contour>
      <point x="55" y="520" type="line"/>
      <point x="55" y="492" type="line"/>
      <point x="338" y="492" type="line"/>
      <point x="30" y="25" type="line"/>
      <point x="30" y="0" type="line"/>
      <point x="366" y="0" type="line"/>
      <point x="369" y="28" type="line"/>
      <point x="68" y="28" type="line"/>
      <point x="375" y="495" type="line"/>
      <point x="375" y="520" type="line"/>
    </contour>
    <contour>
      <point x="333" y="256" type="line"/>
      <point x="333" y="284" type="line"/>
      <point x="84" y="284" type="line"/>
      <point x="84" y="256" type="line"/>
    </contour>
    <contour>
      <point x="205" y="517" type="move" name="top"/>
    </contour>
    <contour>
      <point x="205" y="0" type="move" name="bottom"/>
    </contour>
  </outline>
</glyph>
<glyph name="uni01F7" format="1">
  <advance width="561"/>
  <unicode hex="01F7"/>
  <outline>
    <contour>
      <point x="151" y="0" type="line"/>
      <point x="151" y="220" type="line"/>
      <point x="259" y="258" type="line" smooth="yes"/>
      <point x="396" y="306"/>
      <point x="506" y="369"/>
      <point x="506" y="517" type="curve" smooth="yes"/>
      <point x="506" y="626"/>
      <point x="435" y="692"/>
      <point x="330" y="692" type="curve" smooth="yes"/>
      <point x="247" y="692"/>
      <point x="192" y="658"/>
      <point x="151" y="622" type="curve"/>
      <point x="151" y="682" type="line"/>
      <point x="120" y="682" type="line"/>
      <point x="120" y="0" type="line"/>
    </contour>
    <contour>
      <point x="151" y="593" type="line"/>
      <point x="193" y="629"/>
      <point x="247" y="663"/>
      <point x="330" y="663" type="curve" smooth="yes"/>
      <point x="416" y="663"/>
      <point x="474" y="612"/>
      <point x="474" y="516" type="curve" smooth="yes"/>
      <point x="474" y="384"/>
      <point x="379" y="329"/>
      <point x="262" y="288" type="curve" smooth="yes"/>
      <point x="151" y="249" type="line"/>
    </contour>
    <contour>
      <point x="276" y="680" type="move" name="top"/>
    </contour>
    <contour>
      <point x="276" y="0" type="move" name="bottom"/>
    </contour>
  </outline>
</glyph>
<glyph name="uni0220" format="1">
  <advance width="655"/>
  <unicode hex="0220"/>
  <outline>
    <contour>
      <point x="543" y="-193" type="line"/>
      <point x="543" y="492" type="line" smooth="yes"/>
      <point x="543" y="624"/>
      <point x="479" y="692"/>
      <point x="370" y="692" type="curve" smooth="yes"/>
      <point x="271" y="692"/>
      <point x="198" y="638"/>
      <point x="150" y="573" type="curve"/>
      <point x="147" y="682" type="line"/>
      <point x="120" y="682" type="line"/>
      <point x="120" y="0" type="line"/>
      <point x="151" y="0" type="line"/>
      <point x="151" y="533" type="line"/>
      <point x="200" y="603"/>
      <point x="268" y="663"/>
      <point x="369" y="663" type="curve" smooth="yes"/>
      <point x="458" y="663"/>
      <point x="512" y="609"/>
      <point x="512" y="487" type="curve" smooth="yes"/>
      <point x="512" y="-193" type="line"/>
    </contour>
    <contour>
      <point x="320" y="680" type="move" name="top"/>
    </contour>
    <contour>
      <point x="320" y="-188" type="move" name="bottom"/>
    </contour>
  </outline>
</glyph>
<glyph name="uni0222" format="1">
  <advance width="630"/>
  <unicode hex="0222"/>
  <outline>
    <contour>
      <point x="315" y="-10" type="curve" smooth="yes"/>
      <point x="481" y="-10"/>
      <point x="555" y="78"/>
      <point x="555" y="192" type="curve" smooth="yes"/>
      <point x="555" y="289"/>
      <point x="506" y="359"/>
      <point x="407" y="384" type="curve"/>
      <point x="482" y="412"/>
      <point x="511" y="477"/>
      <point x="511" y="558" type="curve" smooth="yes"/>
      <point x="511" y="682" type="line"/>
      <point x="480" y="682" type="line"/>
      <point x="480" y="558" type="line" smooth="yes"/>
      <point x="480" y="462"/>
      <point x="444" y="396"/>
      <point x="315" y="396" type="curve" smooth="yes"/>
      <point x="187" y="396"/>
      <point x="154" y="464"/>
      <point x="154" y="558" type="curve" smooth="yes"/>
      <point x="154" y="682" type="line"/>
      <point x="123" y="682" type="line"/>
      <point x="123" y="558" type="line" smooth="yes"/>
      <point x="123" y="475"/>
      <point x="148" y="411"/>
      <point x="223" y="384" type="curve"/>
      <point x="125" y="357"/>
      <point x="75" y="284"/>
      <point x="75" y="191" type="curve" smooth="yes"/>
      <point x="75" y="74"/>
      <point x="155" y="-10"/>
    </contour>
    <contour>
      <point x="315" y="19" type="curve" smooth="yes"/>
      <point x="172" y="19"/>
      <point x="107" y="89"/>
      <point x="107" y="191" type="curve" smooth="yes"/>
      <point x="107" y="298"/>
      <point x="174" y="367"/>
      <point x="315" y="367" type="curve" smooth="yes"/>
      <point x="460" y="367"/>
      <point x="523" y="300"/>
      <point x="523" y="192" type="curve" smooth="yes"/>
      <point x="523" y="89"/>
      <point x="463" y="19"/>
    </contour>
    <contour>
      <point x="314" y="680" type="move" name="top"/>
    </contour>
    <contour>
      <point x="314" y="0" type="move" name="bottom"/>
    </contour>
  </outline>
</glyph>
<glyph name="uni0223" format="1">
  <advance width="558"/>
  <unicode hex="0223"/>
  <outline>
    <contour>
      <point x="354" y="410" type="curve"/>
      <point x="425" y="436"/>
      <point x="454" y="498"/>
      <point x="454" y="574" type="curve" smooth="yes"/>
      <point x="454" y="734" type="line"/>
      <point x="424" y="734" type="line"/>
      <point x="424" y="574" type="line" smooth="yes"/>
      <point x="424" y="493"/>
      <point x="388" y="422"/>
      <point x="279" y="422" type="curve" smooth="yes"/>
      <point x="171" y="422"/>
      <point x="138" y="490"/>
      <point x="138" y="574" type="curve" smooth="yes"/>
      <point x="138" y="734" type="line"/>
      <point x="108" y="734" type="line"/>
      <point x="108" y="574" type="line" smooth="yes"/>
      <point x="108" y="498"/>
      <point x="134" y="436"/>
      <point x="205" y="410" type="curve"/>
      <point x="115" y="382"/>
      <point x="70" y="303"/>
      <point x="70" y="204" type="curve" smooth="yes"/>
      <point x="70" y="74"/>
      <point x="149" y="-10"/>
      <point x="279" y="-10" type="curve" smooth="yes"/>
      <point x="415" y="-10"/>
      <point x="488" y="78"/>
      <point x="488" y="205" type="curve" smooth="yes"/>
      <point x="488" y="308"/>
      <point x="444" y="384"/>
    </contour>
    <contour>
      <point x="279" y="18" type="curve" smooth="yes"/>
      <point x="166" y="18"/>
      <point x="101" y="88"/>
      <point x="101" y="204" type="curve" smooth="yes"/>
      <point x="101" y="316"/>
      <point x="158" y="395"/>
      <point x="279" y="395" type="curve" smooth="yes"/>
      <point x="404" y="395"/>
      <point x="457" y="318"/>
      <point x="457" y="205" type="curve" smooth="yes"/>
      <point x="457" y="89"/>
      <point x="397" y="18"/>
    </contour>
    <contour>
      <point x="276" y="727" type="move" name="top"/>
    </contour>
    <contour>
      <point x="276" y="0" type="move" name="bottom"/>
    </contour>
  </outline>
</glyph>
<glyph name="uni0238" format="1">
  <advance width="845"/>
  <unicode hex="0238"/>
  <outline>
    <contour>
      <point x="258" y="-10" type="curve" smooth="yes"/>
      <point x="335" y="-10"/>
      <point x="383" y="36"/>
      <point x="410" y="87" type="curve"/>
      <point x="414" y="0" type="line"/>
      <point x="436" y="0" type="line"/>
      <point x="440" y="87" type="line"/>
      <point x="467" y="36"/>
      <point x="521" y="-10"/>
      <point x="588" y="-10" type="curve" smooth="yes"/>
      <point x="703" y="-10"/>
      <point x="770" y="94"/>
      <point x="770" y="264" type="curve" smooth="yes"/>
      <point x="770" y="436"/>
      <point x="704" y="530"/>
      <point x="594" y="530" type="curve" smooth="yes"/>
      <point x="531" y="530"/>
      <point x="478" y="495"/>
      <point x="440" y="443" type="curve"/>
      <point x="440" y="738" type="line"/>
      <point x="410" y="734" type="line"/>
      <point x="410" y="445" type="line"/>
      <point x="379" y="494"/>
      <point x="335" y="530"/>
      <point x="269" y="530" type="curve" smooth="yes"/>
      <point x="151" y="530"/>
      <point x="75" y="419"/>
      <point x="75" y="258" type="curve" smooth="yes"/>
      <point x="75" y="90"/>
      <point x="152" y="-10"/>
    </contour>
    <contour>
      <point x="259" y="18" type="curve" smooth="yes"/>
      <point x="170" y="18"/>
      <point x="107" y="106"/>
      <point x="106" y="258" type="curve" smooth="yes"/>
      <point x="105" y="412"/>
      <point x="178" y="502"/>
      <point x="270" y="502" type="curve" smooth="yes"/>
      <point x="333" y="502"/>
      <point x="369" y="465"/>
      <point x="410" y="409" type="curve"/>
      <point x="410" y="131" type="line"/>
      <point x="374" y="59"/>
      <point x="329" y="18"/>
    </contour>
    <contour>
      <point x="587" y="18" type="curve" smooth="yes"/>
      <point x="527" y="18"/>
      <point x="476" y="59"/>
      <point x="440" y="131" type="curve"/>
      <point x="440" y="406" type="line"/>
      <point x="484" y="465"/>
      <point x="528" y="502"/>
      <point x="594" y="502" type="curve" smooth="yes"/>
      <point x="685" y="502"/>
      <point x="739" y="422"/>
      <point x="739" y="264" type="curve" smooth="yes"/>
      <point x="739" y="105"/>
      <point x="682" y="18"/>
    </contour>
    <contour>
      <point x="424" y="727" type="move" name="top"/>
    </contour>
    <contour>
      <point x="424" y="0" type="move" name="bottom"/>
    </contour>
  </outline>
</glyph>
<glyph name="uni0239" format="1">
  <advance width="840"/>
  <unicode hex="0239"/>
  <outline>
    <contour>
      <point x="592" y="530" type="curve" smooth="yes"/>
      <point x="524" y="530"/>
      <point x="472" y="493"/>
      <point x="435" y="440" type="curve"/>
      <point x="431" y="520" type="line"/>
      <point x="409" y="520" type="line"/>
      <point x="406" y="441" type="line"/>
      <point x="380" y="484"/>
      <point x="337" y="530"/>
      <point x="265" y="530" type="curve" smooth="yes"/>
      <point x="146" y="530"/>
      <point x="70" y="419"/>
      <point x="70" y="258" type="curve" smooth="yes"/>
      <point x="70" y="90"/>
      <point x="147" y="-10"/>
      <point x="254" y="-10" type="curve" smooth="yes"/>
      <point x="328" y="-10"/>
      <point x="376" y="34"/>
      <point x="405" y="82" type="curve"/>
      <point x="405" y="-199" type="line"/>
      <point x="435" y="-193" type="line"/>
      <point x="435" y="84" type="line"/>
      <point x="464" y="34"/>
      <point x="518" y="-10"/>
      <point x="583" y="-10" type="curve" smooth="yes"/>
      <point x="698" y="-10"/>
      <point x="765" y="94"/>
      <point x="765" y="264" type="curve" smooth="yes"/>
      <point x="765" y="436"/>
      <point x="699" y="530"/>
    </contour>
    <contour>
      <point x="255" y="18" type="curve" smooth="yes"/>
      <point x="165" y="18"/>
      <point x="102" y="106"/>
      <point x="101" y="258" type="curve" smooth="yes"/>
      <point x="100" y="412"/>
      <point x="173" y="502"/>
      <point x="266" y="502" type="curve" smooth="yes"/>
      <point x="330" y="502"/>
      <point x="375" y="453"/>
      <point x="405" y="405" type="curve"/>
      <point x="405" y="129" type="line"/>
      <point x="369" y="58"/>
      <point x="324" y="18"/>
    </contour>
    <contour>
      <point x="582" y="18" type="curve" smooth="yes"/>
      <point x="522" y="18"/>
      <point x="472" y="58"/>
      <point x="435" y="130" type="curve"/>
      <point x="435" y="406" type="line"/>
      <point x="479" y="464"/>
      <point x="522" y="502"/>
      <point x="592" y="502" type="curve" smooth="yes"/>
      <point x="680" y="502"/>
      <point x="734" y="422"/>
      <point x="734" y="264" type="curve" smooth="yes"/>
      <point x="734" y="105"/>
      <point x="677" y="18"/>
    </contour>
    <contour>
      <point x="421" y="517" type="move" name="top"/>
    </contour>
    <contour>
      <point x="421" y="-188" type="move" name="bottom"/>
    </contour>
  </outline>
</glyph>
<glyph name="uni023A" format="1">
  <advance width="558"/>
  <unicode hex="023A"/>
  <outline>
    <contour>
      <point x="195" y="-70" type="line"/>
      <point x="265" y="199" type="line"/>
      <point x="433" y="199" type="line"/>
      <point x="500" y="0" type="line"/>
      <point x="533" y="0" type="line"/>
      <point x="351" y="528" type="line"/>
      <point x="405" y="734" type="line"/>
      <point x="383" y="740" type="line"/>
      <point x="338" y="567" type="line"/>
      <point x="298" y="682" type="line"/>
      <point x="260" y="682" type="line"/>
      <point x="25" y="0" type="line"/>
      <point x="56" y="0" type="line"/>
      <point x="124" y="199" type="line"/>
      <point x="241" y="199" type="line"/>
      <point x="172" y="-64" type="line"/>
    </contour>
    <contour>
      <point x="279" y="657" type="line"/>
      <point x="325" y="520" type="line"/>
      <point x="249" y="228" type="line"/>
      <point x="133" y="228" type="line"/>
    </contour>
    <contour>
      <point x="339" y="480" type="line"/>
      <point x="423" y="228" type="line"/>
      <point x="273" y="228" type="line"/>
    </contour>
    <contour>
      <point x="278" y="680" type="move" name="top"/>
    </contour>
    <contour>
      <point x="278" y="0" type="move" name="bottom"/>
    </contour>
  </outline>
</glyph>
<glyph name="uni023B" format="1">
  <advance width="542"/>
  <unicode hex="023B"/>
  <outline>
    <contour>
      <point x="498" y="78" type="line"/>
      <point x="457" y="44"/>
      <point x="418" y="20"/>
      <point x="343" y="20" type="curve" smooth="yes"/>
      <point x="311" y="20"/>
      <point x="281" y="26"/>
      <point x="253" y="39" type="curve"/>
      <point x="414" y="654" type="line"/>
      <point x="441" y="646"/>
      <point x="465" y="632"/>
      <point x="492" y="611" type="curve"/>
      <point x="509" y="633" type="line"/>
      <point x="482" y="655"/>
      <point x="455" y="672"/>
      <point x="421" y="682" type="curve"/>
      <point x="435" y="734" type="line"/>
      <point x="413" y="740" type="line"/>
      <point x="399" y="687" type="line"/>
      <point x="383" y="690"/>
      <point x="365" y="692"/>
      <point x="345" y="692" type="curve" smooth="yes"/>
      <point x="196" y="692"/>
      <point x="75" y="577"/>
      <point x="75" y="341" type="curve" smooth="yes"/>
      <point x="75" y="177"/>
      <point x="134" y="68"/>
      <point x="224" y="19" type="curve"/>
      <point x="202" y="-64" type="line"/>
      <point x="225" y="-70" type="line"/>
      <point x="246" y="9" type="line"/>
      <point x="275" y="-4"/>
      <point x="308" y="-10"/>
      <point x="342" y="-10" type="curve" smooth="yes"/>
      <point x="420" y="-10"/>
      <point x="473" y="17"/>
      <point x="517" y="55" type="curve"/>
    </contour>
    <contour>
      <point x="107" y="341" type="curve" smooth="yes"/>
      <point x="107" y="568"/>
      <point x="215" y="663"/>
      <point x="347" y="663" type="curve" smooth="yes"/>
      <point x="364" y="663"/>
      <point x="378" y="662"/>
      <point x="392" y="659" type="curve"/>
      <point x="232" y="50" type="line"/>
      <point x="157" y="95"/>
      <point x="107" y="192"/>
    </contour>
    <contour>
      <point x="323" y="341" type="move" name="center"/>
    </contour>
    <contour>
      <point x="265" y="0" type="move" name="bottom"/>
    </contour>
    <contour>
      <point x="265" y="680" type="move" name="top"/>
    </contour>
  </outline>
</glyph>
<glyph name="uni023E" format="1">
  <advance width="477"/>
  <unicode hex="023E"/>
  <outline>
    <contour>
      <point x="223" y="238" type="line"/>
      <point x="223" y="0" type="line"/>
      <point x="254" y="0" type="line"/>
      <point x="254" y="346" type="line"/>
      <point x="342" y="652" type="line"/>
      <point x="462" y="652" type="line"/>
      <point x="467" y="682" type="line"/>
      <point x="350" y="682" type="line"/>
      <point x="365" y="734" type="line"/>
      <point x="343" y="740" type="line"/>
      <point x="326" y="682" type="line"/>
      <point x="15" y="682" type="line"/>
      <point x="15" y="652" type="line"/>
      <point x="223" y="652" type="line"/>
      <point x="223" y="322" type="line"/>
      <point x="112" y="-64" type="line"/>
      <point x="135" y="-70" type="line"/>
    </contour>
    <contour>
      <point x="254" y="652" type="line"/>
      <point x="318" y="652" type="line"/>
      <point x="254" y="430" type="line"/>
    </contour>
    <contour>
      <point x="236" y="680" type="move" name="top"/>
    </contour>
    <contour>
      <point x="236" y="0" type="move" name="bottom"/>
    </contour>
  </outline>
</glyph>
<glyph name="uni0243" format="1">
  <advance width="585"/>
  <unicode hex="0243"/>
  <outline>
    <contour>
      <point x="300" y="0" type="line" smooth="yes"/>
      <point x="443" y="0"/>
      <point x="525" y="67"/>
      <point x="525" y="185" type="curve" smooth="yes"/>
      <point x="525" y="304"/>
      <point x="453" y="357"/>
      <point x="368" y="362" type="curve"/>
      <point x="443" y="375"/>
      <point x="491" y="422"/>
      <point x="491" y="513" type="curve" smooth="yes"/>
      <point x="491" y="626"/>
      <point x="406" y="682"/>
      <point x="260" y="682" type="curve" smooth="yes"/>
      <point x="116" y="682" type="line"/>
      <point x="116" y="208" type="line"/>
      <point x="25" y="208" type="line"/>
      <point x="25" y="180" type="line"/>
      <point x="116" y="180" type="line"/>
      <point x="116" y="0" type="line"/>
    </contour>
    <contour>
      <point x="147" y="180" type="line"/>
      <point x="337" y="180" type="line"/>
      <point x="337" y="208" type="line"/>
      <point x="147" y="208" type="line"/>
      <point x="147" y="346" type="line"/>
      <point x="318" y="346" type="line" smooth="yes"/>
      <point x="420" y="346"/>
      <point x="493" y="295"/>
      <point x="493" y="185" type="curve" smooth="yes"/>
      <point x="493" y="81"/>
      <point x="421" y="29"/>
      <point x="301" y="29" type="curve" smooth="yes"/>
      <point x="147" y="29" type="line"/>
    </contour>
    <contour>
      <point x="147" y="653" type="line"/>
      <point x="264" y="653" type="line" smooth="yes"/>
      <point x="389" y="653"/>
      <point x="459" y="609"/>
      <point x="459" y="512" type="curve" smooth="yes"/>
      <point x="459" y="426"/>
      <point x="401" y="374"/>
      <point x="313" y="374" type="curve" smooth="yes"/>
      <point x="147" y="374" type="line"/>
    </contour>
    <contour>
      <point x="275" y="680" type="move" name="top"/>
    </contour>
    <contour>
      <point x="304" y="0" type="move" name="bottom"/>
    </contour>
  </outline>
</glyph>
<glyph name="uni0244" format="1">
  <advance width="652"/>
  <unicode hex="0244"/>
  <outline>
    <contour>
      <point x="327" y="-10" type="curve" smooth="yes"/>
      <point x="474" y="-10"/>
      <point x="538" y="81"/>
      <point x="538" y="208" type="curve" smooth="yes"/>
      <point x="538" y="518" type="line"/>
      <point x="600" y="518" type="line"/>
      <point x="600" y="542" type="line"/>
      <point x="538" y="542" type="line"/>
      <point x="538" y="682" type="line"/>
      <point x="507" y="682" type="line"/>
      <point x="507" y="542" type="line"/>
      <point x="146" y="542" type="line"/>
      <point x="146" y="682" type="line"/>
      <point x="115" y="682" type="line"/>
      <point x="115" y="542" type="line"/>
      <point x="52" y="542" type="line"/>
      <point x="52" y="518" type="line"/>
      <point x="115" y="518" type="line"/>
      <point x="115" y="208" type="line" smooth="yes"/>
      <point x="115" y="81"/>
      <point x="179" y="-10"/>
    </contour>
    <contour>
      <point x="327" y="19" type="curve" smooth="yes"/>
      <point x="199" y="19"/>
      <point x="146" y="97"/>
      <point x="146" y="211" type="curve" smooth="yes"/>
      <point x="146" y="518" type="line"/>
      <point x="507" y="518" type="line"/>
      <point x="507" y="211" type="line" smooth="yes"/>
      <point x="507" y="100"/>
      <point x="456" y="19"/>
    </contour>
    <contour>
      <point x="415" y="0" type="move" name="ogonek"/>
    </contour>
    <contour>
      <point x="335" y="680" type="move" name="top"/>
    </contour>
    <contour>
      <point x="542" y="680" type="move" name="topright"/>
    </contour>
    <contour>
      <point x="335" y="0" type="move" name="bottom"/>
    </contour>
  </outline>
</glyph>
<glyph name="uni0247" format="1">
  <advance width="529"/>
  <unicode hex="0247"/>
  <outline>
    <contour>
      <point x="282" y="-10" type="curve" smooth="yes"/>
      <point x="349" y="-10"/>
      <point x="397" y="13"/>
      <point x="443" y="52" type="curve"/>
      <point x="426" y="74" type="line"/>
      <point x="381" y="38"/>
      <point x="343" y="18"/>
      <point x="282" y="18" type="curve" smooth="yes"/>
      <point x="182" y="18"/>
      <point x="108" y="87"/>
      <point x="101" y="244" type="curve"/>
      <point x="462" y="244" type="line"/>
      <point x="463" y="253"/>
      <point x="464" y="268"/>
      <point x="464" y="283" type="curve" smooth="yes"/>
      <point x="464" y="431"/>
      <point x="401" y="530"/>
      <point x="271" y="530" type="curve" smooth="yes"/>
      <point x="150" y="530"/>
      <point x="70" y="426"/>
      <point x="70" y="256" type="curve" smooth="yes"/>
      <point x="70" y="88"/>
      <point x="153" y="-10"/>
    </contour>
    <contour>
      <point x="101" y="270" type="line"/>
      <point x="105" y="432"/>
      <point x="183" y="502"/>
      <point x="273" y="502" type="curve" smooth="yes"/>
      <point x="384" y="502"/>
      <point x="434" y="416"/>
      <point x="434" y="294" type="curve" smooth="yes"/>
      <point x="434" y="286"/>
      <point x="434" y="278"/>
      <point x="434" y="270" type="curve"/>
    </contour>
    <contour>
      <point x="367" y="583" type="line"/>
      <point x="346" y="589" type="line"/>
      <point x="166" y="-64" type="line"/>
      <point x="188" y="-70" type="line"/>
    </contour>
    <contour>
      <point x="264" y="517" type="move" name="top"/>
    </contour>
    <contour>
      <point x="264" y="0" type="move" name="bottom"/>
    </contour>
  </outline>
</glyph>
<glyph name="uni024A" format="1">
  <advance width="652"/>
  <unicode hex="024A"/>
  <outline>
    <contour>
      <point x="681" y="-147" type="line"/>
      <point x="662" y="-160"/>
      <point x="640" y="-171"/>
      <point x="605" y="-171" type="curve" smooth="yes"/>
      <point x="566" y="-171"/>
      <point x="532" y="-149"/>
      <point x="532" y="-80" type="curve" smooth="yes"/>
      <point x="532" y="682" type="line"/>
      <point x="505" y="682" type="line"/>
      <point x="502" y="616" type="line"/>
      <point x="457" y="669"/>
      <point x="396" y="692"/>
      <point x="325" y="692" type="curve" smooth="yes"/>
      <point x="186" y="692"/>
      <point x="75" y="565"/>
      <point x="75" y="329" type="curve" smooth="yes"/>
      <point x="75" y="107"/>
      <point x="185" y="-10"/>
      <point x="325" y="-10" type="curve" smooth="yes"/>
      <point x="396" y="-10"/>
      <point x="456" y="14"/>
      <point x="501" y="65" type="curve"/>
      <point x="501" y="-82" type="line" smooth="yes"/>
      <point x="501" y="-161"/>
      <point x="545" y="-199"/>
      <point x="605" y="-199" type="curve" smooth="yes"/>
      <point x="646" y="-199"/>
      <point x="676" y="-183"/>
      <point x="696" y="-168" type="curve"/>
    </contour>
    <contour>
      <point x="325" y="19" type="curve" smooth="yes"/>
      <point x="205" y="19"/>
      <point x="107" y="122"/>
      <point x="107" y="329" type="curve" smooth="yes"/>
      <point x="107" y="554"/>
      <point x="204" y="663"/>
      <point x="325" y="663" type="curve" smooth="yes"/>
      <point x="398" y="663"/>
      <point x="459" y="635"/>
      <point x="501" y="578" type="curve"/>
      <point x="501" y="103" type="line"/>
      <point x="460" y="48"/>
      <point x="400" y="19"/>
    </contour>
    <contour>
      <point x="320" y="680" type="move" name="top"/>
    </contour>
    <contour>
      <point x="320" y="-188" type="move" name="bottom"/>
    </contour>
  </outline>
</glyph>
<glyph name="uni024C" format="1">
  <advance width="573"/>
  <unicode hex="024C"/>
  <outline>
    <contour>
      <point x="147" y="0" type="line"/>
      <point x="147" y="320" type="line"/>
      <point x="309" y="320" type="line"/>
      <point x="494" y="0" type="line"/>
      <point x="533" y="0" type="line"/>
      <point x="343" y="326" type="line"/>
      <point x="436" y="346"/>
      <point x="498" y="396"/>
      <point x="498" y="503" type="curve" smooth="yes"/>
      <point x="498" y="618"/>
      <point x="429" y="682"/>
      <point x="270" y="682" type="curve" smooth="yes"/>
      <point x="116" y="682" type="line"/>
      <point x="116" y="349" type="line"/>
      <point x="25" y="349" type="line"/>
      <point x="25" y="320" type="line"/>
      <point x="116" y="320" type="line"/>
      <point x="116" y="0" type="line"/>
    </contour>
    <contour>
      <point x="147" y="653" type="line"/>
      <point x="266" y="653" type="line" smooth="yes"/>
      <point x="413" y="653"/>
      <point x="466" y="599"/>
      <point x="466" y="503" type="curve" smooth="yes"/>
      <point x="466" y="397"/>
      <point x="396" y="349"/>
      <point x="276" y="349" type="curve" smooth="yes"/>
      <point x="147" y="349" type="line"/>
    </contour>
    <contour>
      <point x="275" y="680" type="move" name="top"/>
    </contour>
    <contour>
      <point x="295" y="0" type="move" name="bottom"/>
    </contour>
  </outline>
</glyph>
<glyph name="uni0251" format="1">
  <advance width="573"/>
  <unicode hex="0251"/>
  <outline>
    <contour>
      <point x="269" y="-10" type="curve" smooth="yes"/>
      <point x="351" y="-10"/>
      <point x="398" y="36"/>
      <point x="426" y="87" type="curve"/>
      <point x="430" y="36"/>
      <point x="449" y="11"/>
      <point x="494" y="-5" type="curve"/>
      <point x="503" y="21" type="line"/>
      <point x="469" y="34"/>
      <point x="455" y="52"/>
      <point x="455" y="108" type="curve" smooth="yes"/>
      <point x="455" y="520" type="line"/>
      <point x="429" y="520" type="line"/>
      <point x="426" y="452" type="line"/>
      <point x="399" y="489"/>
      <point x="355" y="530"/>
      <point x="276" y="530" type="curve" smooth="yes"/>
      <point x="151" y="530"/>
      <point x="70" y="419"/>
      <point x="70" y="258" type="curve" smooth="yes"/>
      <point x="70" y="90"/>
      <point x="147" y="-10"/>
    </contour>
    <contour>
      <point x="269" y="18" type="curve" smooth="yes"/>
      <point x="165" y="18"/>
      <point x="102" y="106"/>
      <point x="101" y="258" type="curve" smooth="yes"/>
      <point x="100" y="412"/>
      <point x="175" y="502"/>
      <point x="277" y="502" type="curve" smooth="yes"/>
      <point x="349" y="502"/>
      <point x="395" y="461"/>
      <point x="425" y="414" type="curve"/>
      <point x="425" y="131" type="line"/>
      <point x="389" y="59"/>
      <point x="344" y="18"/>
    </contour>
    <contour>
      <point x="286" y="517" type="move" name="top"/>
    </contour>
    <contour>
      <point x="286" y="0" type="move" name="bottom"/>
    </contour>
  </outline>
</glyph>
<glyph name="uni0253" format="1">
  <advance width="570"/>
  <unicode hex="0253"/>
  <outline>
    <contour>
      <point x="303" y="-10" type="curve" smooth="yes"/>
      <point x="428" y="-10"/>
      <point x="495" y="94"/>
      <point x="495" y="264" type="curve" smooth="yes"/>
      <point x="495" y="436"/>
      <point x="429" y="530"/>
      <point x="309" y="530" type="curve" smooth="yes"/>
      <point x="237" y="530"/>
      <point x="183" y="493"/>
      <point x="145" y="442" type="curve"/>
      <point x="145" y="613" type="line" smooth="yes"/>
      <point x="145" y="683"/>
      <point x="185" y="710"/>
      <point x="246" y="710" type="curve" smooth="yes"/>
      <point x="283" y="710"/>
      <point x="316" y="701"/>
      <point x="350" y="685" type="curve"/>
      <point x="362" y="709" type="line"/>
      <point x="327" y="727"/>
      <point x="285" y="738"/>
      <point x="244" y="738" type="curve" smooth="yes"/>
      <point x="167" y="738"/>
      <point x="115" y="695"/>
      <point x="115" y="617" type="curve" smooth="yes"/>
      <point x="115" y="0" type="line"/>
      <point x="141" y="0" type="line"/>
      <point x="144" y="73" type="line"/>
      <point x="176" y="29"/>
      <point x="230" y="-10"/>
    </contour>
    <contour>
      <point x="302" y="18" type="curve" smooth="yes"/>
      <point x="233" y="18"/>
      <point x="182" y="56"/>
      <point x="145" y="110" type="curve"/>
      <point x="145" y="406" type="line"/>
      <point x="189" y="464"/>
      <point x="233" y="502"/>
      <point x="309" y="502" type="curve" smooth="yes"/>
      <point x="410" y="502"/>
      <point x="464" y="422"/>
      <point x="464" y="264" type="curve" smooth="yes"/>
      <point x="464" y="105"/>
      <point x="407" y="18"/>
    </contour>
    <contour>
      <point x="284" y="727" type="move" name="top"/>
    </contour>
    <contour>
      <point x="284" y="0" type="move" name="bottom"/>
    </contour>
  </outline>
</glyph>
<glyph name="uni0256" format="1">
  <advance width="575"/>
  <unicode hex="0256"/>
  <outline>
    <contour>
      <point x="534" y="-199" type="curve" smooth="yes"/>
      <point x="575" y="-199"/>
      <point x="605" y="-183"/>
      <point x="625" y="-168" type="curve"/>
      <point x="610" y="-148" type="line"/>
      <point x="591" y="-161"/>
      <point x="569" y="-172"/>
      <point x="534" y="-172" type="curve" smooth="yes"/>
      <point x="494" y="-172"/>
      <point x="460" y="-150"/>
      <point x="460" y="-81" type="curve" smooth="yes"/>
      <point x="460" y="734" type="line"/>
      <point x="430" y="738" type="line"/>
      <point x="430" y="454" type="line"/>
      <point x="403" y="490"/>
      <point x="359" y="530"/>
      <point x="279" y="530" type="curve" smooth="yes"/>
      <point x="151" y="530"/>
      <point x="75" y="419"/>
      <point x="75" y="258" type="curve" smooth="yes"/>
      <point x="75" y="90"/>
      <point x="152" y="-10"/>
      <point x="268" y="-10" type="curve" smooth="yes"/>
      <point x="354" y="-10"/>
      <point x="402" y="36"/>
      <point x="430" y="85" type="curve"/>
      <point x="430" y="-82" type="line" smooth="yes"/>
      <point x="430" y="-161"/>
      <point x="474" y="-199"/>
    </contour>
    <contour>
      <point x="269" y="18" type="curve" smooth="yes"/>
      <point x="170" y="18"/>
      <point x="107" y="106"/>
      <point x="106" y="258" type="curve" smooth="yes"/>
      <point x="105" y="412"/>
      <point x="178" y="502"/>
      <point x="280" y="502" type="curve" smooth="yes"/>
      <point x="354" y="502"/>
      <point x="400" y="461"/>
      <point x="430" y="414" type="curve"/>
      <point x="430" y="131" type="line"/>
      <point x="394" y="59"/>
      <point x="348" y="18"/>
    </contour>
    <contour>
      <point x="445" y="727" type="move" name="top"/>
    </contour>
    <contour>
      <point x="286" y="-188" type="move" name="bottom"/>
    </contour>
  </outline>
</glyph>
<glyph name="uni0257" format="1">
  <advance width="575"/>
  <unicode hex="0257"/>
  <outline>
    <contour>
      <point x="268" y="-10" type="curve" smooth="yes"/>
      <point x="354" y="-10"/>
      <point x="403" y="36"/>
      <point x="430" y="86" type="curve"/>
      <point x="434" y="0" type="line"/>
      <point x="460" y="0" type="line"/>
      <point x="460" y="620" type="line" smooth="yes"/>
      <point x="460" y="689"/>
      <point x="493" y="711"/>
      <point x="533" y="711" type="curve" smooth="yes"/>
      <point x="568" y="711"/>
      <point x="590" y="700"/>
      <point x="610" y="687" type="curve"/>
      <point x="625" y="707" type="line"/>
      <point x="605" y="722"/>
      <point x="576" y="738"/>
      <point x="533" y="738" type="curve" smooth="yes"/>
      <point x="472" y="738"/>
      <point x="430" y="700"/>
      <point x="430" y="621" type="curve" smooth="yes"/>
      <point x="430" y="454" type="line"/>
      <point x="403" y="490"/>
      <point x="359" y="530"/>
      <point x="279" y="530" type="curve" smooth="yes"/>
      <point x="151" y="530"/>
      <point x="75" y="419"/>
      <point x="75" y="258" type="curve" smooth="yes"/>
      <point x="75" y="90"/>
      <point x="152" y="-10"/>
    </contour>
    <contour>
      <point x="269" y="18" type="curve" smooth="yes"/>
      <point x="170" y="18"/>
      <point x="107" y="106"/>
      <point x="106" y="258" type="curve" smooth="yes"/>
      <point x="105" y="412"/>
      <point x="178" y="502"/>
      <point x="280" y="502" type="curve" smooth="yes"/>
      <point x="354" y="502"/>
      <point x="400" y="461"/>
      <point x="430" y="414" type="curve"/>
      <point x="430" y="131" type="line"/>
      <point x="394" y="59"/>
      <point x="348" y="18"/>
    </contour>
    <contour>
      <point x="286" y="727" type="move" name="top"/>
    </contour>
    <contour>
      <point x="286" y="0" type="move" name="bottom"/>
    </contour>
  </outline>
</glyph>
<glyph name="uni025F" format="1">
  <advance width="289"/>
  <unicode hex="025F"/>
  <outline>
    <contour>
      <point x="45" y="-196" type="line"/>
      <point x="125" y="-156"/>
      <point x="163" y="-124"/>
      <point x="163" y="8" type="curve" smooth="yes"/>
      <point x="163" y="229" type="line"/>
      <point x="269" y="229" type="line"/>
      <point x="269" y="257" type="line"/>
      <point x="163" y="257" type="line"/>
      <point x="163" y="520" type="line"/>
      <point x="133" y="520" type="line"/>
      <point x="133" y="257" type="line"/>
      <point x="20" y="257" type="line"/>
      <point x="20" y="229" type="line"/>
      <point x="133" y="229" type="line"/>
      <point x="133" y="9" type="line" smooth="yes"/>
      <point x="133" y="-108"/>
      <point x="105" y="-138"/>
      <point x="36" y="-174" type="curve"/>
    </contour>
    <contour>
      <point x="144" y="517" type="move" name="top"/>
    </contour>
    <contour>
      <point x="144" y="-188" type="move" name="bottom"/>
    </contour>
  </outline>
</glyph>
<glyph name="uni0260" format="1">
  <advance width="575"/>
  <unicode hex="0260"/>
  <outline>
    <contour>
      <point x="278" y="-199" type="curve" smooth="yes"/>
      <point x="414" y="-199"/>
      <point x="460" y="-126"/>
      <point x="460" y="-7" type="curve" smooth="yes"/>
      <point x="460" y="620" type="line" smooth="yes"/>
      <point x="460" y="689"/>
      <point x="493" y="711"/>
      <point x="533" y="711" type="curve" smooth="yes"/>
      <point x="568" y="711"/>
      <point x="590" y="700"/>
      <point x="610" y="687" type="curve"/>
      <point x="625" y="707" type="line"/>
      <point x="605" y="722"/>
      <point x="576" y="738"/>
      <point x="533" y="738" type="curve" smooth="yes"/>
      <point x="472" y="738"/>
      <point x="430" y="700"/>
      <point x="430" y="621" type="curve" smooth="yes"/>
      <point x="430" y="454" type="line"/>
      <point x="403" y="490"/>
      <point x="359" y="530"/>
      <point x="279" y="530" type="curve" smooth="yes"/>
      <point x="151" y="530"/>
      <point x="75" y="419"/>
      <point x="75" y="268" type="curve" smooth="yes"/>
      <point x="75" y="110"/>
      <point x="152" y="10"/>
      <point x="268" y="10" type="curve" smooth="yes"/>
      <point x="354" y="10"/>
      <point x="402" y="56"/>
      <point x="430" y="105" type="curve"/>
      <point x="430" y="-6" type="line" smooth="yes"/>
      <point x="430" y="-115"/>
      <point x="394" y="-172"/>
      <point x="278" y="-172" type="curve" smooth="yes"/>
      <point x="218" y="-172"/>
      <point x="181" y="-157"/>
      <point x="153" y="-143" type="curve"/>
      <point x="140" y="-165" type="line"/>
      <point x="167" y="-180"/>
      <point x="210" y="-199"/>
    </contour>
    <contour>
      <point x="269" y="38" type="curve" smooth="yes"/>
      <point x="170" y="38"/>
      <point x="107" y="126"/>
      <point x="106" y="268" type="curve" smooth="yes"/>
      <point x="105" y="412"/>
      <point x="178" y="502"/>
      <point x="280" y="502" type="curve" smooth="yes"/>
      <point x="354" y="502"/>
      <point x="400" y="461"/>
      <point x="430" y="414" type="curve"/>
      <point x="430" y="151" type="line"/>
      <point x="394" y="79"/>
      <point x="348" y="38"/>
    </contour>
    <contour>
      <point x="272" y="727" type="move" name="top"/>
    </contour>
    <contour>
      <point x="286" y="-188" type="move" name="bottom"/>
    </contour>
  </outline>
</glyph>
<glyph name="uni0266" format="1">
  <advance width="582"/>
  <unicode hex="0266"/>
  <outline>
    <contour>
      <point x="145" y="0" type="line"/>
      <point x="145" y="383" type="line"/>
      <point x="194" y="453"/>
      <point x="249" y="503"/>
      <point x="331" y="503" type="curve" smooth="yes"/>
      <point x="405" y="503"/>
      <point x="442" y="457"/>
      <point x="442" y="366" type="curve" smooth="yes"/>
      <point x="442" y="0" type="line"/>
      <point x="472" y="0" type="line"/>
      <point x="472" y="370" type="line" smooth="yes"/>
      <point x="472" y="470"/>
      <point x="425" y="530"/>
      <point x="332" y="530" type="curve" smooth="yes"/>
      <point x="251" y="530"/>
      <point x="192" y="486"/>
      <point x="145" y="421" type="curve"/>
      <point x="145" y="613" type="line" smooth="yes"/>
      <point x="145" y="683"/>
      <point x="185" y="710"/>
      <point x="246" y="710" type="curve" smooth="yes"/>
      <point x="283" y="710"/>
      <point x="316" y="701"/>
      <point x="350" y="685" type="curve"/>
      <point x="362" y="709" type="line"/>
      <point x="327" y="727"/>
      <point x="285" y="738"/>
      <point x="244" y="738" type="curve" smooth="yes"/>
      <point x="167" y="738"/>
      <point x="115" y="695"/>
      <point x="115" y="617" type="curve" smooth="yes"/>
      <point x="115" y="0" type="line"/>
    </contour>
    <contour>
      <point x="290" y="727" type="move" name="top"/>
    </contour>
    <contour>
      <point x="290" y="0" type="move" name="bottom"/>
    </contour>
  </outline>
</glyph>
<glyph name="uni026C" format="1">
  <advance width="299"/>
  <unicode hex="026C"/>
  <outline>
    <contour>
      <point x="220" y="-10" type="curve" smooth="yes"/>
      <point x="238" y="-10"/>
      <point x="256" y="-5"/>
      <point x="269" y="1" type="curve"/>
      <point x="260" y="26" type="line"/>
      <point x="248" y="21"/>
      <point x="235" y="18"/>
      <point x="221" y="18" type="curve" smooth="yes"/>
      <point x="189" y="18"/>
      <point x="172" y="37"/>
      <point x="172" y="76" type="curve" smooth="yes"/>
      <point x="172" y="277" type="line"/>
      <point x="204" y="278"/>
      <point x="231" y="281"/>
      <point x="262" y="287" type="curve"/>
      <point x="259" y="312" type="line"/>
      <point x="230" y="307"/>
      <point x="205" y="304"/>
      <point x="172" y="303" type="curve"/>
      <point x="172" y="738" type="line"/>
      <point x="142" y="734" type="line"/>
      <point x="142" y="446" type="line"/>
      <point x="134" y="447"/>
      <point x="126" y="448"/>
      <point x="114" y="448" type="curve" smooth="yes"/>
      <point x="61" y="448"/>
      <point x="20" y="416"/>
      <point x="20" y="364" type="curve" smooth="yes"/>
      <point x="20" y="305"/>
      <point x="64" y="276"/>
      <point x="142" y="276" type="curve"/>
      <point x="142" y="75" type="line" smooth="yes"/>
      <point x="142" y="15"/>
      <point x="175" y="-10"/>
    </contour>
    <contour>
      <point x="142" y="303" type="line"/>
      <point x="85" y="303"/>
      <point x="50" y="320"/>
      <point x="50" y="365" type="curve" smooth="yes"/>
      <point x="50" y="403"/>
      <point x="77" y="421"/>
      <point x="114" y="421" type="curve" smooth="yes"/>
      <point x="126" y="421"/>
      <point x="134" y="420"/>
      <point x="142" y="419" type="curve"/>
    </contour>
    <contour>
      <point x="195" y="0" type="move" name="bottom"/>
    </contour>
    <contour>
      <point x="142" y="730" type="move" name="top"/>
    </contour>
    <contour>
      <point x="203" y="727" type="move" name="topright"/>
    </contour>
    <contour>
      <point x="277" y="375" type="move" name="center"/>
    </contour>
  </outline>
</glyph>
<glyph name="uni026D" format="1">
  <advance width="260"/>
  <unicode hex="026D"/>
  <outline>
    <contour>
      <point x="219" y="-199" type="curve" smooth="yes"/>
      <point x="260" y="-199"/>
      <point x="290" y="-183"/>
      <point x="310" y="-168" type="curve"/>
      <point x="295" y="-148" type="line"/>
      <point x="276" y="-161"/>
      <point x="254" y="-172"/>
      <point x="219" y="-172" type="curve" smooth="yes"/>
      <point x="179" y="-172"/>
      <point x="145" y="-150"/>
      <point x="145" y="-81" type="curve" smooth="yes"/>
      <point x="145" y="738" type="line"/>
      <point x="115" y="734" type="line"/>
      <point x="115" y="-82" type="line" smooth="yes"/>
      <point x="115" y="-161"/>
      <point x="159" y="-199"/>
    </contour>
    <contour>
      <point x="126" y="727" type="move" name="top"/>
    </contour>
    <contour>
      <point x="209" y="-188" type="move" name="bottom"/>
    </contour>
  </outline>
</glyph>
<glyph name="uni026E" format="1">
  <advance width="602"/>
  <unicode hex="026E"/>
  <outline>
    <contour>
      <point x="362" y="-199" type="curve" smooth="yes"/>
      <point x="491" y="-199"/>
      <point x="567" y="-116"/>
      <point x="567" y="1" type="curve" smooth="yes"/>
      <point x="567" y="125"/>
      <point x="500" y="195"/>
      <point x="333" y="195" type="curve" smooth="yes"/>
      <point x="319" y="195" type="line"/>
      <point x="542" y="495" type="line"/>
      <point x="542" y="520" type="line"/>
      <point x="140" y="520" type="line"/>
      <point x="140" y="738" type="line"/>
      <point x="110" y="734" type="line"/>
      <point x="110" y="75" type="line" smooth="yes"/>
      <point x="110" y="15"/>
      <point x="143" y="-10"/>
      <point x="188" y="-10" type="curve" smooth="yes"/>
      <point x="206" y="-10"/>
      <point x="224" y="-5"/>
      <point x="237" y="1" type="curve"/>
      <point x="228" y="26" type="line"/>
      <point x="216" y="21"/>
      <point x="203" y="18"/>
      <point x="189" y="18" type="curve" smooth="yes"/>
      <point x="157" y="18"/>
      <point x="140" y="37"/>
      <point x="140" y="76" type="curve" smooth="yes"/>
      <point x="140" y="492" type="line"/>
      <point x="505" y="492" type="line"/>
      <point x="285" y="195" type="line"/>
      <point x="285" y="167" type="line"/>
      <point x="336" y="167" type="line" smooth="yes"/>
      <point x="472" y="167"/>
      <point x="537" y="119"/>
      <point x="537" y="1" type="curve" smooth="yes"/>
      <point x="537" y="-101"/>
      <point x="477" y="-171"/>
      <point x="361" y="-171" type="curve" smooth="yes"/>
      <point x="302" y="-171"/>
      <point x="254" y="-154"/>
      <point x="207" y="-111" type="curve"/>
      <point x="189" y="-130" type="line"/>
      <point x="237" y="-174"/>
      <point x="289" y="-199"/>
    </contour>
    <contour>
      <point x="354" y="-188" type="move" name="bottom"/>
    </contour>
    <contour>
      <point x="303" y="727" type="move" name="top"/>
    </contour>
    <contour>
      <point x="182" y="727" type="move" name="topright"/>
    </contour>
    <contour>
      <point x="256" y="375" type="move" name="center"/>
    </contour>
  </outline>
</glyph>
<glyph name="uni0270" format="1">
  <advance width="849"/>
  <unicode hex="0270"/>
  <outline>
    <contour>
      <point x="704" y="137" type="line"/>
      <point x="661" y="67"/>
      <point x="606" y="17"/>
      <point x="538" y="17" type="curve" smooth="yes"/>
      <point x="472" y="17"/>
      <point x="437" y="63"/>
      <point x="437" y="154" type="curve" smooth="yes"/>
      <point x="437" y="520" type="line"/>
      <point x="407" y="520" type="line"/>
      <point x="407" y="137" type="line"/>
      <point x="364" y="67"/>
      <point x="309" y="17"/>
      <point x="241" y="17" type="curve" smooth="yes"/>
      <point x="176" y="17"/>
      <point x="140" y="63"/>
      <point x="140" y="154" type="curve" smooth="yes"/>
      <point x="140" y="520" type="line"/>
      <point x="110" y="520" type="line"/>
      <point x="110" y="150" type="line" smooth="yes"/>
      <point x="110" y="50"/>
      <point x="157" y="-10"/>
      <point x="240" y="-10" type="curve" smooth="yes"/>
      <point x="308" y="-10"/>
      <point x="369" y="36"/>
      <point x="411" y="102" type="curve"/>
      <point x="424" y="31"/>
      <point x="468" y="-10"/>
      <point x="537" y="-10" type="curve" smooth="yes"/>
      <point x="603" y="-10"/>
      <point x="662" y="33"/>
      <point x="704" y="97" type="curve"/>
      <point x="704" y="-193" type="line"/>
      <point x="734" y="-199" type="line"/>
      <point x="734" y="520" type="line"/>
      <point x="704" y="520" type="line"/>
    </contour>
    <contour>
      <point x="419" y="517" type="move" name="top"/>
    </contour>
    <contour>
      <point x="424" y="-188" type="move" name="bottom"/>
    </contour>
  </outline>
</glyph>
<glyph name="uni0276" format="1">
  <advance width="713"/>
  <unicode hex="0276"/>
  <outline>
    <contour>
      <point x="280" y="-10" type="curve" smooth="yes"/>
      <point x="301" y="-10"/>
      <point x="322" y="-6"/>
      <point x="342" y="0" type="curve"/>
      <point x="663" y="0" type="line"/>
      <point x="663" y="28" type="line"/>
      <point x="393" y="28" type="line"/>
      <point x="448" y="63"/>
      <point x="491" y="137"/>
      <point x="492" y="261" type="curve"/>
      <point x="620" y="261" type="line"/>
      <point x="620" y="288" type="line"/>
      <point x="491" y="288" type="line"/>
      <point x="487" y="389"/>
      <point x="448" y="460"/>
      <point x="397" y="492" type="curve"/>
      <point x="654" y="492" type="line"/>
      <point x="658" y="520" type="line"/>
      <point x="345" y="520" type="line"/>
      <point x="327" y="526"/>
      <point x="304" y="530"/>
      <point x="281" y="530" type="curve" smooth="yes"/>
      <point x="154" y="530"/>
      <point x="70" y="431"/>
      <point x="70" y="259" type="curve" smooth="yes"/>
      <point x="70" y="91"/>
      <point x="150" y="-10"/>
    </contour>
    <contour>
      <point x="280" y="18" type="curve" smooth="yes"/>
      <point x="169" y="18"/>
      <point x="101" y="105"/>
      <point x="101" y="259" type="curve" smooth="yes"/>
      <point x="101" y="419"/>
      <point x="172" y="502"/>
      <point x="281" y="502" type="curve" smooth="yes"/>
      <point x="388" y="502"/>
      <point x="461" y="420"/>
      <point x="461" y="266" type="curve" smooth="yes"/>
      <point x="461" y="107"/>
      <point x="391" y="18"/>
    </contour>
    <contour>
      <point x="397" y="517" type="move" name="top"/>
    </contour>
    <contour>
      <point x="397" y="0" type="move" name="bottom"/>
    </contour>
  </outline>
</glyph>
<glyph name="uni027A" format="1">
  <advance width="363"/>
  <unicode hex="027A"/>
  <outline>
    <contour>
      <point x="218" y="187" type="line"/>
      <point x="186" y="74"/>
      <point x="145" y="17"/>
      <point x="67" y="17" type="curve" smooth="yes"/>
      <point x="50" y="17"/>
      <point x="34" y="19"/>
      <point x="21" y="23" type="curve"/>
      <point x="15" y="-4" type="line"/>
      <point x="26" y="-7"/>
      <point x="43" y="-10"/>
      <point x="67" y="-10" type="curve" smooth="yes"/>
      <point x="146" y="-10"/>
      <point x="193" y="35"/>
      <point x="221" y="125" type="curve"/>
      <point x="222" y="0" type="line"/>
      <point x="248" y="0" type="line"/>
      <point x="248" y="734" type="line"/>
      <point x="218" y="738" type="line"/>
    </contour>
    <contour>
      <point x="235" y="727" type="move" name="top"/>
    </contour>
    <contour>
      <point x="157" y="0" type="move" name="bottom"/>
    </contour>
  </outline>
</glyph>
<glyph name="uni027B" format="1">
  <advance width="363"/>
  <unicode hex="027B"/>
  <outline>
    <contour>
      <point x="398" y="-148" type="line"/>
      <point x="379" y="-161"/>
      <point x="357" y="-172"/>
      <point x="322" y="-172" type="curve" smooth="yes"/>
      <point x="282" y="-172"/>
      <point x="248" y="-150"/>
      <point x="248" y="-81" type="curve" smooth="yes"/>
      <point x="248" y="520" type="line"/>
      <point x="218" y="520" type="line"/>
      <point x="218" y="187" type="line"/>
      <point x="186" y="74"/>
      <point x="145" y="17"/>
      <point x="67" y="17" type="curve" smooth="yes"/>
      <point x="50" y="17"/>
      <point x="34" y="19"/>
      <point x="21" y="23" type="curve"/>
      <point x="15" y="-4" type="line"/>
      <point x="26" y="-7"/>
      <point x="43" y="-10"/>
      <point x="67" y="-10" type="curve" smooth="yes"/>
      <point x="143" y="-10"/>
      <point x="189" y="31"/>
      <point x="218" y="116" type="curve"/>
      <point x="218" y="-82" type="line" smooth="yes"/>
      <point x="218" y="-161"/>
      <point x="262" y="-199"/>
      <point x="322" y="-199" type="curve" smooth="yes"/>
      <point x="363" y="-199"/>
      <point x="393" y="-183"/>
      <point x="413" y="-168" type="curve"/>
    </contour>
    <contour>
      <point x="235" y="517" type="move" name="top"/>
    </contour>
    <contour>
      <point x="218" y="-188" type="move" name="bottom"/>
    </contour>
  </outline>
</glyph>
<glyph name="uni027C" format="1">
  <advance width="363"/>
  <unicode hex="027C"/>
  <outline>
    <contour>
      <point x="296" y="530" type="curve" smooth="yes"/>
      <point x="217" y="530"/>
      <point x="170" y="485"/>
      <point x="142" y="395" type="curve"/>
      <point x="141" y="520" type="line"/>
      <point x="115" y="520" type="line"/>
      <point x="115" y="-199" type="line"/>
      <point x="145" y="-193" type="line"/>
      <point x="145" y="333" type="line"/>
      <point x="177" y="446"/>
      <point x="218" y="503"/>
      <point x="296" y="503" type="curve" smooth="yes"/>
      <point x="313" y="503"/>
      <point x="329" y="501"/>
      <point x="342" y="497" type="curve"/>
      <point x="348" y="524" type="line"/>
      <point x="337" y="527"/>
      <point x="320" y="530"/>
    </contour>
    <contour>
      <point x="230" y="517" type="move" name="top"/>
    </contour>
    <contour>
      <point x="126" y="-188" type="move" name="bottom"/>
    </contour>
  </outline>
</glyph>
<glyph name="uni027E" format="1">
  <advance width="323"/>
  <unicode hex="027E"/>
  <outline>
    <contour>
      <point x="214" y="527" type="curve" smooth="yes"/>
      <point x="154" y="527"/>
      <point x="110" y="489"/>
      <point x="110" y="410" type="curve" smooth="yes"/>
      <point x="110" y="0" type="line"/>
      <point x="140" y="0" type="line"/>
      <point x="140" y="409" type="line" smooth="yes"/>
      <point x="140" y="478"/>
      <point x="174" y="500"/>
      <point x="214" y="500" type="curve" smooth="yes"/>
      <point x="249" y="500"/>
      <point x="271" y="489"/>
      <point x="290" y="476" type="curve"/>
      <point x="305" y="496" type="line"/>
      <point x="285" y="511"/>
      <point x="255" y="527"/>
    </contour>
    <contour>
      <point x="204" y="517" type="move" name="top"/>
    </contour>
    <contour>
      <point x="121" y="0" type="move" name="bottom"/>
    </contour>
  </outline>
</glyph>
<glyph name="uni0280" format="1">
  <advance width="507"/>
  <unicode hex="0280"/>
  <outline>
    <contour>
      <point x="145" y="0" type="line"/>
      <point x="145" y="228" type="line"/>
      <point x="271" y="228" type="line"/>
      <point x="421" y="0" type="line"/>
      <point x="457" y="0" type="line"/>
      <point x="303" y="232" type="line"/>
      <point x="382" y="249"/>
      <point x="436" y="292"/>
      <point x="436" y="373" type="curve" smooth="yes"/>
      <point x="436" y="467"/>
      <point x="374" y="520"/>
      <point x="237" y="520" type="curve" smooth="yes"/>
      <point x="115" y="520" type="line"/>
      <point x="115" y="0" type="line"/>
    </contour>
    <contour>
      <point x="145" y="492" type="line"/>
      <point x="234" y="492" type="line" smooth="yes"/>
      <point x="359" y="492"/>
      <point x="405" y="450"/>
      <point x="405" y="373" type="curve" smooth="yes"/>
      <point x="405" y="296"/>
      <point x="347" y="255"/>
      <point x="242" y="255" type="curve" smooth="yes"/>
      <point x="145" y="255" type="line"/>
    </contour>
    <contour>
      <point x="255" y="517" type="move" name="top"/>
    </contour>
    <contour>
      <point x="255" y="0" type="move" name="bottom"/>
    </contour>
  </outline>
</glyph>
<glyph name="uni0283" format="1">
  <advance width="266"/>
  <unicode hex="0283"/>
  <outline>
    <contour>
      <point x="44" y="-199" type="curve" smooth="yes"/>
      <point x="104" y="-199"/>
      <point x="148" y="-161"/>
      <point x="148" y="-82" type="curve" smooth="yes"/>
      <point x="148" y="620" type="line" smooth="yes"/>
      <point x="148" y="689"/>
      <point x="181" y="711"/>
      <point x="221" y="711" type="curve" smooth="yes"/>
      <point x="256" y="711"/>
      <point x="278" y="700"/>
      <point x="298" y="687" type="curve"/>
      <point x="313" y="707" type="line"/>
      <point x="293" y="722"/>
      <point x="264" y="738"/>
      <point x="221" y="738" type="curve" smooth="yes"/>
      <point x="160" y="738"/>
      <point x="118" y="700"/>
      <point x="118" y="621" type="curve" smooth="yes"/>
      <point x="118" y="-81" type="line" smooth="yes"/>
      <point x="118" y="-150"/>
      <point x="84" y="-172"/>
      <point x="44" y="-172" type="curve" smooth="yes"/>
      <point x="9" y="-172"/>
      <point x="-13" y="-161"/>
      <point x="-32" y="-148" type="curve"/>
      <point x="-47" y="-168" type="line"/>
      <point x="-27" y="-183"/>
      <point x="3" y="-199"/>
    </contour>
    <contour>
      <point x="218" y="727" type="move" name="top"/>
    </contour>
    <contour>
      <point x="45" y="-188" type="move" name="bottom"/>
    </contour>
  </outline>
</glyph>
<glyph name="uni0284" format="1">
  <advance width="289"/>
  <unicode hex="0284"/>
  <outline>
    <contour>
      <point x="45" y="-196" type="line"/>
      <point x="123" y="-157"/>
      <point x="161" y="-125"/>
      <point x="163" y="0" type="curve"/>
      <point x="273" y="0" type="line"/>
      <point x="273" y="25" type="line"/>
      <point x="163" y="25" type="line"/>
      <point x="163" y="620" type="line" smooth="yes"/>
      <point x="163" y="689"/>
      <point x="196" y="711"/>
      <point x="236" y="711" type="curve" smooth="yes"/>
      <point x="271" y="711"/>
      <point x="293" y="700"/>
      <point x="313" y="687" type="curve"/>
      <point x="328" y="707" type="line"/>
      <point x="308" y="722"/>
      <point x="279" y="738"/>
      <point x="236" y="738" type="curve" smooth="yes"/>
      <point x="175" y="738"/>
      <point x="133" y="700"/>
      <point x="133" y="621" type="curve" smooth="yes"/>
      <point x="133" y="25" type="line"/>
      <point x="24" y="25" type="line"/>
      <point x="24" y="0" type="line"/>
      <point x="133" y="0" type="line"/>
      <point x="132" y="-110"/>
      <point x="103" y="-139"/>
      <point x="36" y="-174" type="curve"/>
    </contour>
    <contour>
      <point x="218" y="727" type="move" name="top"/>
    </contour>
    <contour>
      <point x="144" y="-188" type="move" name="bottom"/>
    </contour>
  </outline>
</glyph>
<glyph name="uni0285" format="1">
  <advance width="370"/>
  <unicode hex="0285"/>
  <outline>
    <contour>
      <point x="274" y="-10" type="curve" smooth="yes"/>
      <point x="315" y="-10"/>
      <point x="345" y="6"/>
      <point x="365" y="21" type="curve"/>
      <point x="350" y="41" type="line"/>
      <point x="331" y="28"/>
      <point x="309" y="17"/>
      <point x="274" y="17" type="curve" smooth="yes"/>
      <point x="234" y="17"/>
      <point x="200" y="39"/>
      <point x="200" y="108" type="curve" smooth="yes"/>
      <point x="200" y="413" type="line" smooth="yes"/>
      <point x="200" y="492"/>
      <point x="158" y="530"/>
      <point x="97" y="530" type="curve" smooth="yes"/>
      <point x="54" y="530"/>
      <point x="25" y="514"/>
      <point x="5" y="499" type="curve"/>
      <point x="20" y="479" type="line"/>
      <point x="40" y="492"/>
      <point x="62" y="503"/>
      <point x="97" y="503" type="curve" smooth="yes"/>
      <point x="137" y="503"/>
      <point x="170" y="481"/>
      <point x="170" y="412" type="curve" smooth="yes"/>
      <point x="170" y="107" type="line" smooth="yes"/>
      <point x="170" y="28"/>
      <point x="214" y="-10"/>
    </contour>
    <contour>
      <point x="109" y="517" type="move" name="top"/>
    </contour>
    <contour>
      <point x="275" y="0" type="move" name="bottom"/>
    </contour>
  </outline>
</glyph>
<glyph name="uni0286" format="1">
  <advance width="275"/>
  <unicode hex="0286"/>
  <outline>
    <contour>
      <point x="25" y="-199" type="curve" smooth="yes"/>
      <point x="112" y="-199"/>
      <point x="154" y="-146"/>
      <point x="157" y="-51" type="curve"/>
      <point x="186" y="-59"/>
      <point x="222" y="-72"/>
      <point x="246" y="-83" type="curve"/>
      <point x="257" y="-61" type="line"/>
      <point x="224" y="-45"/>
      <point x="194" y="-34"/>
      <point x="157" y="-24" type="curve"/>
      <point x="157" y="620" type="line" smooth="yes"/>
      <point x="157" y="689"/>
      <point x="190" y="711"/>
      <point x="230" y="711" type="curve" smooth="yes"/>
      <point x="265" y="711"/>
      <point x="287" y="700"/>
      <point x="307" y="687" type="curve"/>
      <point x="322" y="707" type="line"/>
      <point x="302" y="722"/>
      <point x="273" y="738"/>
      <point x="230" y="738" type="curve" smooth="yes"/>
      <point x="169" y="738"/>
      <point x="127" y="700"/>
      <point x="127" y="621" type="curve" smooth="yes"/>
      <point x="127" y="-18" type="line"/>
      <point x="106" y="-14"/>
      <point x="82" y="-11"/>
      <point x="51" y="-11" type="curve" smooth="yes"/>
      <point x="-27" y="-11"/>
      <point x="-80" y="-50"/>
      <point x="-80" y="-110" type="curve" smooth="yes"/>
      <point x="-80" y="-160"/>
      <point x="-39" y="-199"/>
    </contour>
    <contour>
      <point x="25" y="-172" type="curve" smooth="yes"/>
      <point x="-23" y="-172"/>
      <point x="-50" y="-146"/>
      <point x="-50" y="-109" type="curve" smooth="yes"/>
      <point x="-50" y="-66"/>
      <point x="-17" y="-38"/>
      <point x="51" y="-38" type="curve" smooth="yes"/>
      <point x="81" y="-38"/>
      <point x="99" y="-40"/>
      <point x="127" y="-45" type="curve"/>
      <point x="124" y="-135"/>
      <point x="91" y="-172"/>
    </contour>
    <contour>
      <point x="218" y="727" type="move" name="top"/>
    </contour>
    <contour>
      <point x="45" y="-188" type="move" name="bottom"/>
    </contour>
  </outline>
</glyph>
<glyph name="uni0288" format="1">
  <advance width="325"/>
  <unicode hex="0288"/>
  <outline>
    <contour>
      <point x="140" y="0" type="line"/>
      <point x="140" y="653" type="line"/>
      <point x="110" y="650" type="line"/>
      <point x="110" y="0" type="line"/>
    </contour>
    <contour>
      <point x="278" y="493" type="line"/>
      <point x="283" y="520" type="line"/>
      <point x="25" y="520" type="line"/>
      <point x="25" y="493" type="line"/>
    </contour>
    <contour>
      <point x="214" y="-199" type="curve" smooth="yes"/>
      <point x="255" y="-199"/>
      <point x="285" y="-183"/>
      <point x="305" y="-168" type="curve"/>
      <point x="290" y="-148" type="line"/>
      <point x="271" y="-161"/>
      <point x="249" y="-172"/>
      <point x="214" y="-172" type="curve" smooth="yes"/>
      <point x="174" y="-172"/>
      <point x="140" y="-150"/>
      <point x="140" y="-81" type="curve" smooth="yes"/>
      <point x="140" y="1" type="line"/>
      <point x="110" y="1" type="line"/>
      <point x="110" y="-82" type="line" smooth="yes"/>
      <point x="110" y="-161"/>
      <point x="154" y="-199"/>
    </contour>
    <contour>
      <point x="118" y="651" type="move" name="top"/>
    </contour>
    <contour>
      <point x="201" y="-188" type="move" name="bottom"/>
    </contour>
  </outline>
</glyph>
<glyph name="uni0289" format="1">
  <advance width="599"/>
  <unicode hex="0289"/>
  <outline>
    <contour>
      <point x="118" y="357" type="line"/>
      <point x="559" y="357" type="line"/>
      <point x="559" y="382" type="line"/>
      <point x="471" y="382" type="line"/>
      <point x="30" y="382" type="line"/>
      <point x="30" y="357" type="line"/>
    </contour>
    <contour>
      <point x="440" y="520" type="line"/>
      <point x="440" y="138" type="line"/>
      <point x="400" y="68"/>
      <point x="348" y="18"/>
      <point x="270" y="18" type="curve" smooth="yes"/>
      <point x="192" y="18"/>
      <point x="148" y="59"/>
      <point x="148" y="151" type="curve" smooth="yes"/>
      <point x="148" y="520" type="line"/>
      <point x="118" y="520" type="line"/>
      <point x="118" y="149" type="line" smooth="yes"/>
      <point x="118" y="46"/>
      <point x="172" y="-10"/>
      <point x="266" y="-10" type="curve" smooth="yes"/>
      <point x="352" y="-10"/>
      <point x="410" y="41"/>
      <point x="443" y="102" type="curve"/>
      <point x="444" y="0" type="line"/>
      <point x="470" y="0" type="line"/>
      <point x="470" y="520" type="line"/>
    </contour>
    <contour>
      <point x="464" y="0" type="move" name="ogonek"/>
    </contour>
    <contour>
      <point x="297" y="517" type="move" name="top"/>
    </contour>
    <contour>
      <point x="464" y="517" type="move" name="topright"/>
    </contour>
    <contour>
      <point x="297" y="0" type="move" name="bottom"/>
    </contour>
  </outline>
</glyph>
<glyph name="uni0298" format="1">
  <advance width="790"/>
  <unicode hex="0298"/>
  <outline>
    <contour>
      <point x="395" y="-10" type="curve" smooth="yes"/>
      <point x="591" y="-10"/>
      <point x="715" y="122"/>
      <point x="715" y="340" type="curve" smooth="yes"/>
      <point x="715" y="567"/>
      <point x="586" y="692"/>
      <point x="395" y="692" type="curve" smooth="yes"/>
      <point x="206" y="692"/>
      <point x="75" y="561"/>
      <point x="75" y="339" type="curve" smooth="yes"/>
      <point x="75" y="118"/>
      <point x="205" y="-10"/>
    </contour>
    <contour>
      <point x="395" y="18" type="curve" smooth="yes"/>
      <point x="224" y="18"/>
      <point x="106" y="132"/>
      <point x="106" y="339" type="curve" smooth="yes"/>
      <point x="106" y="551"/>
      <point x="223" y="664"/>
      <point x="395" y="664" type="curve" smooth="yes"/>
      <point x="569" y="664"/>
      <point x="684" y="553"/>
      <point x="684" y="340" type="curve" smooth="yes"/>
      <point x="684" y="132"/>
      <point x="574" y="18"/>
    </contour>
    <contour>
      <point x="395" y="315" type="curve"/>
      <point x="412" y="315"/>
      <point x="421" y="327"/>
      <point x="421" y="340" type="curve" smooth="yes"/>
      <point x="421" y="353"/>
      <point x="412" y="365"/>
      <point x="395" y="365" type="curve" smooth="yes"/>
      <point x="379" y="365"/>
      <point x="369" y="353"/>
      <point x="369" y="340" type="curve" smooth="yes"/>
      <point x="369" y="327"/>
      <point x="379" y="315"/>
    </contour>
    <contour>
      <point x="394" y="680" type="move" name="top"/>
    </contour>
    <contour>
      <point x="394" y="0" type="move" name="bottom"/>
    </contour>
    <contour>
      <point x="393" y="153" type="move" name="_top"/>
    </contour>
  </outline>
</glyph>
<glyph name="uni02A0" format="1">
  <advance width="570"/>
  <unicode hex="02A0"/>
  <outline>
    <contour>
      <point x="528" y="738" type="curve" smooth="yes"/>
      <point x="467" y="738"/>
      <point x="425" y="700"/>
      <point x="425" y="621" type="curve" smooth="yes"/>
      <point x="425" y="454" type="line"/>
      <point x="398" y="491"/>
      <point x="354" y="530"/>
      <point x="275" y="530" type="curve" smooth="yes"/>
      <point x="146" y="530"/>
      <point x="70" y="419"/>
      <point x="70" y="258" type="curve" smooth="yes"/>
      <point x="70" y="90"/>
      <point x="147" y="-10"/>
      <point x="264" y="-10" type="curve" smooth="yes"/>
      <point x="349" y="-10"/>
      <point x="397" y="34"/>
      <point x="425" y="84" type="curve"/>
      <point x="425" y="-193" type="line"/>
      <point x="455" y="-199" type="line"/>
      <point x="455" y="620" type="line" smooth="yes"/>
      <point x="455" y="689"/>
      <point x="488" y="711"/>
      <point x="528" y="711" type="curve" smooth="yes"/>
      <point x="563" y="711"/>
      <point x="585" y="700"/>
      <point x="605" y="687" type="curve"/>
      <point x="620" y="707" type="line"/>
      <point x="600" y="722"/>
      <point x="571" y="738"/>
    </contour>
    <contour>
      <point x="265" y="18" type="curve" smooth="yes"/>
      <point x="165" y="18"/>
      <point x="102" y="106"/>
      <point x="101" y="258" type="curve" smooth="yes"/>
      <point x="100" y="412"/>
      <point x="173" y="502"/>
      <point x="276" y="502" type="curve" smooth="yes"/>
      <point x="349" y="502"/>
      <point x="395" y="462"/>
      <point x="425" y="416" type="curve"/>
      <point x="425" y="129" type="line"/>
      <point x="389" y="58"/>
      <point x="344" y="18"/>
    </contour>
    <contour>
      <point x="284" y="727" type="move" name="top"/>
    </contour>
    <contour>
      <point x="284" y="-188" type="move" name="bottom"/>
    </contour>
  </outline>
</glyph>
<glyph name="uni02A2" format="1">
  <advance width="427"/>
  <unicode hex="02A2"/>
  <outline>
    <contour>
      <point x="294" y="0" type="line"/>
      <point x="294" y="178" type="line"/>
      <point x="367" y="178" type="line"/>
      <point x="367" y="205" type="line"/>
      <point x="294" y="205" type="line"/>
      <point x="294" y="333" type="line"/>
      <point x="229" y="350" type="line" smooth="yes"/>
      <point x="155" y="369"/>
      <point x="72" y="405"/>
      <point x="72" y="529" type="curve" smooth="yes"/>
      <point x="72" y="637"/>
      <point x="138" y="709"/>
      <point x="248" y="709" type="curve" smooth="yes"/>
      <point x="314" y="709"/>
      <point x="362" y="681"/>
      <point x="407" y="641" type="curve"/>
      <point x="427" y="660" type="line"/>
      <point x="374" y="709"/>
      <point x="322" y="738"/>
      <point x="247" y="738" type="curve" smooth="yes"/>
      <point x="120" y="738"/>
      <point x="40" y="651"/>
      <point x="40" y="529" type="curve" smooth="yes"/>
      <point x="40" y="385"/>
      <point x="139" y="343"/>
      <point x="227" y="321" type="curve" smooth="yes"/>
      <point x="263" y="312" type="line"/>
      <point x="263" y="205" type="line"/>
      <point x="149" y="205" type="line"/>
      <point x="149" y="178" type="line"/>
      <point x="263" y="178" type="line"/>
      <point x="263" y="0" type="line"/>
    </contour>
    <contour>
      <point x="239" y="727" type="move" name="top"/>
    </contour>
    <contour>
      <point x="280" y="0" type="move" name="bottom"/>
    </contour>
  </outline>
</glyph>
<glyph name="uni02A5" format="1">
  <advance width="855"/>
  <unicode hex="02A5"/>
  <outline>
    <contour>
      <point x="687" y="-102" type="line"/>
      <point x="686" y="-72"/>
      <point x="686" y="-36"/>
      <point x="688" y="0" type="curve"/>
      <point x="819" y="-1"/>
      <point x="875" y="33"/>
      <point x="875" y="107" type="curve" smooth="yes"/>
      <point x="875" y="162"/>
      <point x="837" y="196"/>
      <point x="785" y="196" type="curve" smooth="yes"/>
      <point x="710" y="196"/>
      <point x="668" y="129"/>
      <point x="662" y="28" type="curve"/>
      <point x="498" y="28" type="line"/>
      <point x="815" y="495" type="line"/>
      <point x="815" y="520" type="line"/>
      <point x="460" y="520" type="line"/>
      <point x="460" y="734" type="line"/>
      <point x="430" y="738" type="line"/>
      <point x="430" y="454" type="line"/>
      <point x="403" y="490"/>
      <point x="359" y="530"/>
      <point x="279" y="530" type="curve" smooth="yes"/>
      <point x="151" y="530"/>
      <point x="75" y="419"/>
      <point x="75" y="258" type="curve" smooth="yes"/>
      <point x="75" y="90"/>
      <point x="152" y="-10"/>
      <point x="268" y="-10" type="curve" smooth="yes"/>
      <point x="354" y="-10"/>
      <point x="403" y="36"/>
      <point x="430" y="86" type="curve"/>
      <point x="434" y="0" type="line"/>
      <point x="660" y="0" type="line"/>
      <point x="659" y="-34"/>
      <point x="658" y="-69"/>
      <point x="660" y="-102" type="curve"/>
    </contour>
    <contour>
      <point x="269" y="18" type="curve" smooth="yes"/>
      <point x="170" y="18"/>
      <point x="107" y="106"/>
      <point x="106" y="258" type="curve" smooth="yes"/>
      <point x="105" y="412"/>
      <point x="178" y="502"/>
      <point x="280" y="502" type="curve" smooth="yes"/>
      <point x="354" y="502"/>
      <point x="400" y="461"/>
      <point x="430" y="414" type="curve"/>
      <point x="430" y="131" type="line"/>
      <point x="394" y="59"/>
      <point x="348" y="18"/>
    </contour>
    <contour>
      <point x="460" y="492" type="line"/>
      <point x="778" y="492" type="line"/>
      <point x="460" y="25" type="line"/>
    </contour>
    <contour>
      <point x="690" y="28" type="curve"/>
      <point x="697" y="126"/>
      <point x="733" y="169"/>
      <point x="784" y="169" type="curve" smooth="yes"/>
      <point x="823" y="169"/>
      <point x="845" y="146"/>
      <point x="845" y="107" type="curve" smooth="yes"/>
      <point x="845" y="51"/>
      <point x="804" y="25"/>
    </contour>
    <contour>
      <point x="418" y="-188" type="move" name="bottom"/>
    </contour>
    <contour>
      <point x="418" y="727" type="move" name="top"/>
    </contour>
    <contour>
      <point x="497" y="727" type="move" name="topright"/>
    </contour>
    <contour>
      <point x="289" y="259" type="move" name="center"/>
    </contour>
  </outline>
</glyph>
<glyph name="uni02A7" format="1">
  <advance width="549"/>
  <unicode hex="02A7"/>
  <outline>
    <contour>
      <point x="110" y="650" type="line"/>
      <point x="110" y="138" type="line" smooth="yes"/>
      <point x="110" y="37"/>
      <point x="164" y="-10"/>
      <point x="256" y="-10" type="curve" smooth="yes"/>
      <point x="319" y="-10"/>
      <point x="364" y="5"/>
      <point x="420" y="30" type="curve"/>
      <point x="407" y="52" type="line"/>
      <point x="353" y="30"/>
      <point x="315" y="18"/>
      <point x="256" y="18" type="curve" smooth="yes"/>
      <point x="178" y="18"/>
      <point x="140" y="58"/>
      <point x="140" y="140" type="curve" smooth="yes"/>
      <point x="140" y="653" type="line"/>
    </contour>
    <contour>
      <point x="25" y="520" type="line"/>
      <point x="25" y="493" type="line"/>
      <point x="408" y="493" type="line"/>
      <point x="413" y="520" type="line"/>
    </contour>
    <contour>
      <point x="401" y="520" type="line"/>
      <point x="401" y="0" type="line"/>
      <point x="431" y="0" type="line"/>
      <point x="431" y="520" type="line"/>
    </contour>
    <contour>
      <point x="504" y="738" type="curve" smooth="yes"/>
      <point x="443" y="738"/>
      <point x="401" y="700"/>
      <point x="401" y="621" type="curve" smooth="yes"/>
      <point x="401" y="519" type="line"/>
      <point x="431" y="519" type="line"/>
      <point x="431" y="620" type="line" smooth="yes"/>
      <point x="431" y="689"/>
      <point x="464" y="711"/>
      <point x="504" y="711" type="curve" smooth="yes"/>
      <point x="539" y="711"/>
      <point x="561" y="700"/>
      <point x="581" y="687" type="curve"/>
      <point x="596" y="707" type="line"/>
      <point x="576" y="722"/>
      <point x="547" y="738"/>
    </contour>
    <contour>
      <point x="327" y="-199" type="curve" smooth="yes"/>
      <point x="387" y="-199"/>
      <point x="431" y="-161"/>
      <point x="431" y="-82" type="curve" smooth="yes"/>
      <point x="431" y="1" type="line"/>
      <point x="401" y="1" type="line"/>
      <point x="401" y="-81" type="line" smooth="yes"/>
      <point x="401" y="-150"/>
      <point x="367" y="-172"/>
      <point x="327" y="-172" type="curve" smooth="yes"/>
      <point x="292" y="-172"/>
      <point x="270" y="-161"/>
      <point x="251" y="-148" type="curve"/>
      <point x="236" y="-168" type="line"/>
      <point x="256" y="-183"/>
      <point x="286" y="-199"/>
    </contour>
    <contour>
      <point x="261" y="727" type="move" name="top"/>
    </contour>
    <contour>
      <point x="265" y="-188" type="move" name="bottom"/>
    </contour>
  </outline>
</glyph>
<glyph name="uni02A9" format="1">
  <advance width="862"/>
  <unicode hex="02A9"/>
  <outline>
    <contour>
      <point x="648" y="-199" type="curve" smooth="yes"/>
      <point x="708" y="-199"/>
      <point x="752" y="-161"/>
      <point x="752" y="-82" type="curve" smooth="yes"/>
      <point x="752" y="370" type="line" smooth="yes"/>
      <point x="752" y="472"/>
      <point x="706" y="530"/>
      <point x="612" y="530" type="curve" smooth="yes"/>
      <point x="531" y="530"/>
      <point x="470" y="485"/>
      <point x="424" y="421" type="curve"/>
      <point x="421" y="520" type="line"/>
      <point x="148" y="520" type="line"/>
      <point x="148" y="613" type="line" smooth="yes"/>
      <point x="148" y="683"/>
      <point x="188" y="710"/>
      <point x="249" y="710" type="curve" smooth="yes"/>
      <point x="286" y="710"/>
      <point x="319" y="701"/>
      <point x="353" y="685" type="curve"/>
      <point x="365" y="709" type="line"/>
      <point x="330" y="727"/>
      <point x="288" y="738"/>
      <point x="247" y="738" type="curve" smooth="yes"/>
      <point x="170" y="738"/>
      <point x="118" y="695"/>
      <point x="118" y="617" type="curve" smooth="yes"/>
      <point x="118" y="520" type="line"/>
      <point x="30" y="520" type="line"/>
      <point x="30" y="493" type="line"/>
      <point x="118" y="493" type="line"/>
      <point x="118" y="0" type="line"/>
      <point x="148" y="0" type="line"/>
      <point x="148" y="493" type="line"/>
      <point x="395" y="493" type="line"/>
      <point x="395" y="0" type="line"/>
      <point x="425" y="0" type="line"/>
      <point x="425" y="383" type="line"/>
      <point x="474" y="453"/>
      <point x="529" y="503"/>
      <point x="611" y="503" type="curve" smooth="yes"/>
      <point x="685" y="503"/>
      <point x="722" y="459"/>
      <point x="722" y="366" type="curve" smooth="yes"/>
      <point x="722" y="-81" type="line" smooth="yes"/>
      <point x="722" y="-150"/>
      <point x="688" y="-172"/>
      <point x="648" y="-172" type="curve" smooth="yes"/>
      <point x="613" y="-172"/>
      <point x="591" y="-161"/>
      <point x="572" y="-148" type="curve"/>
      <point x="557" y="-168" type="line"/>
      <point x="577" y="-183"/>
      <point x="607" y="-199"/>
    </contour>
    <contour>
      <point x="410" y="727" type="move" name="top"/>
    </contour>
    <contour>
      <point x="414" y="-188" type="move" name="bottom"/>
    </contour>
    <contour>
      <point x="404" y="517" type="move" name="topleft"/>
    </contour>
  </outline>
</glyph>
<glyph name="uni02AE" format="1">
  <advance width="655"/>
  <unicode hex="02AE"/>
  <outline>
    <contour>
      <point x="323" y="-10" type="curve" smooth="yes"/>
      <point x="409" y="-10"/>
      <point x="471" y="40"/>
      <point x="519" y="112" type="curve"/>
      <point x="510" y="137" type="line"/>
      <point x="461" y="67"/>
      <point x="406" y="17"/>
      <point x="324" y="17" type="curve" smooth="yes"/>
      <point x="250" y="17"/>
      <point x="213" y="63"/>
      <point x="213" y="154" type="curve" smooth="yes"/>
      <point x="213" y="328" type="line"/>
      <point x="183" y="328" type="line"/>
      <point x="183" y="150" type="line" smooth="yes"/>
      <point x="183" y="50"/>
      <point x="230" y="-10"/>
    </contour>
    <contour>
      <point x="540" y="-199" type="line"/>
      <point x="540" y="520" type="line"/>
      <point x="510" y="520" type="line"/>
      <point x="510" y="-193" type="line"/>
    </contour>
    <contour>
      <point x="109" y="527" type="curve" smooth="yes"/>
      <point x="68" y="527"/>
      <point x="38" y="511"/>
      <point x="18" y="496" type="curve"/>
      <point x="33" y="476" type="line"/>
      <point x="52" y="489"/>
      <point x="74" y="500"/>
      <point x="109" y="500" type="curve" smooth="yes"/>
      <point x="149" y="500"/>
      <point x="183" y="478"/>
      <point x="183" y="409" type="curve" smooth="yes"/>
      <point x="183" y="327" type="line"/>
      <point x="213" y="327" type="line"/>
      <point x="213" y="410" type="line" smooth="yes"/>
      <point x="213" y="489"/>
      <point x="169" y="527"/>
    </contour>
    <contour>
      <point x="347" y="517" type="move" name="top"/>
    </contour>
    <contour>
      <point x="336" y="-188" type="move" name="bottom"/>
    </contour>
  </outline>
</glyph>
<glyph name="hookabovecomb" format="1">
  <advance width="210"/>
  <unicode hex="0309"/>
  <outline>
    <contour>
      <point x="111" y="621" type="line"/>
      <point x="111" y="676" type="line"/>
      <point x="156" y="681"/>
      <point x="181" y="704"/>
      <point x="181" y="746" type="curve" smooth="yes"/>
      <point x="181" y="788"/>
      <point x="150" y="816"/>
      <point x="101" y="816" type="curve" smooth="yes"/>
      <point x="72" y="816"/>
      <point x="51" y="809"/>
      <point x="30" y="797" type="curve"/>
      <point x="41" y="775" type="line"/>
      <point x="59" y="784"/>
      <point x="75" y="789"/>
      <point x="99" y="789" type="curve" smooth="yes"/>
      <point x="131" y="789"/>
      <point x="149" y="773"/>
      <point x="149" y="745" type="curve" smooth="yes"/>
      <point x="149" y="708"/>
      <point x="119" y="696"/>
      <point x="81" y="695" type="curve"/>
      <point x="81" y="621" type="line"/>
    </contour>
    <contour>
      <point x="71" y="488" type="move" name="_topright"/>
    </contour>
    <contour>
      <point x="92" y="797" type="move" name="top"/>
    </contour>
    <contour>
      <point x="84" y="517" type="move" name="_top"/>
    </contour>
  </outline>
</glyph>
<glyph name="uni030D" format="1">
  <advance width="92"/>
  <unicode hex="030D"/>
  <outline>
    <contour>
      <point x="62" y="639" type="line"/>
      <point x="62" y="842" type="line"/>
      <point x="30" y="842" type="line"/>
      <point x="30" y="639" type="line"/>
    </contour>
    <contour>
      <point x="33" y="838" type="move" name="top"/>
    </contour>
    <contour>
      <point x="31" y="517" type="move" name="_top"/>
    </contour>
  </outline>
</glyph>
<glyph name="uni031A" format="1">
  <advance width="212"/>
  <unicode hex="031A"/>
  <outline>
    <contour>
      <point x="30" y="722" type="line"/>
      <point x="152" y="722" type="line"/>
      <point x="152" y="591" type="line"/>
      <point x="182" y="591" type="line"/>
      <point x="182" y="750" type="line"/>
      <point x="30" y="750" type="line"/>
    </contour>
    <contour>
      <point x="102" y="738" type="move" name="top"/>
    </contour>
    <contour>
      <point x="100" y="517" type="move" name="_top"/>
    </contour>
  </outline>
</glyph>
<glyph name="uni032A" format="1">
  <advance width="312"/>
  <unicode hex="032A"/>
  <outline>
    <contour>
      <point x="60" y="-220" type="line"/>
      <point x="60" y="-130" type="line"/>
      <point x="252" y="-130" type="line"/>
      <point x="252" y="-220" type="line"/>
      <point x="282" y="-220" type="line"/>
      <point x="282" y="-102" type="line"/>
      <point x="30" y="-102" type="line"/>
      <point x="30" y="-220" type="line"/>
    </contour>
    <contour>
      <point x="145" y="0" type="move" name="_bottom"/>
    </contour>
    <contour>
      <point x="147" y="-206" type="move" name="bottom"/>
    </contour>
  </outline>
</glyph>
<glyph name="uni0371" format="1">
  <advance width="467"/>
  <unicode hex="0371"/>
  <outline>
    <contour>
      <point x="147" y="0" type="line"/>
      <point x="147" y="258" type="line"/>
      <point x="427" y="258" type="line"/>
      <point x="427" y="287" type="line"/>
      <point x="147" y="287" type="line"/>
      <point x="147" y="349" type="line" smooth="yes"/>
      <point x="147" y="450"/>
      <point x="135" y="486"/>
      <point x="124" y="525" type="curve"/>
      <point x="95" y="521" type="line"/>
      <point x="107" y="481"/>
      <point x="117" y="432"/>
      <point x="117" y="354" type="curve" smooth="yes"/>
      <point x="117" y="0" type="line"/>
    </contour>
    <contour>
      <point x="241" y="517" type="move" name="top"/>
    </contour>
    <contour>
      <point x="241" y="0" type="move" name="bottom"/>
    </contour>
  </outline>
</glyph>
<glyph name="uni0372" format="1">
  <advance width="497"/>
  <unicode hex="0372"/>
  <outline>
    <contour>
      <point x="264" y="0" type="line"/>
      <point x="264" y="652" type="line"/>
      <point x="452" y="652" type="line"/>
      <point x="452" y="457" type="line"/>
      <point x="482" y="457" type="line"/>
      <point x="482" y="682" type="line"/>
      <point x="15" y="682" type="line"/>
      <point x="15" y="457" type="line"/>
      <point x="45" y="457" type="line"/>
      <point x="45" y="652" type="line"/>
      <point x="233" y="652" type="line"/>
      <point x="233" y="0" type="line"/>
    </contour>
    <contour>
      <point x="247" y="680" type="move" name="top"/>
    </contour>
    <contour>
      <point x="247" y="0" type="move" name="bottom"/>
    </contour>
  </outline>
</glyph>
<glyph name="eta" format="1">
  <advance width="584"/>
  <unicode hex="03B7"/>
  <outline>
    <contour>
      <point x="334" y="530" type="curve" smooth="yes"/>
      <point x="251" y="530"/>
      <point x="190" y="484"/>
      <point x="144" y="417" type="curve"/>
      <point x="141" y="455"/>
      <point x="135" y="494"/>
      <point x="123" y="525" type="curve"/>
      <point x="95" y="521" type="line"/>
      <point x="107" y="481"/>
      <point x="117" y="432"/>
      <point x="117" y="354" type="curve" smooth="yes"/>
      <point x="117" y="0" type="line"/>
      <point x="147" y="0" type="line"/>
      <point x="147" y="383" type="line"/>
      <point x="196" y="453"/>
      <point x="251" y="503"/>
      <point x="333" y="503" type="curve" smooth="yes"/>
      <point x="407" y="503"/>
      <point x="444" y="459"/>
      <point x="444" y="366" type="curve" smooth="yes"/>
      <point x="444" y="-193" type="line"/>
      <point x="474" y="-199" type="line"/>
      <point x="474" y="370" type="line" smooth="yes"/>
      <point x="474" y="472"/>
      <point x="428" y="530"/>
    </contour>
    <contour>
      <point x="295" y="517" type="move" name="top"/>
    </contour>
    <contour>
      <point x="125" y="0" type="move" name="bottom"/>
    </contour>
  </outline>
</glyph>
<glyph name="theta" format="1">
  <advance width="553"/>
  <unicode hex="03B8"/>
  <outline>
    <contour>
      <point x="279" y="738" type="curve" smooth="yes"/>
      <point x="141" y="738"/>
      <point x="70" y="614"/>
      <point x="70" y="367" type="curve" smooth="yes"/>
      <point x="70" y="117"/>
      <point x="132" y="-10"/>
      <point x="274" y="-10" type="curve" smooth="yes"/>
      <point x="422" y="-10"/>
      <point x="483" y="119"/>
      <point x="483" y="369" type="curve" smooth="yes"/>
      <point x="483" y="598"/>
      <point x="423" y="738"/>
    </contour>
    <contour>
      <point x="279" y="710" type="curve" smooth="yes"/>
      <point x="397" y="710"/>
      <point x="450" y="601"/>
      <point x="452" y="382" type="curve"/>
      <point x="101" y="382" type="line"/>
      <point x="104" y="601"/>
      <point x="158" y="710"/>
    </contour>
    <contour>
      <point x="274" y="18" type="curve" smooth="yes"/>
      <point x="157" y="18"/>
      <point x="101" y="134"/>
      <point x="101" y="355" type="curve"/>
      <point x="452" y="355" type="line"/>
      <point x="450" y="132"/>
      <point x="396" y="18"/>
    </contour>
    <contour>
      <point x="275" y="727" type="move" name="top"/>
    </contour>
    <contour>
      <point x="275" y="0" type="move" name="bottom"/>
    </contour>
  </outline>
</glyph>
<glyph name="uni03CF" format="1">
  <advance width="547"/>
  <unicode hex="03CF"/>
  <outline>
    <contour>
      <point x="484" y="0" type="line"/>
      <point x="537" y="0" type="line"/>
      <point x="537" y="29" type="line"/>
      <point x="484" y="29" type="line"/>
    </contour>
    <contour>
      <point x="460" y="682" type="line"/>
      <point x="154" y="367" type="line"/>
      <point x="475" y="0" type="line"/>
      <point x="513" y="0" type="line"/>
      <point x="194" y="367" type="line"/>
      <point x="497" y="682" type="line"/>
    </contour>
    <contour>
      <point x="120" y="682" type="line"/>
      <point x="120" y="0" type="line"/>
      <point x="151" y="0" type="line"/>
      <point x="151" y="682" type="line"/>
    </contour>
    <contour>
      <point x="433" y="-199" type="curve" smooth="yes"/>
      <point x="493" y="-199"/>
      <point x="537" y="-161"/>
      <point x="537" y="-82" type="curve" smooth="yes"/>
      <point x="537" y="1" type="line"/>
      <point x="506" y="1" type="line"/>
      <point x="506" y="-80" type="line" smooth="yes"/>
      <point x="506" y="-149"/>
      <point x="472" y="-171"/>
      <point x="433" y="-171" type="curve" smooth="yes"/>
      <point x="398" y="-171"/>
      <point x="376" y="-160"/>
      <point x="357" y="-147" type="curve"/>
      <point x="342" y="-168" type="line"/>
      <point x="362" y="-183"/>
      <point x="392" y="-199"/>
    </contour>
    <contour>
      <point x="284" y="680" type="move" name="top"/>
    </contour>
    <contour>
      <point x="275" y="-188" type="move" name="bottom"/>
    </contour>
  </outline>
</glyph>
<glyph name="uni03DC" format="1">
  <advance width="528"/>
  <unicode hex="03DC"/>
  <outline>
    <contour>
      <point x="498" y="682" type="line"/>
      <point x="120" y="682" type="line"/>
      <point x="120" y="0" type="line"/>
      <point x="151" y="0" type="line"/>
      <point x="151" y="338" type="line"/>
      <point x="355" y="338" type="line" smooth="yes"/>
      <point x="383" y="338"/>
      <point x="403" y="332"/>
      <point x="425" y="323" type="curve"/>
      <point x="436" y="348" type="line"/>
      <point x="412" y="360"/>
      <point x="389" y="367"/>
      <point x="357" y="367" type="curve" smooth="yes"/>
      <point x="151" y="367" type="line"/>
      <point x="151" y="652" type="line"/>
      <point x="493" y="652" type="line"/>
    </contour>
    <contour>
      <point x="330" y="680" type="move" name="top"/>
    </contour>
    <contour>
      <point x="131" y="0" type="move" name="bottom"/>
    </contour>
    <contour>
      <point x="142" y="0" type="move" name="bottomright"/>
    </contour>
  </outline>
</glyph>
<glyph name="uni0402" format="1">
  <advance width="687"/>
  <unicode hex="0402"/>
  <outline>
    <contour>
      <point x="447" y="424" type="curve" smooth="yes"/>
      <point x="362" y="424"/>
      <point x="304" y="390"/>
      <point x="254" y="334" type="curve"/>
      <point x="254" y="652" type="line"/>
      <point x="462" y="652" type="line"/>
      <point x="467" y="682" type="line"/>
      <point x="15" y="682" type="line"/>
      <point x="15" y="652" type="line"/>
      <point x="223" y="652" type="line"/>
      <point x="223" y="0" type="line"/>
      <point x="254" y="0" type="line"/>
      <point x="254" y="295" type="line"/>
      <point x="309" y="362"/>
      <point x="368" y="395"/>
      <point x="446" y="395" type="curve" smooth="yes"/>
      <point x="556" y="395"/>
      <point x="601" y="332"/>
      <point x="601" y="241" type="curve" smooth="yes"/>
      <point x="601" y="90" type="line" smooth="yes"/>
      <point x="601" y="-3"/>
      <point x="578" y="-37"/>
      <point x="487" y="-81" type="curve"/>
      <point x="496" y="-104" type="line"/>
      <point x="608" y="-54"/>
      <point x="632" y="-15"/>
      <point x="632" y="88" type="curve" smooth="yes"/>
      <point x="632" y="243" type="line" smooth="yes"/>
      <point x="632" y="353"/>
      <point x="571" y="424"/>
    </contour>
    <contour>
      <point x="346" y="680" type="move" name="top"/>
    </contour>
    <contour>
      <point x="346" y="-188" type="move" name="bottom"/>
    </contour>
  </outline>
</glyph>
<glyph name="uni040B" format="1">
  <advance width="687"/>
  <unicode hex="040B"/>
  <outline>
    <contour>
      <point x="15" y="682" type="line"/>
      <point x="15" y="652" type="line"/>
      <point x="462" y="652" type="line"/>
      <point x="467" y="682" type="line"/>
    </contour>
    <contour>
      <point x="447" y="424" type="curve" smooth="yes"/>
      <point x="359" y="424"/>
      <point x="299" y="387"/>
      <point x="248" y="327" type="curve"/>
      <point x="248" y="287" type="line"/>
      <point x="305" y="360"/>
      <point x="365" y="395"/>
      <point x="446" y="395" type="curve" smooth="yes"/>
      <point x="556" y="395"/>
      <point x="601" y="332"/>
      <point x="601" y="241" type="curve" smooth="yes"/>
      <point x="601" y="0" type="line"/>
      <point x="632" y="0" type="line"/>
      <point x="632" y="243" type="line" smooth="yes"/>
      <point x="632" y="354"/>
      <point x="571" y="424"/>
    </contour>
    <contour>
      <point x="223" y="682" type="line"/>
      <point x="223" y="0" type="line"/>
      <point x="254" y="0" type="line"/>
      <point x="254" y="682" type="line"/>
    </contour>
    <contour>
      <point x="399" y="680" type="move" name="top"/>
    </contour>
    <contour>
      <point x="399" y="0" type="move" name="bottom"/>
    </contour>
    <contour>
      <point x="622" y="0" type="move" name="bottomright"/>
    </contour>
  </outline>
</glyph>
<glyph name="uni0414" format="1">
  <advance width="592"/>
  <unicode hex="0414"/>
  <outline>
    <contour>
      <point x="472" y="682" type="line"/>
      <point x="178" y="682" type="line"/>
      <point x="141" y="383" type="line" smooth="yes"/>
      <point x="109" y="121"/>
      <point x="78" y="70"/>
      <point x="37" y="29" type="curve"/>
      <point x="-5" y="29" type="line"/>
      <point x="-5" y="-141" type="line"/>
      <point x="17" y="-141" type="line"/>
      <point x="28" y="0" type="line"/>
      <point x="486" y="0" type="line"/>
      <point x="497" y="-141" type="line"/>
      <point x="519" y="-141" type="line"/>
      <point x="519" y="29" type="line"/>
      <point x="472" y="29" type="line"/>
    </contour>
    <contour>
      <point x="68" y="29" type="line"/>
      <point x="110" y="71"/>
      <point x="141" y="133"/>
      <point x="174" y="384" type="curve" smooth="yes"/>
      <point x="207" y="653" type="line"/>
      <point x="441" y="653" type="line"/>
      <point x="441" y="29" type="line"/>
    </contour>
    <contour>
      <point x="501" y="0" type="move" name="_bottom"/>
    </contour>
    <contour>
      <point x="294" y="-188" type="move" name="bottom"/>
    </contour>
    <contour>
      <point x="294" y="680" type="move" name="top"/>
    </contour>
  </outline>
</glyph>
<glyph name="uni0427" format="1">
  <advance width="579"/>
  <unicode hex="0427"/>
  <outline>
    <contour>
      <point x="428" y="346" type="line"/>
      <point x="387" y="293"/>
      <point x="319" y="257"/>
      <point x="243" y="257" type="curve" smooth="yes"/>
      <point x="143" y="257"/>
      <point x="81" y="315"/>
      <point x="81" y="417" type="curve" smooth="yes"/>
      <point x="81" y="682" type="line"/>
      <point x="50" y="682" type="line"/>
      <point x="50" y="415" type="line" smooth="yes"/>
      <point x="50" y="297"/>
      <point x="127" y="228"/>
      <point x="239" y="228" type="curve" smooth="yes"/>
      <point x="321" y="228"/>
      <point x="382" y="262"/>
      <point x="428" y="311" type="curve"/>
      <point x="428" y="0" type="line"/>
      <point x="459" y="0" type="line"/>
      <point x="459" y="682" type="line"/>
      <point x="428" y="682" type="line"/>
    </contour>
    <contour>
      <point x="248" y="680" type="move" name="top"/>
    </contour>
    <contour>
      <point x="414" y="0" type="move" name="bottomleft"/>
    </contour>
    <contour>
      <point x="446" y="0" type="move" name="bottomright"/>
    </contour>
    <contour>
      <point x="283" y="0" type="move" name="bottom"/>
    </contour>
  </outline>
</glyph>
<glyph name="uni042A" format="1">
  <advance width="592"/>
  <unicode hex="042A"/>
  <outline>
    <contour>
      <point x="192" y="412" type="line"/>
      <point x="192" y="682" type="line"/>
      <point x="0" y="682" type="line"/>
      <point x="0" y="653" type="line"/>
      <point x="161" y="653" type="line"/>
      <point x="161" y="0" type="line"/>
      <point x="317" y="0" type="line" smooth="yes"/>
      <point x="452" y="0"/>
      <point x="547" y="64"/>
      <point x="547" y="213" type="curve" smooth="yes"/>
      <point x="547" y="348"/>
      <point x="461" y="412"/>
      <point x="317" y="412" type="curve" smooth="yes"/>
    </contour>
    <contour>
      <point x="192" y="29" type="line"/>
      <point x="192" y="383" type="line"/>
      <point x="320" y="383" type="line" smooth="yes"/>
      <point x="442" y="383"/>
      <point x="515" y="331"/>
      <point x="515" y="214" type="curve" smooth="yes"/>
      <point x="515" y="83"/>
      <point x="440" y="29"/>
      <point x="325" y="29" type="curve" smooth="yes"/>
    </contour>
    <contour>
      <point x="303" y="680" type="move" name="top"/>
    </contour>
    <contour>
      <point x="303" y="0" type="move" name="bottom"/>
    </contour>
  </outline>
</glyph>
<glyph name="uni0434" format="1">
  <advance width="546"/>
  <unicode hex="0434"/>
  <outline>
    <contour>
      <point x="67" y="25" type="line"/>
      <point x="118" y="53"/>
      <point x="150" y="92"/>
      <point x="165" y="317" type="curve" smooth="yes"/>
      <point x="177" y="492" type="line"/>
      <point x="399" y="492" type="line"/>
      <point x="399" y="28" type="line"/>
      <point x="40" y="28" type="line"/>
      <point x="40" y="0" type="line"/>
      <point x="431" y="0" type="line"/>
      <point x="431" y="520" type="line"/>
      <point x="147" y="520" type="line"/>
      <point x="133" y="314" type="line" smooth="yes"/>
      <point x="118" y="94"/>
      <point x="89" y="64"/>
      <point x="40" y="28" type="curve"/>
    </contour>
    <contour>
      <point x="401" y="28" type="line"/>
      <point x="416" y="0" type="line"/>
      <point x="443" y="0" type="line"/>
      <point x="454" y="-141" type="line"/>
      <point x="476" y="-141" type="line"/>
      <point x="476" y="28" type="line"/>
    </contour>
    <contour>
      <point x="10" y="-141" type="line"/>
      <point x="32" y="-141" type="line"/>
      <point x="43" y="0" type="line"/>
      <point x="70" y="0" type="line"/>
      <point x="85" y="28" type="line"/>
      <point x="10" y="28" type="line"/>
    </contour>
    <contour>
      <point x="457" y="0" type="move" name="_bottom"/>
    </contour>
    <contour>
      <point x="269" y="-188" type="move" name="bottom"/>
    </contour>
    <contour>
      <point x="269" y="517" type="move" name="top"/>
    </contour>
  </outline>
</glyph>
<glyph name="uni044A" format="1">
  <advance width="533"/>
  <unicode hex="044A"/>
  <outline>
    <contour>
      <point x="177" y="520" type="line"/>
      <point x="4" y="520" type="line"/>
      <point x="4" y="492" type="line"/>
      <point x="157" y="492" type="line"/>
    </contour>
    <contour>
      <point x="180" y="310" type="line"/>
      <point x="299" y="310" type="line" smooth="yes"/>
      <point x="419" y="310"/>
      <point x="462" y="260"/>
      <point x="462" y="175" type="curve" smooth="yes"/>
      <point x="462" y="69"/>
      <point x="401" y="28"/>
      <point x="301" y="28" type="curve" smooth="yes"/>
      <point x="187" y="28" type="line"/>
      <point x="187" y="520" type="line"/>
      <point x="157" y="520" type="line"/>
      <point x="157" y="0" type="line"/>
      <point x="304" y="0" type="line" smooth="yes"/>
      <point x="415" y="0"/>
      <point x="493" y="54"/>
      <point x="493" y="175" type="curve" smooth="yes"/>
      <point x="493" y="276"/>
      <point x="436" y="338"/>
      <point x="298" y="338" type="curve" smooth="yes"/>
      <point x="180" y="338" type="line"/>
    </contour>
    <contour>
      <point x="281" y="517" type="move" name="top"/>
    </contour>
    <contour>
      <point x="281" y="0" type="move" name="bottom"/>
    </contour>
  </outline>
</glyph>
<glyph name="uni0464" format="1">
  <advance width="743"/>
  <unicode hex="0464"/>
  <outline>
    <contour>
      <point x="689" y="78" type="line"/>
      <point x="648" y="44"/>
      <point x="609" y="20"/>
      <point x="534" y="20" type="curve" smooth="yes"/>
      <point x="404" y="20"/>
      <point x="299" y="125"/>
      <point x="298" y="341" type="curve"/>
      <point x="582" y="341" type="line"/>
      <point x="582" y="370" type="line"/>
      <point x="298" y="370" type="line"/>
      <point x="306" y="575"/>
      <point x="411" y="663"/>
      <point x="538" y="663" type="curve" smooth="yes"/>
      <point x="600" y="663"/>
      <point x="636" y="647"/>
      <point x="683" y="611" type="curve"/>
      <point x="700" y="633" type="line"/>
      <point x="656" y="669"/>
      <point x="611" y="692"/>
      <point x="536" y="692" type="curve" smooth="yes"/>
      <point x="393" y="692"/>
      <point x="275" y="586"/>
      <point x="267" y="370" type="curve"/>
      <point x="151" y="370" type="line"/>
      <point x="151" y="682" type="line"/>
      <point x="120" y="682" type="line"/>
      <point x="120" y="0" type="line"/>
      <point x="151" y="0" type="line"/>
      <point x="151" y="341" type="line"/>
      <point x="266" y="341" type="line"/>
      <point x="267" y="111"/>
      <point x="382" y="-10"/>
      <point x="533" y="-10" type="curve" smooth="yes"/>
      <point x="611" y="-10"/>
      <point x="664" y="17"/>
      <point x="708" y="55" type="curve"/>
    </contour>
    <contour>
      <point x="363" y="680" type="move" name="top"/>
    </contour>
    <contour>
      <point x="363" y="0" type="move" name="bottom"/>
    </contour>
  </outline>
</glyph>
<glyph name="uni0465" format="1">
  <advance width="679"/>
  <unicode hex="0465"/>
  <outline>
    <contour>
      <point x="115" y="520" type="line"/>
      <point x="115" y="0" type="line"/>
      <point x="145" y="0" type="line"/>
      <point x="145" y="254" type="line"/>
      <point x="303" y="254" type="line"/>
      <point x="304" y="282" type="line"/>
      <point x="145" y="282" type="line"/>
      <point x="145" y="520" type="line"/>
    </contour>
    <contour>
      <point x="492" y="530" type="curve" smooth="yes"/>
      <point x="365" y="530"/>
      <point x="276" y="429"/>
      <point x="276" y="261" type="curve" smooth="yes"/>
      <point x="276" y="87"/>
      <point x="363" y="-10"/>
      <point x="488" y="-10" type="curve" smooth="yes"/>
      <point x="548" y="-10"/>
      <point x="595" y="11"/>
      <point x="634" y="41" type="curve"/>
      <point x="618" y="64" type="line"/>
      <point x="577" y="35"/>
      <point x="542" y="18"/>
      <point x="488" y="18" type="curve" smooth="yes"/>
      <point x="387" y="18"/>
      <point x="307" y="98"/>
      <point x="307" y="258" type="curve"/>
      <point x="307" y="266" type="line"/>
      <point x="310" y="422"/>
      <point x="388" y="502"/>
      <point x="492" y="502" type="curve" smooth="yes"/>
      <point x="541" y="502"/>
      <point x="576" y="487"/>
      <point x="614" y="458" type="curve"/>
      <point x="632" y="480" type="line"/>
      <point x="586" y="515"/>
      <point x="546" y="530"/>
    </contour>
    <contour>
      <point x="302" y="282" type="line"/>
      <point x="302" y="255" type="line"/>
      <point x="570" y="255" type="line"/>
      <point x="570" y="282" type="line"/>
    </contour>
    <contour>
      <point x="334" y="517" type="move" name="top"/>
    </contour>
    <contour>
      <point x="334" y="0" type="move" name="bottom"/>
    </contour>
  </outline>
</glyph>
<glyph name="uni0495" format="1">
  <advance width="537"/>
  <unicode hex="0495"/>
  <outline>
    <contour>
      <point x="472" y="0" type="line"/>
      <point x="472" y="180" type="line" smooth="yes"/>
      <point x="472" y="282"/>
      <point x="426" y="340"/>
      <point x="332" y="340" type="curve" smooth="yes"/>
      <point x="249" y="340"/>
      <point x="186" y="290"/>
      <point x="136" y="229" type="curve"/>
      <point x="145" y="203" type="line"/>
      <point x="197" y="263"/>
      <point x="252" y="313"/>
      <point x="331" y="313" type="curve" smooth="yes"/>
      <point x="405" y="313"/>
      <point x="442" y="269"/>
      <point x="442" y="176" type="curve" smooth="yes"/>
      <point x="442" y="0" type="line"/>
    </contour>
    <contour>
      <point x="145" y="0" type="line"/>
      <point x="145" y="520" type="line"/>
      <point x="115" y="520" type="line"/>
      <point x="115" y="0" type="line"/>
    </contour>
    <contour>
      <point x="404" y="492" type="line"/>
      <point x="408" y="520" type="line"/>
      <point x="115" y="520" type="line"/>
      <point x="145" y="492" type="line"/>
    </contour>
    <contour>
      <point x="368" y="-199" type="curve" smooth="yes"/>
      <point x="428" y="-199"/>
      <point x="472" y="-161"/>
      <point x="472" y="-82" type="curve" smooth="yes"/>
      <point x="472" y="1" type="line"/>
      <point x="442" y="1" type="line"/>
      <point x="442" y="-81" type="line" smooth="yes"/>
      <point x="442" y="-150"/>
      <point x="408" y="-172"/>
      <point x="368" y="-172" type="curve" smooth="yes"/>
      <point x="333" y="-172"/>
      <point x="311" y="-161"/>
      <point x="292" y="-148" type="curve"/>
      <point x="277" y="-168" type="line"/>
      <point x="297" y="-183"/>
      <point x="327" y="-199"/>
    </contour>
    <contour>
      <point x="275" y="517" type="move" name="top"/>
    </contour>
    <contour>
      <point x="275" y="-188" type="move" name="bottom"/>
    </contour>
  </outline>
</glyph>
<glyph name="uni04A0" format="1">
  <advance width="579"/>
  <unicode hex="04A0"/>
  <outline>
    <contour>
      <point x="549" y="682" type="line"/>
      <point x="515" y="682" type="line"/>
      <point x="313" y="374" type="line"/>
      <point x="192" y="374" type="line"/>
      <point x="192" y="682" type="line"/>
      <point x="0" y="682" type="line"/>
      <point x="0" y="654" type="line"/>
      <point x="161" y="654" type="line"/>
      <point x="161" y="0" type="line"/>
      <point x="192" y="0" type="line"/>
      <point x="192" y="346" type="line"/>
      <point x="312" y="346" type="line"/>
      <point x="528" y="0" type="line"/>
      <point x="564" y="0" type="line"/>
      <point x="339" y="361" type="line"/>
    </contour>
    <contour>
      <point x="323" y="680" type="move" name="top"/>
    </contour>
    <contour>
      <point x="294" y="0" type="move" name="bottom"/>
    </contour>
    <contour>
      <point x="532" y="0" type="move" name="bottomright"/>
    </contour>
  </outline>
</glyph>
<glyph name="uni04A5" format="1">
  <advance width="628"/>
  <unicode hex="04A5"/>
  <outline>
    <contour>
      <point x="620" y="492" type="line"/>
      <point x="624" y="520" type="line"/>
      <point x="439" y="520" type="line"/>
      <point x="469" y="492" type="line"/>
    </contour>
    <contour>
      <point x="469" y="0" type="line"/>
      <point x="469" y="520" type="line"/>
      <point x="439" y="520" type="line"/>
      <point x="439" y="286" type="line"/>
      <point x="145" y="286" type="line"/>
      <point x="145" y="520" type="line"/>
      <point x="115" y="520" type="line"/>
      <point x="115" y="0" type="line"/>
      <point x="145" y="0" type="line"/>
      <point x="145" y="258" type="line"/>
      <point x="439" y="258" type="line"/>
      <point x="439" y="0" type="line"/>
    </contour>
    <contour>
      <point x="284" y="517" type="move" name="top"/>
    </contour>
    <contour>
      <point x="289" y="0" type="move" name="bottom"/>
    </contour>
    <contour>
      <point x="463" y="0" type="move" name="bottomright"/>
    </contour>
  </outline>
</glyph>
<glyph name="uni04A6" format="1">
  <advance width="974"/>
  <unicode hex="04A6"/>
  <outline>
    <contour>
      <point x="734" y="424" type="curve" smooth="yes"/>
      <point x="647" y="424"/>
      <point x="588" y="388"/>
      <point x="537" y="329" type="curve"/>
      <point x="537" y="682" type="line"/>
      <point x="120" y="682" type="line"/>
      <point x="120" y="0" type="line"/>
      <point x="151" y="0" type="line"/>
      <point x="151" y="653" type="line"/>
      <point x="506" y="653" type="line"/>
      <point x="506" y="0" type="line"/>
      <point x="537" y="0" type="line"/>
      <point x="537" y="290" type="line"/>
      <point x="593" y="361"/>
      <point x="653" y="395"/>
      <point x="733" y="395" type="curve" smooth="yes"/>
      <point x="843" y="395"/>
      <point x="888" y="332"/>
      <point x="888" y="241" type="curve" smooth="yes"/>
      <point x="888" y="-80" type="line" smooth="yes"/>
      <point x="888" y="-149"/>
      <point x="854" y="-171"/>
      <point x="815" y="-171" type="curve" smooth="yes"/>
      <point x="780" y="-171"/>
      <point x="758" y="-160"/>
      <point x="739" y="-147" type="curve"/>
      <point x="724" y="-168" type="line"/>
      <point x="744" y="-183"/>
      <point x="774" y="-199"/>
      <point x="815" y="-199" type="curve" smooth="yes"/>
      <point x="875" y="-199"/>
      <point x="919" y="-161"/>
      <point x="919" y="-82" type="curve" smooth="yes"/>
      <point x="919" y="243" type="line" smooth="yes"/>
      <point x="919" y="354"/>
      <point x="858" y="424"/>
    </contour>
    <contour>
      <point x="490" y="680" type="move" name="top"/>
    </contour>
    <contour>
      <point x="490" y="-188" type="move" name="bottom"/>
    </contour>
    <contour>
      <point x="534" y="0" type="move" name="bottomright"/>
    </contour>
  </outline>
</glyph>
<glyph name="uni04A7" format="1">
  <advance width="858"/>
  <unicode hex="04A7"/>
  <outline>
    <contour>
      <point x="793" y="0" type="line"/>
      <point x="793" y="180" type="line" smooth="yes"/>
      <point x="793" y="282"/>
      <point x="747" y="340"/>
      <point x="653" y="340" type="curve" smooth="yes"/>
      <point x="570" y="340"/>
      <point x="507" y="290"/>
      <point x="457" y="229" type="curve"/>
      <point x="466" y="203" type="line"/>
      <point x="518" y="263"/>
      <point x="573" y="313"/>
      <point x="652" y="313" type="curve" smooth="yes"/>
      <point x="726" y="313"/>
      <point x="763" y="269"/>
      <point x="763" y="176" type="curve" smooth="yes"/>
      <point x="763" y="0" type="line"/>
    </contour>
    <contour>
      <point x="466" y="0" type="line"/>
      <point x="466" y="520" type="line"/>
      <point x="115" y="520" type="line"/>
      <point x="115" y="0" type="line"/>
      <point x="145" y="0" type="line"/>
      <point x="145" y="492" type="line"/>
      <point x="436" y="492" type="line"/>
      <point x="436" y="0" type="line"/>
    </contour>
    <contour>
      <point x="689" y="-199" type="curve" smooth="yes"/>
      <point x="749" y="-199"/>
      <point x="793" y="-161"/>
      <point x="793" y="-82" type="curve" smooth="yes"/>
      <point x="793" y="1" type="line"/>
      <point x="763" y="1" type="line"/>
      <point x="763" y="-81" type="line" smooth="yes"/>
      <point x="763" y="-150"/>
      <point x="729" y="-172"/>
      <point x="689" y="-172" type="curve" smooth="yes"/>
      <point x="654" y="-172"/>
      <point x="632" y="-161"/>
      <point x="613" y="-148" type="curve"/>
      <point x="598" y="-168" type="line"/>
      <point x="618" y="-183"/>
      <point x="648" y="-199"/>
    </contour>
    <contour>
      <point x="436" y="517" type="move" name="top"/>
    </contour>
    <contour>
      <point x="436" y="-188" type="move" name="bottom"/>
    </contour>
    <contour>
      <point x="458" y="0" type="move" name="bottomright"/>
    </contour>
  </outline>
</glyph>
<glyph name="uni04B1" format="1">
  <advance width="452"/>
  <unicode hex="04B1"/>
  <outline>
    <contour>
      <point x="245" y="5" type="line"/>
      <point x="351" y="5" type="line"/>
      <point x="351" y="32" type="line"/>
      <point x="110" y="32" type="line"/>
      <point x="110" y="5" type="line"/>
      <point x="216" y="5" type="line"/>
    </contour>
    <contour>
      <point x="399" y="520" type="line"/>
      <point x="230" y="53" type="line"/>
      <point x="54" y="520" type="line"/>
      <point x="20" y="520" type="line"/>
      <point x="216" y="19" type="line"/>
      <point x="216" y="-199" type="line"/>
      <point x="245" y="-193" type="line"/>
      <point x="245" y="19" type="line"/>
      <point x="432" y="520" type="line"/>
    </contour>
    <contour>
      <point x="218" y="517" type="move" name="top"/>
    </contour>
    <contour>
      <point x="218" y="-188" type="move" name="bottom"/>
    </contour>
  </outline>
</glyph>
<glyph name="uni04B8" format="1">
  <advance width="579"/>
  <unicode hex="04B8"/>
  <outline>
    <contour>
      <point x="240" y="517" type="line"/>
      <point x="240" y="115" type="line"/>
      <point x="270" y="115" type="line"/>
      <point x="270" y="517" type="line"/>
    </contour>
    <contour>
      <point x="50" y="682" type="line"/>
      <point x="50" y="415" type="line" smooth="yes"/>
      <point x="50" y="297"/>
      <point x="127" y="228"/>
      <point x="239" y="228" type="curve" smooth="yes"/>
      <point x="325" y="228"/>
      <point x="387" y="265"/>
      <point x="434" y="317" type="curve"/>
      <point x="433" y="353" type="line"/>
      <point x="393" y="296"/>
      <point x="322" y="257"/>
      <point x="243" y="257" type="curve" smooth="yes"/>
      <point x="143" y="257"/>
      <point x="81" y="315"/>
      <point x="81" y="417" type="curve" smooth="yes"/>
      <point x="81" y="682" type="line"/>
    </contour>
    <contour>
      <point x="428" y="682" type="line"/>
      <point x="428" y="0" type="line"/>
      <point x="459" y="0" type="line"/>
      <point x="459" y="682" type="line"/>
    </contour>
    <contour>
      <point x="248" y="680" type="move" name="top"/>
    </contour>
    <contour>
      <point x="414" y="0" type="move" name="bottomleft"/>
    </contour>
    <contour>
      <point x="446" y="0" type="move" name="bottomright"/>
    </contour>
    <contour>
      <point x="283" y="0" type="move" name="bottom"/>
    </contour>
  </outline>
</glyph>
<glyph name="uni04BC" format="1">
  <advance width="717"/>
  <unicode hex="04BC"/>
  <outline>
    <contour>
      <point x="178" y="336" type="line"/>
      <point x="176" y="569"/>
      <point x="276" y="663"/>
      <point x="402" y="663" type="curve" smooth="yes"/>
      <point x="535" y="663"/>
      <point x="619" y="563"/>
      <point x="619" y="347" type="curve"/>
      <point x="171" y="347" type="line"/>
      <point x="173" y="319" type="line"/>
      <point x="651" y="319" type="line"/>
      <point x="652" y="332"/>
      <point x="652" y="341"/>
      <point x="652" y="353" type="curve" smooth="yes"/>
      <point x="652" y="579"/>
      <point x="555" y="692"/>
      <point x="404" y="692" type="curve" smooth="yes"/>
      <point x="252" y="692"/>
      <point x="145" y="582"/>
      <point x="145" y="344" type="curve" smooth="yes"/>
      <point x="145" y="97"/>
      <point x="248" y="-10"/>
      <point x="401" y="-10" type="curve" smooth="yes"/>
      <point x="485" y="-10"/>
      <point x="547" y="16"/>
      <point x="611" y="70" type="curve"/>
      <point x="592" y="91" type="line"/>
      <point x="529" y="40"/>
      <point x="473" y="19"/>
      <point x="401" y="19" type="curve" smooth="yes"/>
      <point x="271" y="19"/>
      <point x="183" y="112"/>
      <point x="178" y="330" type="curve"/>
    </contour>
    <contour>
      <point x="10" y="421" type="curve" smooth="yes"/>
      <point x="10" y="361"/>
      <point x="50" y="319"/>
      <point x="128" y="319" type="curve" smooth="yes"/>
      <point x="152" y="319" type="line"/>
      <point x="152" y="347" type="line"/>
      <point x="124" y="347" type="line" smooth="yes"/>
      <point x="64" y="347"/>
      <point x="40" y="380"/>
      <point x="40" y="421" type="curve" smooth="yes"/>
      <point x="40" y="454"/>
      <point x="52" y="476"/>
      <point x="64" y="497" type="curve"/>
      <point x="41" y="511" type="line"/>
      <point x="26" y="487"/>
      <point x="10" y="463"/>
    </contour>
    <contour>
      <point x="481" y="0" type="move" name="ogonek"/>
    </contour>
    <contour>
      <point x="356" y="0" type="move" name="bottom"/>
    </contour>
    <contour>
      <point x="356" y="680" type="move" name="top"/>
    </contour>
  </outline>
</glyph>
<glyph name="uni04BD" format="1">
  <advance width="600"/>
  <unicode hex="04BD"/>
  <outline>
    <contour>
      <point x="15" y="344" type="curve" smooth="yes"/>
      <point x="15" y="282"/>
      <point x="55" y="244"/>
      <point x="133" y="244" type="curve" smooth="yes"/>
      <point x="167" y="244" type="line"/>
      <point x="167" y="270" type="line"/>
      <point x="129" y="270" type="line" smooth="yes"/>
      <point x="69" y="270"/>
      <point x="45" y="301"/>
      <point x="45" y="344" type="curve" smooth="yes"/>
      <point x="45" y="377"/>
      <point x="57" y="399"/>
      <point x="69" y="420" type="curve"/>
      <point x="46" y="432" type="line"/>
      <point x="31" y="409"/>
      <point x="15" y="383"/>
    </contour>
    <contour>
      <point x="342" y="530" type="curve" smooth="yes"/>
      <point x="221" y="530"/>
      <point x="141" y="426"/>
      <point x="141" y="256" type="curve" smooth="yes"/>
      <point x="141" y="88"/>
      <point x="224" y="-10"/>
      <point x="353" y="-10" type="curve" smooth="yes"/>
      <point x="420" y="-10"/>
      <point x="468" y="13"/>
      <point x="514" y="52" type="curve"/>
      <point x="497" y="74" type="line"/>
      <point x="452" y="38"/>
      <point x="414" y="18"/>
      <point x="353" y="18" type="curve" smooth="yes"/>
      <point x="250" y="18"/>
      <point x="175" y="91"/>
      <point x="172" y="256" type="curve"/>
      <point x="172" y="428"/>
      <point x="251" y="502"/>
      <point x="344" y="502" type="curve" smooth="yes"/>
      <point x="455" y="502"/>
      <point x="505" y="416"/>
      <point x="505" y="294" type="curve" smooth="yes"/>
      <point x="505" y="280"/>
      <point x="505" y="276"/>
      <point x="505" y="270" type="curve"/>
      <point x="167" y="270" type="line"/>
      <point x="167" y="244" type="line"/>
      <point x="533" y="244" type="line"/>
      <point x="534" y="253"/>
      <point x="535" y="268"/>
      <point x="535" y="283" type="curve" smooth="yes"/>
      <point x="535" y="431"/>
      <point x="472" y="530"/>
    </contour>
    <contour>
      <point x="424" y="4" type="move" name="ogonek"/>
    </contour>
    <contour>
      <point x="336" y="0" type="move" name="bottom"/>
    </contour>
    <contour>
      <point x="336" y="517" type="move" name="top"/>
    </contour>
  </outline>
</glyph>
<glyph name="uni04C3" format="1">
  <advance width="563"/>
  <unicode hex="04C3"/>
  <outline>
    <contour>
      <point x="508" y="682" type="line"/>
      <point x="474" y="682" type="line"/>
      <point x="272" y="364" type="line"/>
      <point x="151" y="364" type="line"/>
      <point x="151" y="682" type="line"/>
      <point x="120" y="682" type="line"/>
      <point x="120" y="0" type="line"/>
      <point x="151" y="0" type="line"/>
      <point x="151" y="336" type="line"/>
      <point x="284" y="336" type="line" smooth="yes"/>
      <point x="426" y="336"/>
      <point x="471" y="292"/>
      <point x="471" y="160" type="curve" smooth="yes"/>
      <point x="471" y="-80" type="line" smooth="yes"/>
      <point x="471" y="-149"/>
      <point x="437" y="-171"/>
      <point x="398" y="-171" type="curve" smooth="yes"/>
      <point x="363" y="-171"/>
      <point x="341" y="-160"/>
      <point x="322" y="-147" type="curve"/>
      <point x="307" y="-168" type="line"/>
      <point x="327" y="-183"/>
      <point x="357" y="-199"/>
      <point x="398" y="-199" type="curve" smooth="yes"/>
      <point x="458" y="-199"/>
      <point x="502" y="-161"/>
      <point x="502" y="-82" type="curve" smooth="yes"/>
      <point x="502" y="162" type="line" smooth="yes"/>
      <point x="502" y="306"/>
      <point x="445" y="358"/>
      <point x="306" y="364" type="curve"/>
    </contour>
    <contour>
      <point x="289" y="680" type="move" name="top"/>
    </contour>
    <contour>
      <point x="289" y="-188" type="move" name="bottom"/>
    </contour>
  </outline>
</glyph>
<glyph name="uni04C4" format="1">
  <advance width="498"/>
  <unicode hex="04C4"/>
  <outline>
    <contour>
      <point x="393" y="520" type="line"/>
      <point x="238" y="285" type="line"/>
      <point x="145" y="285" type="line"/>
      <point x="145" y="520" type="line"/>
      <point x="115" y="520" type="line"/>
      <point x="115" y="0" type="line"/>
      <point x="145" y="0" type="line"/>
      <point x="145" y="259" type="line"/>
      <point x="256" y="259" type="line"/>
      <point x="263" y="274" type="line"/>
      <point x="427" y="520" type="line"/>
    </contour>
    <contour>
      <point x="256" y="259" type="line"/>
      <point x="377" y="259"/>
      <point x="398" y="205"/>
      <point x="398" y="125" type="curve" smooth="yes"/>
      <point x="398" y="0" type="line"/>
      <point x="428" y="0" type="line"/>
      <point x="428" y="126" type="line" smooth="yes"/>
      <point x="428" y="228"/>
      <point x="388" y="286"/>
      <point x="257" y="286" type="curve"/>
    </contour>
    <contour>
      <point x="324" y="-199" type="curve" smooth="yes"/>
      <point x="384" y="-199"/>
      <point x="428" y="-161"/>
      <point x="428" y="-82" type="curve" smooth="yes"/>
      <point x="428" y="1" type="line"/>
      <point x="398" y="1" type="line"/>
      <point x="398" y="-81" type="line" smooth="yes"/>
      <point x="398" y="-150"/>
      <point x="364" y="-172"/>
      <point x="324" y="-172" type="curve" smooth="yes"/>
      <point x="289" y="-172"/>
      <point x="267" y="-161"/>
      <point x="248" y="-148" type="curve"/>
      <point x="233" y="-168" type="line"/>
      <point x="253" y="-183"/>
      <point x="283" y="-199"/>
    </contour>
    <contour>
      <point x="242" y="517" type="move" name="top"/>
    </contour>
    <contour>
      <point x="242" y="-188" type="move" name="bottom"/>
    </contour>
  </outline>
</glyph>
<glyph name="uni04E8" format="1">
  <advance width="690"/>
  <unicode hex="04E8"/>
  <outline>
    <contour>
      <point x="345" y="692" type="curve" smooth="yes"/>
      <point x="186" y="692"/>
      <point x="75" y="565"/>
      <point x="75" y="337" type="curve" smooth="yes"/>
      <point x="75" y="114"/>
      <point x="185" y="-10"/>
      <point x="345" y="-10" type="curve" smooth="yes"/>
      <point x="511" y="-10"/>
      <point x="615" y="118"/>
      <point x="615" y="338" type="curve" smooth="yes"/>
      <point x="615" y="571"/>
      <point x="506" y="692"/>
    </contour>
    <contour>
      <point x="345" y="663" type="curve" smooth="yes"/>
      <point x="482" y="663"/>
      <point x="576" y="564"/>
      <point x="583" y="363" type="curve"/>
      <point x="107" y="363" type="line"/>
      <point x="115" y="563"/>
      <point x="210" y="663"/>
    </contour>
    <contour>
      <point x="345" y="19" type="curve" smooth="yes"/>
      <point x="205" y="19"/>
      <point x="108" y="128"/>
      <point x="107" y="335" type="curve"/>
      <point x="583" y="335" type="line"/>
      <point x="582" y="128"/>
      <point x="492" y="19"/>
    </contour>
    <contour>
      <point x="343" y="680" type="move" name="top"/>
    </contour>
    <contour>
      <point x="344" y="0" type="move" name="bottom"/>
    </contour>
  </outline>
</glyph>
<glyph name="uni04FA" format="1">
  <advance width="511"/>
  <unicode hex="04FA"/>
  <outline>
    <contour>
      <point x="501" y="682" type="line"/>
      <point x="123" y="682" type="line"/>
      <point x="123" y="392" type="line"/>
      <point x="25" y="392" type="line"/>
      <point x="25" y="364" type="line"/>
      <point x="123" y="364" type="line"/>
      <point x="123" y="0" type="line"/>
      <point x="184" y="0" type="line"/>
      <point x="184" y="-80" type="line" smooth="yes"/>
      <point x="184" y="-149"/>
      <point x="150" y="-171"/>
      <point x="111" y="-171" type="curve" smooth="yes"/>
      <point x="76" y="-171"/>
      <point x="54" y="-160"/>
      <point x="35" y="-147" type="curve"/>
      <point x="20" y="-168" type="line"/>
      <point x="40" y="-183"/>
      <point x="70" y="-199"/>
      <point x="111" y="-199" type="curve" smooth="yes"/>
      <point x="171" y="-199"/>
      <point x="215" y="-161"/>
      <point x="215" y="-82" type="curve" smooth="yes"/>
      <point x="215" y="29" type="line"/>
      <point x="154" y="29" type="line"/>
      <point x="154" y="364" type="line"/>
      <point x="328" y="364" type="line"/>
      <point x="328" y="392" type="line"/>
      <point x="154" y="392" type="line"/>
      <point x="154" y="652" type="line"/>
      <point x="496" y="652" type="line"/>
    </contour>
    <contour>
      <point x="333" y="680" type="move" name="top"/>
    </contour>
    <contour>
      <point x="134" y="0" type="move" name="bottom"/>
    </contour>
    <contour>
      <point x="145" y="0" type="move" name="bottomright"/>
    </contour>
  </outline>
</glyph>
<glyph name="uni04FB" format="1">
  <advance width="420"/>
  <unicode hex="04FB"/>
  <outline>
    <contour>
      <point x="146" y="0" type="line"/>
      <point x="208" y="0" type="line"/>
      <point x="208" y="28" type="line"/>
      <point x="146" y="28" type="line"/>
    </contour>
    <contour>
      <point x="117" y="298" type="line"/>
      <point x="50" y="298" type="line"/>
      <point x="50" y="271" type="line"/>
      <point x="281" y="271" type="line"/>
      <point x="281" y="298" type="line"/>
    </contour>
    <contour>
      <point x="147" y="492" type="line"/>
      <point x="406" y="492" type="line"/>
      <point x="410" y="520" type="line"/>
      <point x="117" y="520" type="line"/>
      <point x="117" y="0" type="line"/>
      <point x="147" y="0" type="line"/>
    </contour>
    <contour>
      <point x="104" y="-199" type="curve" smooth="yes"/>
      <point x="164" y="-199"/>
      <point x="208" y="-161"/>
      <point x="208" y="-82" type="curve" smooth="yes"/>
      <point x="208" y="1" type="line"/>
      <point x="178" y="1" type="line"/>
      <point x="178" y="-81" type="line" smooth="yes"/>
      <point x="178" y="-150"/>
      <point x="144" y="-172"/>
      <point x="104" y="-172" type="curve" smooth="yes"/>
      <point x="69" y="-172"/>
      <point x="47" y="-161"/>
      <point x="28" y="-148" type="curve"/>
      <point x="13" y="-168" type="line"/>
      <point x="33" y="-183"/>
      <point x="63" y="-199"/>
    </contour>
    <contour>
      <point x="208" y="517" type="move" name="top"/>
    </contour>
    <contour>
      <point x="208" y="-188" type="move" name="bottom"/>
    </contour>
    <contour>
      <point x="137" y="0" type="move" name="bottomright"/>
    </contour>
  </outline>
</glyph>
<glyph name="uni04FC" format="1">
  <advance width="506"/>
  <unicode hex="04FC"/>
  <outline>
    <contour>
      <point x="454" y="0" type="line"/>
      <point x="506" y="0" type="line"/>
      <point x="506" y="29" type="line"/>
      <point x="454" y="29" type="line"/>
    </contour>
    <contour>
      <point x="402" y="-199" type="curve" smooth="yes"/>
      <point x="462" y="-199"/>
      <point x="506" y="-161"/>
      <point x="506" y="-82" type="curve" smooth="yes"/>
      <point x="506" y="1" type="line"/>
      <point x="475" y="1" type="line"/>
      <point x="475" y="-80" type="line" smooth="yes"/>
      <point x="475" y="-149"/>
      <point x="441" y="-171"/>
      <point x="402" y="-171" type="curve" smooth="yes"/>
      <point x="367" y="-171"/>
      <point x="345" y="-160"/>
      <point x="326" y="-147" type="curve"/>
      <point x="311" y="-168" type="line"/>
      <point x="331" y="-183"/>
      <point x="361" y="-199"/>
    </contour>
    <contour>
      <point x="37" y="682" type="line"/>
      <point x="225" y="369" type="line"/>
      <point x="243" y="350" type="line"/>
      <point x="443" y="0" type="line"/>
      <point x="478" y="0" type="line"/>
      <point x="261" y="370" type="line"/>
      <point x="243" y="388" type="line"/>
      <point x="72" y="682" type="line"/>
    </contour>
    <contour>
      <point x="412" y="682" type="line"/>
      <point x="243" y="388" type="line"/>
      <point x="225" y="369" type="line"/>
      <point x="15" y="0" type="line"/>
      <point x="49" y="0" type="line"/>
      <point x="243" y="350" type="line"/>
      <point x="261" y="370" type="line"/>
      <point x="446" y="682" type="line"/>
    </contour>
    <contour>
      <point x="234" y="680" type="move" name="top"/>
    </contour>
    <contour>
      <point x="234" y="0" type="move" name="bottom"/>
    </contour>
    <contour>
      <point x="454" y="0" type="move" name="bottomright"/>
    </contour>
  </outline>
</glyph>
<glyph name="uni04FD" format="1">
  <advance width="464"/>
  <unicode hex="04FD"/>
  <outline>
    <contour>
      <point x="386" y="0" type="line"/>
      <point x="459" y="0" type="line"/>
      <point x="459" y="28" type="line"/>
      <point x="386" y="28" type="line"/>
    </contour>
    <contour>
      <point x="355" y="-199" type="curve" smooth="yes"/>
      <point x="415" y="-199"/>
      <point x="459" y="-161"/>
      <point x="459" y="-82" type="curve" smooth="yes"/>
      <point x="459" y="1" type="line"/>
      <point x="429" y="1" type="line"/>
      <point x="429" y="-81" type="line" smooth="yes"/>
      <point x="429" y="-150"/>
      <point x="395" y="-172"/>
      <point x="355" y="-172" type="curve" smooth="yes"/>
      <point x="320" y="-172"/>
      <point x="298" y="-161"/>
      <point x="279" y="-148" type="curve"/>
      <point x="264" y="-168" type="line"/>
      <point x="284" y="-183"/>
      <point x="314" y="-199"/>
    </contour>
    <contour>
      <point x="40" y="520" type="line"/>
      <point x="199" y="278" type="line"/>
      <point x="217" y="260" type="line"/>
      <point x="386" y="0" type="line"/>
      <point x="422" y="0" type="line"/>
      <point x="236" y="279" type="line"/>
      <point x="218" y="297" type="line"/>
      <point x="75" y="520" type="line"/>
    </contour>
    <contour>
      <point x="362" y="520" type="line"/>
      <point x="218" y="297" type="line"/>
      <point x="199" y="278" type="line"/>
      <point x="15" y="0" type="line"/>
      <point x="50" y="0" type="line"/>
      <point x="217" y="260" type="line"/>
      <point x="236" y="279" type="line"/>
      <point x="397" y="520" type="line"/>
    </contour>
    <contour>
      <point x="229" y="517" type="move" name="top"/>
    </contour>
    <contour>
      <point x="229" y="-188" type="move" name="bottom"/>
    </contour>
    <contour>
      <point x="407" y="0" type="move" name="bottomright"/>
    </contour>
  </outline>
</glyph>
<glyph name="uni04FE" format="1">
  <advance width="489"/>
  <unicode hex="04FE"/>
  <outline>
    <contour>
      <point x="37" y="682" type="line"/>
      <point x="225" y="369" type="line"/>
      <point x="243" y="350" type="line"/>
      <point x="443" y="0" type="line"/>
      <point x="478" y="0" type="line"/>
      <point x="261" y="370" type="line"/>
      <point x="243" y="388" type="line"/>
      <point x="72" y="682" type="line"/>
    </contour>
    <contour>
      <point x="412" y="682" type="line"/>
      <point x="243" y="388" type="line"/>
      <point x="225" y="369" type="line"/>
      <point x="15" y="0" type="line"/>
      <point x="49" y="0" type="line"/>
      <point x="243" y="350" type="line"/>
      <point x="261" y="370" type="line"/>
      <point x="446" y="682" type="line"/>
    </contour>
    <contour>
      <point x="431" y="357" type="line"/>
      <point x="431" y="385" type="line"/>
      <point x="58" y="385" type="line"/>
      <point x="58" y="357" type="line"/>
    </contour>
    <contour>
      <point x="234" y="680" type="move" name="top"/>
    </contour>
    <contour>
      <point x="234" y="0" type="move" name="bottom"/>
    </contour>
  </outline>
</glyph>
<glyph name="uni0502" format="1">
  <advance width="831"/>
  <unicode hex="0502"/>
  <outline>
    <contour>
      <point x="233" y="-10" type="curve" smooth="yes"/>
      <point x="314" y="-10"/>
      <point x="381" y="30"/>
      <point x="413" y="122" type="curve"/>
      <point x="431" y="173" type="line"/>
      <point x="431" y="682" type="line"/>
      <point x="400" y="682" type="line"/>
      <point x="400" y="169" type="line"/>
      <point x="373" y="55"/>
      <point x="307" y="19"/>
      <point x="233" y="19" type="curve" smooth="yes"/>
      <point x="152" y="19"/>
      <point x="77" y="67"/>
      <point x="77" y="193" type="curve" smooth="yes"/>
      <point x="77" y="316"/>
      <point x="149" y="379"/>
      <point x="277" y="379" type="curve" smooth="yes"/>
      <point x="407" y="379" type="line"/>
      <point x="407" y="408" type="line"/>
      <point x="278" y="408" type="line" smooth="yes"/>
      <point x="132" y="408"/>
      <point x="45" y="331"/>
      <point x="45" y="193" type="curve" smooth="yes"/>
      <point x="45" y="50"/>
      <point x="139" y="-10"/>
    </contour>
    <contour>
      <point x="562" y="-10" type="curve" smooth="yes"/>
      <point x="670" y="-10"/>
      <point x="759" y="73"/>
      <point x="759" y="265" type="curve" smooth="yes"/>
      <point x="759" y="304"/>
      <point x="757" y="342"/>
      <point x="753" y="379" type="curve"/>
      <point x="722" y="379" type="line"/>
      <point x="726" y="342"/>
      <point x="728" y="304"/>
      <point x="728" y="265" type="curve" smooth="yes"/>
      <point x="728" y="76"/>
      <point x="645" y="18"/>
      <point x="562" y="18" type="curve" smooth="yes"/>
      <point x="489" y="18"/>
      <point x="431" y="58"/>
      <point x="431" y="157" type="curve" smooth="yes"/>
      <point x="431" y="520" type="line"/>
      <point x="400" y="520" type="line"/>
      <point x="400" y="156" type="line" smooth="yes"/>
      <point x="403" y="45"/>
      <point x="471" y="-10"/>
    </contour>
    <contour>
      <point x="415" y="680" type="move" name="top"/>
    </contour>
    <contour>
      <point x="415" y="0" type="move" name="bottom"/>
    </contour>
  </outline>
</glyph>
<glyph name="uni0507" format="1">
  <advance width="409"/>
  <unicode hex="0507"/>
  <outline>
    <contour>
      <point x="190" y="228" type="line"/>
      <point x="281" y="241"/>
      <point x="346" y="284"/>
      <point x="346" y="373" type="curve" smooth="yes"/>
      <point x="346" y="467"/>
      <point x="284" y="520"/>
      <point x="147" y="520" type="curve" smooth="yes"/>
      <point x="50" y="520" type="line"/>
      <point x="50" y="492" type="line"/>
      <point x="144" y="492" type="line" smooth="yes"/>
      <point x="269" y="492"/>
      <point x="315" y="450"/>
      <point x="315" y="373" type="curve" smooth="yes"/>
      <point x="315" y="296"/>
      <point x="257" y="255"/>
      <point x="152" y="255" type="curve" smooth="yes"/>
      <point x="88" y="255" type="line"/>
      <point x="88" y="228" type="line"/>
    </contour>
    <contour>
      <point x="169" y="247" type="line"/>
      <point x="331" y="0" type="line"/>
      <point x="367" y="0" type="line"/>
      <point x="200" y="252" type="line"/>
    </contour>
    <contour>
      <point x="329" y="28" type="line"/>
      <point x="344" y="0" type="line"/>
      <point x="371" y="0" type="line"/>
      <point x="382" y="-141" type="line"/>
      <point x="404" y="-141" type="line"/>
      <point x="404" y="28" type="line"/>
    </contour>
    <contour>
      <point x="406" y="0" type="move" name="_bottom"/>
    </contour>
    <contour>
      <point x="206" y="-188" type="move" name="bottom"/>
    </contour>
    <contour>
      <point x="206" y="517" type="move" name="top"/>
    </contour>
  </outline>
</glyph>
<glyph name="uni0514" format="1">
  <advance width="781"/>
  <unicode hex="0514"/>
  <outline>
    <contour>
      <point x="50" y="-6" type="line"/>
      <point x="134" y="24"/>
      <point x="146" y="75"/>
      <point x="162" y="288" type="curve" smooth="yes"/>
      <point x="189" y="657" type="line"/>
      <point x="161" y="682" type="line"/>
      <point x="131" y="290" type="line" smooth="yes"/>
      <point x="115" y="83"/>
      <point x="103" y="43"/>
      <point x="41" y="20" type="curve"/>
    </contour>
    <contour>
      <point x="362" y="653" type="line"/>
      <point x="362" y="682" type="line"/>
      <point x="161" y="682" type="line"/>
      <point x="177" y="653" type="line"/>
    </contour>
    <contour>
      <point x="329" y="682" type="line"/>
      <point x="517" y="369" type="line"/>
      <point x="535" y="350" type="line"/>
      <point x="735" y="0" type="line"/>
      <point x="770" y="0" type="line"/>
      <point x="553" y="370" type="line"/>
      <point x="535" y="388" type="line"/>
      <point x="364" y="682" type="line"/>
    </contour>
    <contour>
      <point x="704" y="682" type="line"/>
      <point x="535" y="388" type="line"/>
      <point x="517" y="369" type="line"/>
      <point x="307" y="0" type="line"/>
      <point x="341" y="0" type="line"/>
      <point x="535" y="350" type="line"/>
      <point x="553" y="370" type="line"/>
      <point x="738" y="682" type="line"/>
    </contour>
    <contour>
      <point x="385" y="680" type="move" name="top"/>
    </contour>
    <contour>
      <point x="385" y="0" type="move" name="bottom"/>
    </contour>
    <contour>
      <point x="757" y="0" type="move" name="bottomright"/>
    </contour>
  </outline>
</glyph>
<glyph name="uni0515" format="1">
  <advance width="661"/>
  <unicode hex="0515"/>
  <outline>
    <contour>
      <point x="160" y="493" type="line"/>
      <point x="281" y="493" type="line"/>
      <point x="281" y="520" type="line"/>
      <point x="141" y="520" type="line"/>
    </contour>
    <contour>
      <point x="141" y="520" type="line"/>
      <point x="136" y="286" type="line" smooth="yes"/>
      <point x="132" y="80"/>
      <point x="115" y="41"/>
      <point x="52" y="19" type="curve"/>
      <point x="61" y="-6" type="line"/>
      <point x="146" y="23"/>
      <point x="162" y="67"/>
      <point x="166" y="284" type="curve" smooth="yes"/>
      <point x="170" y="493" type="line"/>
    </contour>
    <contour>
      <point x="264" y="520" type="line"/>
      <point x="423" y="278" type="line"/>
      <point x="441" y="260" type="line"/>
      <point x="610" y="0" type="line"/>
      <point x="646" y="0" type="line"/>
      <point x="460" y="279" type="line"/>
      <point x="442" y="297" type="line"/>
      <point x="299" y="520" type="line"/>
    </contour>
    <contour>
      <point x="586" y="520" type="line"/>
      <point x="442" y="297" type="line"/>
      <point x="423" y="278" type="line"/>
      <point x="239" y="0" type="line"/>
      <point x="274" y="0" type="line"/>
      <point x="441" y="260" type="line"/>
      <point x="460" y="279" type="line"/>
      <point x="621" y="520" type="line"/>
    </contour>
    <contour>
      <point x="318" y="517" type="move" name="top"/>
    </contour>
    <contour>
      <point x="318" y="0" type="move" name="bottom"/>
    </contour>
    <contour>
      <point x="618" y="0" type="move" name="bottomright"/>
    </contour>
  </outline>
</glyph>
<glyph name="uni0517" format="1">
  <advance width="746"/>
  <unicode hex="0517"/>
  <outline>
    <contour>
      <point x="674" y="520" type="line"/>
      <point x="493" y="279" type="line"/>
      <point x="493" y="255" type="line"/>
      <point x="686" y="0" type="line"/>
      <point x="721" y="0" type="line"/>
      <point x="519" y="269" type="line"/>
      <point x="708" y="520" type="line"/>
    </contour>
    <contour>
      <point x="309" y="530" type="curve" smooth="yes"/>
      <point x="232" y="530"/>
      <point x="176" y="488"/>
      <point x="138" y="432" type="curve"/>
      <point x="139" y="398" type="line"/>
      <point x="185" y="460"/>
      <point x="230" y="502"/>
      <point x="309" y="502" type="curve" smooth="yes"/>
      <point x="410" y="502"/>
      <point x="464" y="422"/>
      <point x="464" y="264" type="curve" smooth="yes"/>
      <point x="464" y="105"/>
      <point x="407" y="18"/>
      <point x="302" y="18" type="curve" smooth="yes"/>
      <point x="229" y="18"/>
      <point x="176" y="60"/>
      <point x="139" y="119" type="curve"/>
      <point x="137" y="84" type="line"/>
      <point x="167" y="36"/>
      <point x="224" y="-10"/>
      <point x="303" y="-10" type="curve" smooth="yes"/>
      <point x="428" y="-10"/>
      <point x="495" y="94"/>
      <point x="495" y="264" type="curve" smooth="yes"/>
      <point x="495" y="436"/>
      <point x="429" y="530"/>
    </contour>
    <contour>
      <point x="115" y="520" type="line"/>
      <point x="115" y="-199" type="line"/>
      <point x="145" y="-193" type="line"/>
      <point x="145" y="412" type="line"/>
      <point x="144" y="421" type="line"/>
      <point x="141" y="520" type="line"/>
    </contour>
    <contour>
      <point x="368" y="517" type="move" name="top"/>
    </contour>
    <contour>
      <point x="368" y="-188" type="move" name="bottom"/>
    </contour>
  </outline>
</glyph>
<glyph name="uni0520" format="1">
  <advance width="954"/>
  <unicode hex="0520"/>
  <outline>
    <contour>
      <point x="714" y="424" type="curve" smooth="yes"/>
      <point x="626" y="424"/>
      <point x="566" y="387"/>
      <point x="515" y="327" type="curve"/>
      <point x="515" y="287" type="line"/>
      <point x="572" y="360"/>
      <point x="632" y="395"/>
      <point x="713" y="395" type="curve" smooth="yes"/>
      <point x="823" y="395"/>
      <point x="868" y="332"/>
      <point x="868" y="241" type="curve" smooth="yes"/>
      <point x="868" y="0" type="line"/>
      <point x="899" y="0" type="line"/>
      <point x="899" y="243" type="line" smooth="yes"/>
      <point x="899" y="354"/>
      <point x="838" y="424"/>
    </contour>
    <contour>
      <point x="181" y="682" type="line"/>
      <point x="197" y="653" type="line"/>
      <point x="486" y="653" type="line"/>
      <point x="486" y="0" type="line"/>
      <point x="517" y="0" type="line"/>
      <point x="517" y="682" type="line"/>
    </contour>
    <contour>
      <point x="131" y="290" type="line" smooth="yes"/>
      <point x="105" y="84"/>
      <point x="103" y="43"/>
      <point x="41" y="20" type="curve"/>
      <point x="50" y="-6" type="line"/>
      <point x="134" y="24"/>
      <point x="135" y="75"/>
      <point x="162" y="288" type="curve" smooth="yes"/>
      <point x="209" y="657" type="line"/>
      <point x="181" y="682" type="line"/>
    </contour>
    <contour>
      <point x="795" y="-199" type="curve" smooth="yes"/>
      <point x="855" y="-199"/>
      <point x="899" y="-161"/>
      <point x="899" y="-82" type="curve" smooth="yes"/>
      <point x="899" y="1" type="line"/>
      <point x="868" y="1" type="line"/>
      <point x="868" y="-80" type="line" smooth="yes"/>
      <point x="868" y="-149"/>
      <point x="834" y="-171"/>
      <point x="795" y="-171" type="curve" smooth="yes"/>
      <point x="760" y="-171"/>
      <point x="738" y="-160"/>
      <point x="719" y="-147" type="curve"/>
      <point x="704" y="-168" type="line"/>
      <point x="724" y="-183"/>
      <point x="754" y="-199"/>
    </contour>
    <contour>
      <point x="479" y="680" type="move" name="top"/>
    </contour>
    <contour>
      <point x="479" y="-188" type="move" name="bottom"/>
    </contour>
    <contour>
      <point x="511" y="0" type="move" name="bottomright"/>
    </contour>
  </outline>
</glyph>
<glyph name="uni0521" format="1">
  <advance width="839"/>
  <unicode hex="0521"/>
  <outline>
    <contour>
      <point x="774" y="0" type="line"/>
      <point x="774" y="180" type="line" smooth="yes"/>
      <point x="774" y="282"/>
      <point x="728" y="340"/>
      <point x="634" y="340" type="curve" smooth="yes"/>
      <point x="551" y="340"/>
      <point x="488" y="290"/>
      <point x="438" y="229" type="curve"/>
      <point x="447" y="203" type="line"/>
      <point x="499" y="263"/>
      <point x="554" y="313"/>
      <point x="633" y="313" type="curve" smooth="yes"/>
      <point x="707" y="313"/>
      <point x="744" y="269"/>
      <point x="744" y="176" type="curve" smooth="yes"/>
      <point x="744" y="0" type="line"/>
    </contour>
    <contour>
      <point x="173" y="492" type="line"/>
      <point x="417" y="492" type="line"/>
      <point x="417" y="0" type="line"/>
      <point x="447" y="0" type="line"/>
      <point x="447" y="520" type="line"/>
      <point x="154" y="520" type="line"/>
    </contour>
    <contour>
      <point x="154" y="520" type="line"/>
      <point x="136" y="286" type="line" smooth="yes"/>
      <point x="120" y="80"/>
      <point x="115" y="41"/>
      <point x="52" y="19" type="curve"/>
      <point x="61" y="-6" type="line"/>
      <point x="146" y="23"/>
      <point x="149" y="68"/>
      <point x="166" y="284" type="curve" smooth="yes"/>
      <point x="182" y="495" type="line"/>
    </contour>
    <contour>
      <point x="670" y="-199" type="curve" smooth="yes"/>
      <point x="730" y="-199"/>
      <point x="774" y="-161"/>
      <point x="774" y="-82" type="curve" smooth="yes"/>
      <point x="774" y="1" type="line"/>
      <point x="744" y="1" type="line"/>
      <point x="744" y="-81" type="line" smooth="yes"/>
      <point x="744" y="-150"/>
      <point x="710" y="-172"/>
      <point x="670" y="-172" type="curve" smooth="yes"/>
      <point x="635" y="-172"/>
      <point x="613" y="-161"/>
      <point x="594" y="-148" type="curve"/>
      <point x="579" y="-168" type="line"/>
      <point x="599" y="-183"/>
      <point x="629" y="-199"/>
    </contour>
    <contour>
      <point x="427" y="517" type="move" name="top"/>
    </contour>
    <contour>
      <point x="427" y="-188" type="move" name="bottom"/>
    </contour>
    <contour>
      <point x="440" y="0" type="move" name="bottomright"/>
    </contour>
  </outline>
</glyph>
<glyph name="uni0522" format="1">
  <advance width="980"/>
  <unicode hex="0522"/>
  <outline>
    <contour>
      <point x="740" y="424" type="curve" smooth="yes"/>
      <point x="652" y="424"/>
      <point x="592" y="387"/>
      <point x="541" y="327" type="curve"/>
      <point x="541" y="287" type="line"/>
      <point x="598" y="360"/>
      <point x="658" y="395"/>
      <point x="739" y="395" type="curve" smooth="yes"/>
      <point x="849" y="395"/>
      <point x="894" y="332"/>
      <point x="894" y="241" type="curve" smooth="yes"/>
      <point x="894" y="0" type="line"/>
      <point x="925" y="0" type="line"/>
      <point x="925" y="243" type="line" smooth="yes"/>
      <point x="925" y="354"/>
      <point x="864" y="424"/>
    </contour>
    <contour>
      <point x="542" y="0" type="line"/>
      <point x="542" y="682" type="line"/>
      <point x="511" y="682" type="line"/>
      <point x="511" y="374" type="line"/>
      <point x="151" y="374" type="line"/>
      <point x="151" y="682" type="line"/>
      <point x="120" y="682" type="line"/>
      <point x="120" y="0" type="line"/>
      <point x="151" y="0" type="line"/>
      <point x="151" y="345" type="line"/>
      <point x="511" y="345" type="line"/>
      <point x="511" y="0" type="line"/>
    </contour>
    <contour>
      <point x="821" y="-199" type="curve" smooth="yes"/>
      <point x="881" y="-199"/>
      <point x="925" y="-161"/>
      <point x="925" y="-82" type="curve" smooth="yes"/>
      <point x="925" y="1" type="line"/>
      <point x="894" y="1" type="line"/>
      <point x="894" y="-80" type="line" smooth="yes"/>
      <point x="894" y="-149"/>
      <point x="860" y="-171"/>
      <point x="821" y="-171" type="curve" smooth="yes"/>
      <point x="786" y="-171"/>
      <point x="764" y="-160"/>
      <point x="745" y="-147" type="curve"/>
      <point x="730" y="-168" type="line"/>
      <point x="750" y="-183"/>
      <point x="780" y="-199"/>
    </contour>
    <contour>
      <point x="490" y="-188" type="move" name="bottom"/>
    </contour>
    <contour>
      <point x="490" y="680" type="move" name="top"/>
    </contour>
    <contour>
      <point x="80" y="680" type="move" name="topleft"/>
    </contour>
    <contour>
      <point x="534" y="0" type="move" name="bottomright"/>
    </contour>
    <contour>
      <point x="326" y="340" type="move" name="center"/>
    </contour>
  </outline>
</glyph>
<glyph name="uni0523" format="1">
  <advance width="861"/>
  <unicode hex="0523"/>
  <outline>
    <contour>
      <point x="796" y="0" type="line"/>
      <point x="796" y="180" type="line" smooth="yes"/>
      <point x="796" y="282"/>
      <point x="750" y="340"/>
      <point x="656" y="340" type="curve" smooth="yes"/>
      <point x="573" y="340"/>
      <point x="510" y="290"/>
      <point x="460" y="229" type="curve"/>
      <point x="469" y="203" type="line"/>
      <point x="521" y="263"/>
      <point x="576" y="313"/>
      <point x="655" y="313" type="curve" smooth="yes"/>
      <point x="729" y="313"/>
      <point x="766" y="269"/>
      <point x="766" y="176" type="curve" smooth="yes"/>
      <point x="766" y="0" type="line"/>
    </contour>
    <contour>
      <point x="469" y="0" type="line"/>
      <point x="469" y="520" type="line"/>
      <point x="439" y="520" type="line"/>
      <point x="439" y="286" type="line"/>
      <point x="145" y="286" type="line"/>
      <point x="145" y="520" type="line"/>
      <point x="115" y="520" type="line"/>
      <point x="115" y="0" type="line"/>
      <point x="145" y="0" type="line"/>
      <point x="145" y="258" type="line"/>
      <point x="439" y="258" type="line"/>
      <point x="439" y="0" type="line"/>
    </contour>
    <contour>
      <point x="692" y="-199" type="curve" smooth="yes"/>
      <point x="752" y="-199"/>
      <point x="796" y="-161"/>
      <point x="796" y="-82" type="curve" smooth="yes"/>
      <point x="796" y="1" type="line"/>
      <point x="766" y="1" type="line"/>
      <point x="766" y="-81" type="line" smooth="yes"/>
      <point x="766" y="-150"/>
      <point x="732" y="-172"/>
      <point x="692" y="-172" type="curve" smooth="yes"/>
      <point x="657" y="-172"/>
      <point x="635" y="-161"/>
      <point x="616" y="-148" type="curve"/>
      <point x="601" y="-168" type="line"/>
      <point x="621" y="-183"/>
      <point x="651" y="-199"/>
    </contour>
    <contour>
      <point x="438" y="517" type="move" name="top"/>
    </contour>
    <contour>
      <point x="438" y="-188" type="move" name="bottom"/>
    </contour>
    <contour>
      <point x="463" y="0" type="move" name="bottomright"/>
    </contour>
  </outline>
</glyph>
<glyph name="uni052B" format="1">
  <advance width="753"/>
  <unicode hex="052B"/>
  <outline>
    <contour>
      <point x="345" y="0" type="line"/>
      <point x="345" y="520" type="line"/>
      <point x="149" y="520" type="line"/>
      <point x="135" y="314" type="line" smooth="yes"/>
      <point x="120" y="94"/>
      <point x="91" y="64"/>
      <point x="42" y="28" type="curve"/>
      <point x="69" y="25" type="line"/>
      <point x="120" y="53"/>
      <point x="152" y="92"/>
      <point x="167" y="317" type="curve" smooth="yes"/>
      <point x="179" y="492" type="line"/>
      <point x="313" y="492" type="line"/>
      <point x="313" y="28" type="line"/>
      <point x="42" y="28" type="line"/>
      <point x="42" y="0" type="line"/>
    </contour>
    <contour>
      <point x="450" y="264" type="line"/>
      <point x="450" y="290" type="line"/>
      <point x="325" y="290" type="line"/>
      <point x="325" y="264" type="line"/>
    </contour>
    <contour>
      <point x="466" y="0" type="line"/>
      <point x="466" y="264" type="line"/>
      <point x="504" y="264" type="line"/>
      <point x="693" y="0" type="line"/>
      <point x="728" y="0" type="line"/>
      <point x="529" y="279" type="line"/>
      <point x="698" y="520" type="line"/>
      <point x="664" y="520" type="line"/>
      <point x="504" y="290" type="line"/>
      <point x="466" y="290" type="line"/>
      <point x="466" y="520" type="line"/>
      <point x="436" y="520" type="line"/>
      <point x="436" y="0" type="line"/>
    </contour>
    <contour>
      <point x="460" y="0" type="line"/>
      <point x="460" y="28" type="line"/>
      <point x="355" y="28" type="line"/>
      <point x="355" y="0" type="line"/>
    </contour>
    <contour>
      <point x="312" y="28" type="line"/>
      <point x="327" y="0" type="line"/>
      <point x="354" y="0" type="line"/>
      <point x="365" y="-141" type="line"/>
      <point x="387" y="-141" type="line"/>
      <point x="387" y="28" type="line"/>
    </contour>
    <contour>
      <point x="10" y="-141" type="line"/>
      <point x="32" y="-141" type="line"/>
      <point x="43" y="0" type="line"/>
      <point x="70" y="0" type="line"/>
      <point x="85" y="28" type="line"/>
      <point x="10" y="28" type="line"/>
    </contour>
    <contour>
      <point x="343" y="0" type="move" name="_bottom"/>
    </contour>
    <contour>
      <point x="361" y="-188" type="move" name="bottom"/>
    </contour>
    <contour>
      <point x="361" y="517" type="move" name="top"/>
    </contour>
  </outline>
</glyph>
<glyph name="uni052D" format="1">
  <advance width="606"/>
  <unicode hex="052D"/>
  <outline>
    <contour>
      <point x="123" y="25" type="line"/>
      <point x="172" y="55"/>
      <point x="224" y="98"/>
      <point x="239" y="317" type="curve" smooth="yes"/>
      <point x="251" y="492" type="line"/>
      <point x="459" y="492" type="line"/>
      <point x="459" y="28" type="line"/>
      <point x="95" y="28" type="line"/>
      <point x="95" y="0" type="line"/>
      <point x="491" y="0" type="line"/>
      <point x="491" y="520" type="line"/>
      <point x="221" y="520" type="line"/>
      <point x="207" y="314" type="line" smooth="yes"/>
      <point x="192" y="94"/>
      <point x="138" y="64"/>
      <point x="95" y="28" type="curve"/>
    </contour>
    <contour>
      <point x="462" y="313" type="line"/>
      <point x="237" y="313" type="line"/>
      <point x="134" y="313"/>
      <point x="112" y="340"/>
      <point x="112" y="426" type="curve" smooth="yes"/>
      <point x="112" y="520" type="line"/>
      <point x="82" y="520" type="line"/>
      <point x="82" y="422" type="line" smooth="yes"/>
      <point x="82" y="318"/>
      <point x="128" y="285"/>
      <point x="232" y="285" type="curve"/>
      <point x="462" y="285" type="line"/>
    </contour>
    <contour>
      <point x="65" y="-141" type="line"/>
      <point x="87" y="-141" type="line"/>
      <point x="98" y="0" type="line"/>
      <point x="125" y="0" type="line"/>
      <point x="140" y="28" type="line"/>
      <point x="65" y="28" type="line"/>
    </contour>
    <contour>
      <point x="461" y="28" type="line"/>
      <point x="476" y="0" type="line"/>
      <point x="503" y="0" type="line"/>
      <point x="514" y="-141" type="line"/>
      <point x="536" y="-141" type="line"/>
      <point x="536" y="28" type="line"/>
    </contour>
    <contour>
      <point x="76" y="0" type="move" name="_bottom"/>
    </contour>
    <contour>
      <point x="299" y="-188" type="move" name="bottom"/>
    </contour>
    <contour>
      <point x="299" y="517" type="move" name="top"/>
    </contour>
  </outline>
</glyph>
<glyph name="uni1D6C" format="1">
  <advance width="638"/>
  <unicode hex="1D6C"/>
  <outline>
    <contour>
      <point x="287" y="588" type="curve"/>
      <point x="327" y="588"/>
      <point x="348" y="611"/>
      <point x="373" y="647" type="curve"/>
      <point x="353" y="659" type="line"/>
      <point x="332" y="634"/>
      <point x="319" y="618"/>
      <point x="287" y="618" type="curve"/>
      <point x="239" y="618"/>
      <point x="192" y="673"/>
      <point x="134" y="673" type="curve"/>
      <point x="92" y="673"/>
      <point x="70" y="650"/>
      <point x="45" y="614" type="curve"/>
      <point x="65" y="602" type="line"/>
      <point x="86" y="627"/>
      <point x="100" y="643"/>
      <point x="134" y="643" type="curve"/>
      <point x="181" y="643"/>
      <point x="233" y="588"/>
    </contour>
    <contour>
      <point x="382" y="530" type="curve" smooth="yes"/>
      <point x="305" y="530"/>
      <point x="249" y="488"/>
      <point x="211" y="432" type="curve"/>
      <point x="212" y="398" type="line"/>
      <point x="258" y="460"/>
      <point x="303" y="502"/>
      <point x="382" y="502" type="curve" smooth="yes"/>
      <point x="483" y="502"/>
      <point x="537" y="422"/>
      <point x="537" y="264" type="curve" smooth="yes"/>
      <point x="537" y="105"/>
      <point x="480" y="18"/>
      <point x="375" y="18" type="curve" smooth="yes"/>
      <point x="302" y="18"/>
      <point x="249" y="60"/>
      <point x="212" y="119" type="curve"/>
      <point x="210" y="84" type="line"/>
      <point x="240" y="36"/>
      <point x="297" y="-10"/>
      <point x="376" y="-10" type="curve" smooth="yes"/>
      <point x="501" y="-10"/>
      <point x="568" y="94"/>
      <point x="568" y="264" type="curve" smooth="yes"/>
      <point x="568" y="436"/>
      <point x="502" y="530"/>
    </contour>
    <contour>
      <point x="188" y="734" type="line"/>
      <point x="188" y="0" type="line"/>
      <point x="214" y="0" type="line"/>
      <point x="218" y="96" type="line"/>
      <point x="218" y="738" type="line"/>
    </contour>
    <contour>
      <point x="362" y="727" type="move" name="top"/>
    </contour>
    <contour>
      <point x="357" y="0" type="move" name="bottom"/>
    </contour>
  </outline>
</glyph>
